G04 #@! TF.GenerationSoftware,KiCad,Pcbnew,5.1.6-c6e7f7d~87~ubuntu16.04.1*
G04 #@! TF.CreationDate,2020-09-13T22:56:36+08:00*
G04 #@! TF.ProjectId,famicart_rom,66616d69-6361-4727-945f-726f6d2e6b69,rev?*
G04 #@! TF.SameCoordinates,Original*
G04 #@! TF.FileFunction,Legend,Top*
G04 #@! TF.FilePolarity,Positive*
%FSLAX46Y46*%
G04 Gerber Fmt 4.6, Leading zero omitted, Abs format (unit mm)*
G04 Created by KiCad (PCBNEW 5.1.6-c6e7f7d~87~ubuntu16.04.1) date 2020-09-13 22:56:36*
%MOMM*%
%LPD*%
G01*
G04 APERTURE LIST*
%ADD10C,0.120000*%
%ADD11C,0.150000*%
G04 APERTURE END LIST*
D10*
G04 #@! TO.C,U7*
X129480000Y-55610000D02*
X129480000Y-57260000D01*
X129480000Y-57260000D02*
X155000000Y-57260000D01*
X155000000Y-57260000D02*
X155000000Y-51960000D01*
X155000000Y-51960000D02*
X129480000Y-51960000D01*
X129480000Y-51960000D02*
X129480000Y-53610000D01*
X129420000Y-59750000D02*
X155060000Y-59750000D01*
X155060000Y-59750000D02*
X155060000Y-49470000D01*
X155060000Y-49470000D02*
X129420000Y-49470000D01*
X129420000Y-49470000D02*
X129420000Y-59750000D01*
X129480000Y-53610000D02*
G75*
G02*
X129480000Y-55610000I0J-1000000D01*
G01*
G04 #@! TO.C,U4*
X102175000Y-76565000D02*
X102175000Y-82025000D01*
X102175000Y-82025000D02*
X142935000Y-82025000D01*
X142935000Y-82025000D02*
X142935000Y-69105000D01*
X142935000Y-69105000D02*
X102175000Y-69105000D01*
X102175000Y-69105000D02*
X102175000Y-74565000D01*
X102115000Y-84515000D02*
X142995000Y-84515000D01*
X142995000Y-84515000D02*
X142995000Y-66615000D01*
X142995000Y-66615000D02*
X102115000Y-66615000D01*
X102115000Y-66615000D02*
X102115000Y-84515000D01*
X102175000Y-74565000D02*
G75*
G02*
X102175000Y-76565000I0J-1000000D01*
G01*
G04 #@! TO.C,U3*
X152975000Y-101330000D02*
X152975000Y-106790000D01*
X152975000Y-106790000D02*
X193735000Y-106790000D01*
X193735000Y-106790000D02*
X193735000Y-93870000D01*
X193735000Y-93870000D02*
X152975000Y-93870000D01*
X152975000Y-93870000D02*
X152975000Y-99330000D01*
X152915000Y-109280000D02*
X193795000Y-109280000D01*
X193795000Y-109280000D02*
X193795000Y-91380000D01*
X193795000Y-91380000D02*
X152915000Y-91380000D01*
X152915000Y-91380000D02*
X152915000Y-109280000D01*
X152975000Y-99330000D02*
G75*
G02*
X152975000Y-101330000I0J-1000000D01*
G01*
G04 #@! TO.C,U5*
X102115000Y-91380000D02*
X102115000Y-109280000D01*
X142995000Y-91380000D02*
X102115000Y-91380000D01*
X142995000Y-109280000D02*
X142995000Y-91380000D01*
X102115000Y-109280000D02*
X142995000Y-109280000D01*
X102175000Y-93870000D02*
X102175000Y-99330000D01*
X142935000Y-93870000D02*
X102175000Y-93870000D01*
X142935000Y-106790000D02*
X142935000Y-93870000D01*
X102175000Y-106790000D02*
X142935000Y-106790000D01*
X102175000Y-101330000D02*
X102175000Y-106790000D01*
X102175000Y-99330000D02*
G75*
G02*
X102175000Y-101330000I0J-1000000D01*
G01*
G04 #@! TO.C,J1*
X108010001Y-139125001D02*
X108010001Y-126425001D01*
X186750001Y-139125001D02*
X108010001Y-139125001D01*
X186750001Y-126425001D02*
X186750001Y-139125001D01*
X108010001Y-126425001D02*
X186750001Y-126425001D01*
G04 #@! TO.C,U1*
X102175000Y-55610000D02*
X102175000Y-57260000D01*
X102175000Y-57260000D02*
X120075000Y-57260000D01*
X120075000Y-57260000D02*
X120075000Y-51960000D01*
X120075000Y-51960000D02*
X102175000Y-51960000D01*
X102175000Y-51960000D02*
X102175000Y-53610000D01*
X102115000Y-59750000D02*
X120135000Y-59750000D01*
X120135000Y-59750000D02*
X120135000Y-49470000D01*
X120135000Y-49470000D02*
X102115000Y-49470000D01*
X102115000Y-49470000D02*
X102115000Y-59750000D01*
X102175000Y-53610000D02*
G75*
G02*
X102175000Y-55610000I0J-1000000D01*
G01*
G04 #@! TO.C,U2*
X178315000Y-71060000D02*
X178315000Y-81340000D01*
X196335000Y-71060000D02*
X178315000Y-71060000D01*
X196335000Y-81340000D02*
X196335000Y-71060000D01*
X178315000Y-81340000D02*
X196335000Y-81340000D01*
X178375000Y-73550000D02*
X178375000Y-75200000D01*
X196275000Y-73550000D02*
X178375000Y-73550000D01*
X196275000Y-78850000D02*
X196275000Y-73550000D01*
X178375000Y-78850000D02*
X196275000Y-78850000D01*
X178375000Y-77200000D02*
X178375000Y-78850000D01*
X178375000Y-75200000D02*
G75*
G02*
X178375000Y-77200000I0J-1000000D01*
G01*
G04 #@! TO.C,U6*
X152975000Y-77200000D02*
X152975000Y-78850000D01*
X152975000Y-78850000D02*
X170875000Y-78850000D01*
X170875000Y-78850000D02*
X170875000Y-73550000D01*
X170875000Y-73550000D02*
X152975000Y-73550000D01*
X152975000Y-73550000D02*
X152975000Y-75200000D01*
X152915000Y-81340000D02*
X170935000Y-81340000D01*
X170935000Y-81340000D02*
X170935000Y-71060000D01*
X170935000Y-71060000D02*
X152915000Y-71060000D01*
X152915000Y-71060000D02*
X152915000Y-81340000D01*
X152975000Y-75200000D02*
G75*
G02*
X152975000Y-77200000I0J-1000000D01*
G01*
G04 #@! TO.C,BT1*
X168340000Y-63785000D02*
X166340000Y-63785000D01*
X167340000Y-62785000D02*
X167340000Y-64785000D01*
X191690000Y-49435000D02*
X191690000Y-53935000D01*
X168990000Y-49435000D02*
X168990000Y-53935000D01*
X168990000Y-49435000D02*
X191690000Y-49435000D01*
X194890000Y-53935000D02*
X194890000Y-55485000D01*
X191690000Y-53935000D02*
X194890000Y-53935000D01*
X165790000Y-53935000D02*
X165790000Y-55485000D01*
X168990000Y-53935000D02*
X165790000Y-53935000D01*
X165790000Y-61635000D02*
X165790000Y-60085000D01*
X168990000Y-61635000D02*
X165790000Y-61635000D01*
X170790000Y-66135000D02*
X168990000Y-64335000D01*
X168990000Y-64335000D02*
X168990000Y-61635000D01*
X191690000Y-66135000D02*
X170790000Y-66135000D01*
X191690000Y-66135000D02*
X191690000Y-61635000D01*
X194890000Y-61635000D02*
X194890000Y-60085000D01*
X191690000Y-61635000D02*
X194890000Y-61635000D01*
G04 #@! TO.C,D1*
X100180000Y-70235000D02*
X97940000Y-70235000D01*
X100180000Y-70475000D02*
X97940000Y-70475000D01*
X100180000Y-70355000D02*
X97940000Y-70355000D01*
X99060000Y-74525000D02*
X99060000Y-73875000D01*
X99060000Y-68985000D02*
X99060000Y-69635000D01*
X100180000Y-73875000D02*
X100180000Y-69635000D01*
X97940000Y-73875000D02*
X100180000Y-73875000D01*
X97940000Y-69635000D02*
X97940000Y-73875000D01*
X100180000Y-69635000D02*
X97940000Y-69635000D01*
G04 #@! TO.C,D2*
X158900000Y-66255000D02*
X161140000Y-66255000D01*
X161140000Y-66255000D02*
X161140000Y-62015000D01*
X161140000Y-62015000D02*
X158900000Y-62015000D01*
X158900000Y-62015000D02*
X158900000Y-66255000D01*
X160020000Y-66905000D02*
X160020000Y-66255000D01*
X160020000Y-61365000D02*
X160020000Y-62015000D01*
X158900000Y-65535000D02*
X161140000Y-65535000D01*
X158900000Y-65415000D02*
X161140000Y-65415000D01*
X158900000Y-65655000D02*
X161140000Y-65655000D01*
G04 #@! TO.C,R1*
X100430000Y-58325000D02*
X100100000Y-58325000D01*
X100430000Y-64865000D02*
X100430000Y-58325000D01*
X100100000Y-64865000D02*
X100430000Y-64865000D01*
X97690000Y-58325000D02*
X98020000Y-58325000D01*
X97690000Y-64865000D02*
X97690000Y-58325000D01*
X98020000Y-64865000D02*
X97690000Y-64865000D01*
G04 #@! TO.C,R2*
X158980000Y-57245000D02*
X158650000Y-57245000D01*
X158650000Y-57245000D02*
X158650000Y-50705000D01*
X158650000Y-50705000D02*
X158980000Y-50705000D01*
X161060000Y-57245000D02*
X161390000Y-57245000D01*
X161390000Y-57245000D02*
X161390000Y-50705000D01*
X161390000Y-50705000D02*
X161060000Y-50705000D01*
G04 #@! TO.C,C1*
X150780000Y-76186000D02*
X150780000Y-77444000D01*
X148940000Y-76186000D02*
X148940000Y-77444000D01*
G04 #@! TO.C,C2*
X176180000Y-74309000D02*
X176180000Y-73051000D01*
X174340000Y-74309000D02*
X174340000Y-73051000D01*
G04 #@! TO.C,C3*
X99980000Y-80024000D02*
X99980000Y-78766000D01*
X98140000Y-80024000D02*
X98140000Y-78766000D01*
G04 #@! TO.C,C4*
X125445000Y-52679000D02*
X125445000Y-51421000D01*
X127285000Y-52679000D02*
X127285000Y-51421000D01*
G04 #@! TO.C,C5*
X150780000Y-94629000D02*
X150780000Y-93371000D01*
X148940000Y-94629000D02*
X148940000Y-93371000D01*
G04 #@! TO.C,C6*
X98140000Y-52719000D02*
X98140000Y-51461000D01*
X99980000Y-52719000D02*
X99980000Y-51461000D01*
G04 #@! TO.C,C7*
X98140000Y-94629000D02*
X98140000Y-93371000D01*
X99980000Y-94629000D02*
X99980000Y-93371000D01*
G04 #@! TO.C,J2*
X160715000Y-87690000D02*
X160715000Y-85030000D01*
X155575000Y-87690000D02*
X160715000Y-87690000D01*
X155575000Y-85030000D02*
X160715000Y-85030000D01*
X155575000Y-87690000D02*
X155575000Y-85030000D01*
X154305000Y-87690000D02*
X152975000Y-87690000D01*
X152975000Y-87690000D02*
X152975000Y-86360000D01*
G04 #@! TO.C,J3*
X163135000Y-87690000D02*
X163135000Y-86360000D01*
X164465000Y-87690000D02*
X163135000Y-87690000D01*
X165735000Y-87690000D02*
X165735000Y-85030000D01*
X165735000Y-85030000D02*
X170875000Y-85030000D01*
X165735000Y-87690000D02*
X170875000Y-87690000D01*
X170875000Y-87690000D02*
X170875000Y-85030000D01*
G04 #@! TO.C,U7*
D11*
X127932380Y-55371904D02*
X128741904Y-55371904D01*
X128837142Y-55324285D01*
X128884761Y-55276666D01*
X128932380Y-55181428D01*
X128932380Y-54990952D01*
X128884761Y-54895714D01*
X128837142Y-54848095D01*
X128741904Y-54800476D01*
X127932380Y-54800476D01*
X127932380Y-54419523D02*
X127932380Y-53752857D01*
X128932380Y-54181428D01*
G04 #@! TO.C,U4*
X100627380Y-76326904D02*
X101436904Y-76326904D01*
X101532142Y-76279285D01*
X101579761Y-76231666D01*
X101627380Y-76136428D01*
X101627380Y-75945952D01*
X101579761Y-75850714D01*
X101532142Y-75803095D01*
X101436904Y-75755476D01*
X100627380Y-75755476D01*
X100960714Y-74850714D02*
X101627380Y-74850714D01*
X100579761Y-75088809D02*
X101294047Y-75326904D01*
X101294047Y-74707857D01*
G04 #@! TO.C,U3*
X151427380Y-101091904D02*
X152236904Y-101091904D01*
X152332142Y-101044285D01*
X152379761Y-100996666D01*
X152427380Y-100901428D01*
X152427380Y-100710952D01*
X152379761Y-100615714D01*
X152332142Y-100568095D01*
X152236904Y-100520476D01*
X151427380Y-100520476D01*
X151427380Y-100139523D02*
X151427380Y-99520476D01*
X151808333Y-99853809D01*
X151808333Y-99710952D01*
X151855952Y-99615714D01*
X151903571Y-99568095D01*
X151998809Y-99520476D01*
X152236904Y-99520476D01*
X152332142Y-99568095D01*
X152379761Y-99615714D01*
X152427380Y-99710952D01*
X152427380Y-99996666D01*
X152379761Y-100091904D01*
X152332142Y-100139523D01*
G04 #@! TO.C,U5*
X100627380Y-101091904D02*
X101436904Y-101091904D01*
X101532142Y-101044285D01*
X101579761Y-100996666D01*
X101627380Y-100901428D01*
X101627380Y-100710952D01*
X101579761Y-100615714D01*
X101532142Y-100568095D01*
X101436904Y-100520476D01*
X100627380Y-100520476D01*
X100627380Y-99568095D02*
X100627380Y-100044285D01*
X101103571Y-100091904D01*
X101055952Y-100044285D01*
X101008333Y-99949047D01*
X101008333Y-99710952D01*
X101055952Y-99615714D01*
X101103571Y-99568095D01*
X101198809Y-99520476D01*
X101436904Y-99520476D01*
X101532142Y-99568095D01*
X101579761Y-99615714D01*
X101627380Y-99710952D01*
X101627380Y-99949047D01*
X101579761Y-100044285D01*
X101532142Y-100091904D01*
G04 #@! TO.C,U1*
X100627380Y-55371904D02*
X101436904Y-55371904D01*
X101532142Y-55324285D01*
X101579761Y-55276666D01*
X101627380Y-55181428D01*
X101627380Y-54990952D01*
X101579761Y-54895714D01*
X101532142Y-54848095D01*
X101436904Y-54800476D01*
X100627380Y-54800476D01*
X101627380Y-53800476D02*
X101627380Y-54371904D01*
X101627380Y-54086190D02*
X100627380Y-54086190D01*
X100770238Y-54181428D01*
X100865476Y-54276666D01*
X100913095Y-54371904D01*
G04 #@! TO.C,U2*
X176827380Y-76961904D02*
X177636904Y-76961904D01*
X177732142Y-76914285D01*
X177779761Y-76866666D01*
X177827380Y-76771428D01*
X177827380Y-76580952D01*
X177779761Y-76485714D01*
X177732142Y-76438095D01*
X177636904Y-76390476D01*
X176827380Y-76390476D01*
X176922619Y-75961904D02*
X176875000Y-75914285D01*
X176827380Y-75819047D01*
X176827380Y-75580952D01*
X176875000Y-75485714D01*
X176922619Y-75438095D01*
X177017857Y-75390476D01*
X177113095Y-75390476D01*
X177255952Y-75438095D01*
X177827380Y-76009523D01*
X177827380Y-75390476D01*
G04 #@! TO.C,U6*
X151427380Y-76961904D02*
X152236904Y-76961904D01*
X152332142Y-76914285D01*
X152379761Y-76866666D01*
X152427380Y-76771428D01*
X152427380Y-76580952D01*
X152379761Y-76485714D01*
X152332142Y-76438095D01*
X152236904Y-76390476D01*
X151427380Y-76390476D01*
X151427380Y-75485714D02*
X151427380Y-75676190D01*
X151475000Y-75771428D01*
X151522619Y-75819047D01*
X151665476Y-75914285D01*
X151855952Y-75961904D01*
X152236904Y-75961904D01*
X152332142Y-75914285D01*
X152379761Y-75866666D01*
X152427380Y-75771428D01*
X152427380Y-75580952D01*
X152379761Y-75485714D01*
X152332142Y-75438095D01*
X152236904Y-75390476D01*
X151998809Y-75390476D01*
X151903571Y-75438095D01*
X151855952Y-75485714D01*
X151808333Y-75580952D01*
X151808333Y-75771428D01*
X151855952Y-75866666D01*
X151903571Y-75914285D01*
X151998809Y-75961904D01*
G04 #@! TO.C,BT1*
X165429285Y-52413571D02*
X165572142Y-52461190D01*
X165619761Y-52508809D01*
X165667380Y-52604047D01*
X165667380Y-52746904D01*
X165619761Y-52842142D01*
X165572142Y-52889761D01*
X165476904Y-52937380D01*
X165095952Y-52937380D01*
X165095952Y-51937380D01*
X165429285Y-51937380D01*
X165524523Y-51985000D01*
X165572142Y-52032619D01*
X165619761Y-52127857D01*
X165619761Y-52223095D01*
X165572142Y-52318333D01*
X165524523Y-52365952D01*
X165429285Y-52413571D01*
X165095952Y-52413571D01*
X165953095Y-51937380D02*
X166524523Y-51937380D01*
X166238809Y-52937380D02*
X166238809Y-51937380D01*
X167381666Y-52937380D02*
X166810238Y-52937380D01*
X167095952Y-52937380D02*
X167095952Y-51937380D01*
X167000714Y-52080238D01*
X166905476Y-52175476D01*
X166810238Y-52223095D01*
G04 #@! TO.C,D1*
X96972380Y-72493095D02*
X95972380Y-72493095D01*
X95972380Y-72255000D01*
X96020000Y-72112142D01*
X96115238Y-72016904D01*
X96210476Y-71969285D01*
X96400952Y-71921666D01*
X96543809Y-71921666D01*
X96734285Y-71969285D01*
X96829523Y-72016904D01*
X96924761Y-72112142D01*
X96972380Y-72255000D01*
X96972380Y-72493095D01*
X96972380Y-70969285D02*
X96972380Y-71540714D01*
X96972380Y-71255000D02*
X95972380Y-71255000D01*
X96115238Y-71350238D01*
X96210476Y-71445476D01*
X96258095Y-71540714D01*
X96972380Y-68206904D02*
X95972380Y-68206904D01*
X96972380Y-67635476D02*
X96400952Y-68064047D01*
X95972380Y-67635476D02*
X96543809Y-68206904D01*
G04 #@! TO.C,D2*
X158352380Y-64873095D02*
X157352380Y-64873095D01*
X157352380Y-64635000D01*
X157400000Y-64492142D01*
X157495238Y-64396904D01*
X157590476Y-64349285D01*
X157780952Y-64301666D01*
X157923809Y-64301666D01*
X158114285Y-64349285D01*
X158209523Y-64396904D01*
X158304761Y-64492142D01*
X158352380Y-64635000D01*
X158352380Y-64873095D01*
X157447619Y-63920714D02*
X157400000Y-63873095D01*
X157352380Y-63777857D01*
X157352380Y-63539761D01*
X157400000Y-63444523D01*
X157447619Y-63396904D01*
X157542857Y-63349285D01*
X157638095Y-63349285D01*
X157780952Y-63396904D01*
X158352380Y-63968333D01*
X158352380Y-63349285D01*
X158672380Y-68206904D02*
X157672380Y-68206904D01*
X158672380Y-67635476D02*
X158100952Y-68064047D01*
X157672380Y-67635476D02*
X158243809Y-68206904D01*
G04 #@! TO.C,R1*
X97142380Y-61761666D02*
X96666190Y-62095000D01*
X97142380Y-62333095D02*
X96142380Y-62333095D01*
X96142380Y-61952142D01*
X96190000Y-61856904D01*
X96237619Y-61809285D01*
X96332857Y-61761666D01*
X96475714Y-61761666D01*
X96570952Y-61809285D01*
X96618571Y-61856904D01*
X96666190Y-61952142D01*
X96666190Y-62333095D01*
X97142380Y-60809285D02*
X97142380Y-61380714D01*
X97142380Y-61095000D02*
X96142380Y-61095000D01*
X96285238Y-61190238D01*
X96380476Y-61285476D01*
X96428095Y-61380714D01*
G04 #@! TO.C,R2*
X158102380Y-54141666D02*
X157626190Y-54475000D01*
X158102380Y-54713095D02*
X157102380Y-54713095D01*
X157102380Y-54332142D01*
X157150000Y-54236904D01*
X157197619Y-54189285D01*
X157292857Y-54141666D01*
X157435714Y-54141666D01*
X157530952Y-54189285D01*
X157578571Y-54236904D01*
X157626190Y-54332142D01*
X157626190Y-54713095D01*
X157197619Y-53760714D02*
X157150000Y-53713095D01*
X157102380Y-53617857D01*
X157102380Y-53379761D01*
X157150000Y-53284523D01*
X157197619Y-53236904D01*
X157292857Y-53189285D01*
X157388095Y-53189285D01*
X157530952Y-53236904D01*
X158102380Y-53808333D01*
X158102380Y-53189285D01*
G04 #@! TO.C,C1*
X148312142Y-77001666D02*
X148359761Y-77049285D01*
X148407380Y-77192142D01*
X148407380Y-77287380D01*
X148359761Y-77430238D01*
X148264523Y-77525476D01*
X148169285Y-77573095D01*
X147978809Y-77620714D01*
X147835952Y-77620714D01*
X147645476Y-77573095D01*
X147550238Y-77525476D01*
X147455000Y-77430238D01*
X147407380Y-77287380D01*
X147407380Y-77192142D01*
X147455000Y-77049285D01*
X147502619Y-77001666D01*
X148407380Y-76049285D02*
X148407380Y-76620714D01*
X148407380Y-76335000D02*
X147407380Y-76335000D01*
X147550238Y-76430238D01*
X147645476Y-76525476D01*
X147693095Y-76620714D01*
G04 #@! TO.C,C2*
X173567142Y-73846666D02*
X173614761Y-73894285D01*
X173662380Y-74037142D01*
X173662380Y-74132380D01*
X173614761Y-74275238D01*
X173519523Y-74370476D01*
X173424285Y-74418095D01*
X173233809Y-74465714D01*
X173090952Y-74465714D01*
X172900476Y-74418095D01*
X172805238Y-74370476D01*
X172710000Y-74275238D01*
X172662380Y-74132380D01*
X172662380Y-74037142D01*
X172710000Y-73894285D01*
X172757619Y-73846666D01*
X172757619Y-73465714D02*
X172710000Y-73418095D01*
X172662380Y-73322857D01*
X172662380Y-73084761D01*
X172710000Y-72989523D01*
X172757619Y-72941904D01*
X172852857Y-72894285D01*
X172948095Y-72894285D01*
X173090952Y-72941904D01*
X173662380Y-73513333D01*
X173662380Y-72894285D01*
G04 #@! TO.C,C3*
X97367142Y-79561666D02*
X97414761Y-79609285D01*
X97462380Y-79752142D01*
X97462380Y-79847380D01*
X97414761Y-79990238D01*
X97319523Y-80085476D01*
X97224285Y-80133095D01*
X97033809Y-80180714D01*
X96890952Y-80180714D01*
X96700476Y-80133095D01*
X96605238Y-80085476D01*
X96510000Y-79990238D01*
X96462380Y-79847380D01*
X96462380Y-79752142D01*
X96510000Y-79609285D01*
X96557619Y-79561666D01*
X96462380Y-79228333D02*
X96462380Y-78609285D01*
X96843333Y-78942619D01*
X96843333Y-78799761D01*
X96890952Y-78704523D01*
X96938571Y-78656904D01*
X97033809Y-78609285D01*
X97271904Y-78609285D01*
X97367142Y-78656904D01*
X97414761Y-78704523D01*
X97462380Y-78799761D01*
X97462380Y-79085476D01*
X97414761Y-79180714D01*
X97367142Y-79228333D01*
G04 #@! TO.C,C4*
X124672142Y-52216666D02*
X124719761Y-52264285D01*
X124767380Y-52407142D01*
X124767380Y-52502380D01*
X124719761Y-52645238D01*
X124624523Y-52740476D01*
X124529285Y-52788095D01*
X124338809Y-52835714D01*
X124195952Y-52835714D01*
X124005476Y-52788095D01*
X123910238Y-52740476D01*
X123815000Y-52645238D01*
X123767380Y-52502380D01*
X123767380Y-52407142D01*
X123815000Y-52264285D01*
X123862619Y-52216666D01*
X124100714Y-51359523D02*
X124767380Y-51359523D01*
X123719761Y-51597619D02*
X124434047Y-51835714D01*
X124434047Y-51216666D01*
G04 #@! TO.C,C5*
X148167142Y-94166666D02*
X148214761Y-94214285D01*
X148262380Y-94357142D01*
X148262380Y-94452380D01*
X148214761Y-94595238D01*
X148119523Y-94690476D01*
X148024285Y-94738095D01*
X147833809Y-94785714D01*
X147690952Y-94785714D01*
X147500476Y-94738095D01*
X147405238Y-94690476D01*
X147310000Y-94595238D01*
X147262380Y-94452380D01*
X147262380Y-94357142D01*
X147310000Y-94214285D01*
X147357619Y-94166666D01*
X147262380Y-93261904D02*
X147262380Y-93738095D01*
X147738571Y-93785714D01*
X147690952Y-93738095D01*
X147643333Y-93642857D01*
X147643333Y-93404761D01*
X147690952Y-93309523D01*
X147738571Y-93261904D01*
X147833809Y-93214285D01*
X148071904Y-93214285D01*
X148167142Y-93261904D01*
X148214761Y-93309523D01*
X148262380Y-93404761D01*
X148262380Y-93642857D01*
X148214761Y-93738095D01*
X148167142Y-93785714D01*
G04 #@! TO.C,C6*
X97367142Y-52256666D02*
X97414761Y-52304285D01*
X97462380Y-52447142D01*
X97462380Y-52542380D01*
X97414761Y-52685238D01*
X97319523Y-52780476D01*
X97224285Y-52828095D01*
X97033809Y-52875714D01*
X96890952Y-52875714D01*
X96700476Y-52828095D01*
X96605238Y-52780476D01*
X96510000Y-52685238D01*
X96462380Y-52542380D01*
X96462380Y-52447142D01*
X96510000Y-52304285D01*
X96557619Y-52256666D01*
X96462380Y-51399523D02*
X96462380Y-51590000D01*
X96510000Y-51685238D01*
X96557619Y-51732857D01*
X96700476Y-51828095D01*
X96890952Y-51875714D01*
X97271904Y-51875714D01*
X97367142Y-51828095D01*
X97414761Y-51780476D01*
X97462380Y-51685238D01*
X97462380Y-51494761D01*
X97414761Y-51399523D01*
X97367142Y-51351904D01*
X97271904Y-51304285D01*
X97033809Y-51304285D01*
X96938571Y-51351904D01*
X96890952Y-51399523D01*
X96843333Y-51494761D01*
X96843333Y-51685238D01*
X96890952Y-51780476D01*
X96938571Y-51828095D01*
X97033809Y-51875714D01*
G04 #@! TO.C,C7*
X97367142Y-94166666D02*
X97414761Y-94214285D01*
X97462380Y-94357142D01*
X97462380Y-94452380D01*
X97414761Y-94595238D01*
X97319523Y-94690476D01*
X97224285Y-94738095D01*
X97033809Y-94785714D01*
X96890952Y-94785714D01*
X96700476Y-94738095D01*
X96605238Y-94690476D01*
X96510000Y-94595238D01*
X96462380Y-94452380D01*
X96462380Y-94357142D01*
X96510000Y-94214285D01*
X96557619Y-94166666D01*
X96462380Y-93833333D02*
X96462380Y-93166666D01*
X97462380Y-93595238D01*
G04 #@! TO.C,J2*
X151427380Y-86693333D02*
X152141666Y-86693333D01*
X152284523Y-86740952D01*
X152379761Y-86836190D01*
X152427380Y-86979047D01*
X152427380Y-87074285D01*
X151522619Y-86264761D02*
X151475000Y-86217142D01*
X151427380Y-86121904D01*
X151427380Y-85883809D01*
X151475000Y-85788571D01*
X151522619Y-85740952D01*
X151617857Y-85693333D01*
X151713095Y-85693333D01*
X151855952Y-85740952D01*
X152427380Y-86312380D01*
X152427380Y-85693333D01*
G04 #@! TO.C,J3*
X161587380Y-86693333D02*
X162301666Y-86693333D01*
X162444523Y-86740952D01*
X162539761Y-86836190D01*
X162587380Y-86979047D01*
X162587380Y-87074285D01*
X161587380Y-86312380D02*
X161587380Y-85693333D01*
X161968333Y-86026666D01*
X161968333Y-85883809D01*
X162015952Y-85788571D01*
X162063571Y-85740952D01*
X162158809Y-85693333D01*
X162396904Y-85693333D01*
X162492142Y-85740952D01*
X162539761Y-85788571D01*
X162587380Y-85883809D01*
X162587380Y-86169523D01*
X162539761Y-86264761D01*
X162492142Y-86312380D01*
G04 #@! TD*
M02*
