M48
; DRILL file {KiCad 5.1.5+dfsg1-2build2} date Mon 05 Apr 2021 07:08:58 PM CST
; FORMAT={-:-/ absolute / inch / decimal}
; #@! TF.CreationDate,2021-04-05T19:08:58+08:00
; #@! TF.GenerationSoftware,Kicad,Pcbnew,5.1.5+dfsg1-2build2
; #@! TF.FileFunction,Plated,1,2,PTH
FMAT,2
INCH
T1C0.0157
T2C0.0315
T3C0.0394
%
G90
G05
T1
X3.875Y-3.35
X3.875Y-3.4
X3.875Y-3.45
X3.875Y-3.5
X4.125Y-2.425
X4.175Y-2.475
X4.225Y-2.525
X4.275Y-4.5
X4.425Y-3.05
X4.425Y-4.5
X4.425Y-4.75
X4.4524Y-4.8774
X4.525Y-3.025
X4.525Y-4.5
X4.625Y-4.5
X4.725Y-4.5
X4.825Y-3.1
X4.85Y-2.325
X4.9Y-2.375
X4.925Y-3.1
X4.925Y-4.5
X4.95Y-2.414
X5.025Y-2.925
X5.025Y-4.425
X5.125Y-4.5
X5.225Y-4.5
X5.325Y-4.5
X5.425Y-4.5
X5.525Y-4.5
X5.55Y-4.575
X5.55Y-4.675
X5.55Y-4.775
X5.775Y-2.475
X6.05Y-4.075
X6.05Y-4.15
X6.1524Y-4.8024
X6.175Y-4.6
X6.225Y-4.45
X6.25Y-4.675
X6.375Y-4.45
X6.4Y-2.15
X6.425Y-4.45
X6.525Y-4.45
X6.625Y-4.45
X6.675Y-4.125
X6.725Y-4.45
X6.825Y-4.05
X6.925Y-4.45
X7.125Y-4.45
X7.225Y-4.45
X7.2524Y-4.8774
X7.325Y-4.45
X7.425Y-4.45
T2
X6.3Y-1.975
X6.3Y-2.275
X3.9Y-2.275
X3.9Y-2.575
X3.9Y-2.675
X3.9Y-2.975
X5.9Y-3.6516
X5.9Y-3.75
X6.3Y-2.375
X6.3Y-2.675
X3.9Y-3.0766
X3.9Y-3.175
X4.075Y-2.0
X4.075Y-2.3
X4.175Y-2.0
X4.175Y-2.3
X4.275Y-2.0
X4.275Y-2.3
X4.375Y-2.0
X4.375Y-2.3
X4.475Y-2.0
X4.475Y-2.3
X4.575Y-2.0
X4.575Y-2.3
X4.675Y-2.0
X4.675Y-2.3
X3.9Y-2.0016
X3.9Y-2.1
X6.075Y-3.65
X6.075Y-4.25
X6.175Y-3.65
X6.175Y-4.25
X6.275Y-3.65
X6.275Y-4.25
X6.375Y-3.65
X6.375Y-4.25
X6.475Y-3.65
X6.475Y-4.25
X6.575Y-3.65
X6.575Y-4.25
X6.675Y-3.65
X6.675Y-4.25
X6.775Y-3.65
X6.775Y-4.25
X6.875Y-3.65
X6.875Y-4.25
X6.975Y-3.65
X6.975Y-4.25
X7.075Y-3.65
X7.075Y-4.25
X7.175Y-3.65
X7.175Y-4.25
X7.275Y-3.65
X7.275Y-4.25
X7.375Y-3.65
X7.375Y-4.25
X7.475Y-3.65
X7.475Y-4.25
X7.575Y-3.65
X7.575Y-4.25
X6.9Y-2.8516
X6.9Y-2.95
X6.075Y-2.85
X6.075Y-3.15
X6.175Y-2.85
X6.175Y-3.15
X6.275Y-2.85
X6.275Y-3.15
X6.375Y-2.85
X6.375Y-3.15
X6.475Y-2.85
X6.475Y-3.15
X6.575Y-2.85
X6.575Y-3.15
X6.675Y-2.85
X6.675Y-3.15
X5.9Y-2.975
X5.9Y-3.0734
X5.15Y-2.0
X5.15Y-2.3
X5.25Y-2.0
X5.25Y-2.3
X5.35Y-2.0
X5.35Y-2.3
X5.45Y-2.0
X5.45Y-2.3
X5.55Y-2.0
X5.55Y-2.3
X5.65Y-2.0
X5.65Y-2.3
X5.75Y-2.0
X5.75Y-2.3
X5.85Y-2.0
X5.85Y-2.3
X5.95Y-2.0
X5.95Y-2.3
X6.05Y-2.0
X6.05Y-2.3
X3.9Y-3.6516
X3.9Y-3.75
X7.075Y-2.85
X7.075Y-3.15
X7.175Y-2.85
X7.175Y-3.15
X7.275Y-2.85
X7.275Y-3.15
X7.375Y-2.85
X7.375Y-3.15
X7.475Y-2.85
X7.475Y-3.15
X7.575Y-2.85
X7.575Y-3.15
X7.675Y-2.85
X7.675Y-3.15
X4.075Y-3.65
X4.075Y-4.25
X4.175Y-3.65
X4.175Y-4.25
X4.275Y-3.65
X4.275Y-4.25
X4.375Y-3.65
X4.375Y-4.25
X4.475Y-3.65
X4.475Y-4.25
X4.575Y-3.65
X4.575Y-4.25
X4.675Y-3.65
X4.675Y-4.25
X4.775Y-3.65
X4.775Y-4.25
X4.875Y-3.65
X4.875Y-4.25
X4.975Y-3.65
X4.975Y-4.25
X5.075Y-3.65
X5.075Y-4.25
X5.175Y-3.65
X5.175Y-4.25
X5.275Y-3.65
X5.275Y-4.25
X5.375Y-3.65
X5.375Y-4.25
X5.475Y-3.65
X5.475Y-4.25
X5.575Y-3.65
X5.575Y-4.25
X4.975Y-2.0
X4.975Y-2.0984
X4.075Y-2.675
X4.075Y-3.275
X4.175Y-2.675
X4.175Y-3.275
X4.275Y-2.675
X4.275Y-3.275
X4.375Y-2.675
X4.375Y-3.275
X4.475Y-2.675
X4.475Y-3.275
X4.575Y-2.675
X4.575Y-3.275
X4.675Y-2.675
X4.675Y-3.275
X4.775Y-2.675
X4.775Y-3.275
X4.875Y-2.675
X4.875Y-3.275
X4.975Y-2.675
X4.975Y-3.275
X5.075Y-2.675
X5.075Y-3.275
X5.175Y-2.675
X5.175Y-3.275
X5.275Y-2.675
X5.275Y-3.275
X5.375Y-2.675
X5.375Y-3.275
X5.475Y-2.675
X5.475Y-3.275
X5.575Y-2.675
X5.575Y-3.275
T3
X6.475Y-3.4
X6.575Y-3.4
X6.675Y-3.4
X6.075Y-3.4
X6.175Y-3.4
X6.275Y-3.4
T0
M30
