G04 #@! TF.GenerationSoftware,KiCad,Pcbnew,5.1.5+dfsg1-2build2*
G04 #@! TF.CreationDate,2021-04-05T19:08:48+08:00*
G04 #@! TF.ProjectId,famicart_rom,66616d69-6361-4727-945f-726f6d2e6b69,rev?*
G04 #@! TF.SameCoordinates,Original*
G04 #@! TF.FileFunction,Copper,L1,Top*
G04 #@! TF.FilePolarity,Positive*
%FSLAX46Y46*%
G04 Gerber Fmt 4.6, Leading zero omitted, Abs format (unit mm)*
G04 Created by KiCad (PCBNEW 5.1.5+dfsg1-2build2) date 2021-04-05 19:08:48*
%MOMM*%
%LPD*%
G04 APERTURE LIST*
G04 #@! TA.AperFunction,ComponentPad*
%ADD10R,1.600000X1.600000*%
G04 #@! TD*
G04 #@! TA.AperFunction,ComponentPad*
%ADD11O,1.600000X1.600000*%
G04 #@! TD*
G04 #@! TA.AperFunction,Conductor*
%ADD12R,1.540000X10.000000*%
G04 #@! TD*
G04 #@! TA.AperFunction,SMDPad,CuDef*
%ADD13R,2.600000X3.600000*%
G04 #@! TD*
G04 #@! TA.AperFunction,ComponentPad*
%ADD14C,1.600000*%
G04 #@! TD*
G04 #@! TA.AperFunction,ComponentPad*
%ADD15R,1.700000X1.700000*%
G04 #@! TD*
G04 #@! TA.AperFunction,ComponentPad*
%ADD16O,1.700000X1.700000*%
G04 #@! TD*
G04 #@! TA.AperFunction,ViaPad*
%ADD17C,0.800000*%
G04 #@! TD*
G04 #@! TA.AperFunction,Conductor*
%ADD18C,0.250000*%
G04 #@! TD*
G04 #@! TA.AperFunction,Conductor*
%ADD19C,0.254000*%
G04 #@! TD*
G04 APERTURE END LIST*
D10*
G04 #@! TO.P,U7,1*
G04 #@! TO.N,GND*
X130810000Y-58420000D03*
D11*
G04 #@! TO.P,U7,11*
G04 #@! TO.N,/MAP_LE*
X153670000Y-50800000D03*
G04 #@! TO.P,U7,2*
G04 #@! TO.N,/CPU_D7*
X133350000Y-58420000D03*
G04 #@! TO.P,U7,12*
G04 #@! TO.N,/MAP_D0*
X151130000Y-50800000D03*
G04 #@! TO.P,U7,3*
G04 #@! TO.N,/CPU_D6*
X135890000Y-58420000D03*
G04 #@! TO.P,U7,13*
G04 #@! TO.N,/MAP_D1*
X148590000Y-50800000D03*
G04 #@! TO.P,U7,4*
G04 #@! TO.N,/CPU_D5*
X138430000Y-58420000D03*
G04 #@! TO.P,U7,14*
G04 #@! TO.N,/MAP_D2*
X146050000Y-50800000D03*
G04 #@! TO.P,U7,5*
G04 #@! TO.N,/CPU_D4*
X140970000Y-58420000D03*
G04 #@! TO.P,U7,15*
G04 #@! TO.N,/MAP_D3*
X143510000Y-50800000D03*
G04 #@! TO.P,U7,6*
G04 #@! TO.N,/CPU_D3*
X143510000Y-58420000D03*
G04 #@! TO.P,U7,16*
G04 #@! TO.N,/MAP_D4*
X140970000Y-50800000D03*
G04 #@! TO.P,U7,7*
G04 #@! TO.N,/CPU_D2*
X146050000Y-58420000D03*
G04 #@! TO.P,U7,17*
G04 #@! TO.N,/MAP_D5*
X138430000Y-50800000D03*
G04 #@! TO.P,U7,8*
G04 #@! TO.N,/CPU_D1*
X148590000Y-58420000D03*
G04 #@! TO.P,U7,18*
G04 #@! TO.N,/MAP_D6*
X135890000Y-50800000D03*
G04 #@! TO.P,U7,9*
G04 #@! TO.N,/CPU_D0*
X151130000Y-58420000D03*
G04 #@! TO.P,U7,19*
G04 #@! TO.N,/MAP_D7*
X133350000Y-50800000D03*
G04 #@! TO.P,U7,10*
G04 #@! TO.N,GND*
X153670000Y-58420000D03*
G04 #@! TO.P,U7,20*
G04 #@! TO.N,VCC*
X130810000Y-50800000D03*
G04 #@! TD*
D10*
G04 #@! TO.P,U4,1*
G04 #@! TO.N,Net-(U4-Pad1)*
X103505000Y-83185000D03*
D11*
G04 #@! TO.P,U4,17*
G04 #@! TO.N,/CPU_D3*
X141605000Y-67945000D03*
G04 #@! TO.P,U4,2*
G04 #@! TO.N,/MAP_D6*
X106045000Y-83185000D03*
G04 #@! TO.P,U4,18*
G04 #@! TO.N,/CPU_D4*
X139065000Y-67945000D03*
G04 #@! TO.P,U4,3*
G04 #@! TO.N,/MAP_D4*
X108585000Y-83185000D03*
G04 #@! TO.P,U4,19*
G04 #@! TO.N,/CPU_D5*
X136525000Y-67945000D03*
G04 #@! TO.P,U4,4*
G04 #@! TO.N,/CPU_A8*
X111125000Y-83185000D03*
G04 #@! TO.P,U4,20*
G04 #@! TO.N,/CPU_D6*
X133985000Y-67945000D03*
G04 #@! TO.P,U4,5*
G04 #@! TO.N,/CPU_A7*
X113665000Y-83185000D03*
G04 #@! TO.P,U4,21*
G04 #@! TO.N,/CPU_D7*
X131445000Y-67945000D03*
G04 #@! TO.P,U4,6*
G04 #@! TO.N,/CPU_A6*
X116205000Y-83185000D03*
G04 #@! TO.P,U4,22*
G04 #@! TO.N,/WRK_nCE*
X128905000Y-67945000D03*
G04 #@! TO.P,U4,7*
G04 #@! TO.N,/CPU_A5*
X118745000Y-83185000D03*
G04 #@! TO.P,U4,23*
G04 #@! TO.N,GND*
X126365000Y-67945000D03*
G04 #@! TO.P,U4,8*
G04 #@! TO.N,/CPU_A4*
X121285000Y-83185000D03*
G04 #@! TO.P,U4,24*
G04 #@! TO.N,/PRG_nOE*
X123825000Y-67945000D03*
G04 #@! TO.P,U4,9*
G04 #@! TO.N,/CPU_A3*
X123825000Y-83185000D03*
G04 #@! TO.P,U4,25*
G04 #@! TO.N,/CPU_A12*
X121285000Y-67945000D03*
G04 #@! TO.P,U4,10*
G04 #@! TO.N,/CPU_A2*
X126365000Y-83185000D03*
G04 #@! TO.P,U4,26*
G04 #@! TO.N,/CPU_A11*
X118745000Y-67945000D03*
G04 #@! TO.P,U4,11*
G04 #@! TO.N,/CPU_A1*
X128905000Y-83185000D03*
G04 #@! TO.P,U4,27*
G04 #@! TO.N,/CPU_A10*
X116205000Y-67945000D03*
G04 #@! TO.P,U4,12*
G04 #@! TO.N,/CPU_A0*
X131445000Y-83185000D03*
G04 #@! TO.P,U4,28*
G04 #@! TO.N,/CPU_A9*
X113665000Y-67945000D03*
G04 #@! TO.P,U4,13*
G04 #@! TO.N,/CPU_D0*
X133985000Y-83185000D03*
G04 #@! TO.P,U4,29*
G04 #@! TO.N,/PRG_nWE*
X111125000Y-67945000D03*
G04 #@! TO.P,U4,14*
G04 #@! TO.N,/CPU_D1*
X136525000Y-83185000D03*
G04 #@! TO.P,U4,30*
G04 #@! TO.N,/nROMSEL*
X108585000Y-67945000D03*
G04 #@! TO.P,U4,15*
G04 #@! TO.N,/CPU_D2*
X139065000Y-83185000D03*
G04 #@! TO.P,U4,31*
G04 #@! TO.N,/MAP_D5*
X106045000Y-67945000D03*
G04 #@! TO.P,U4,16*
G04 #@! TO.N,GND*
X141605000Y-83185000D03*
G04 #@! TO.P,U4,32*
G04 #@! TO.N,/VBAT*
X103505000Y-67945000D03*
G04 #@! TD*
D10*
G04 #@! TO.P,U3,1*
G04 #@! TO.N,Net-(U3-Pad1)*
X154305000Y-107950000D03*
D11*
G04 #@! TO.P,U3,17*
G04 #@! TO.N,/PPU_D3*
X192405000Y-92710000D03*
G04 #@! TO.P,U3,2*
G04 #@! TO.N,GND*
X156845000Y-107950000D03*
G04 #@! TO.P,U3,18*
G04 #@! TO.N,/PPU_D4*
X189865000Y-92710000D03*
G04 #@! TO.P,U3,3*
G04 #@! TO.N,GND*
X159385000Y-107950000D03*
G04 #@! TO.P,U3,19*
G04 #@! TO.N,/PPU_D5*
X187325000Y-92710000D03*
G04 #@! TO.P,U3,4*
G04 #@! TO.N,/PPU_A8*
X161925000Y-107950000D03*
G04 #@! TO.P,U3,20*
G04 #@! TO.N,/PPU_D6*
X184785000Y-92710000D03*
G04 #@! TO.P,U3,5*
G04 #@! TO.N,/PPU_A7*
X164465000Y-107950000D03*
G04 #@! TO.P,U3,21*
G04 #@! TO.N,/PPU_D7*
X182245000Y-92710000D03*
G04 #@! TO.P,U3,6*
G04 #@! TO.N,/PPU_A6*
X167005000Y-107950000D03*
G04 #@! TO.P,U3,22*
G04 #@! TO.N,GND*
X179705000Y-92710000D03*
G04 #@! TO.P,U3,7*
G04 #@! TO.N,/PPU_A5*
X169545000Y-107950000D03*
G04 #@! TO.P,U3,23*
G04 #@! TO.N,/PPU_A13*
X177165000Y-92710000D03*
G04 #@! TO.P,U3,8*
G04 #@! TO.N,/PPU_A4*
X172085000Y-107950000D03*
G04 #@! TO.P,U3,24*
G04 #@! TO.N,/PPU_nRD*
X174625000Y-92710000D03*
G04 #@! TO.P,U3,9*
G04 #@! TO.N,/PPU_A3*
X174625000Y-107950000D03*
G04 #@! TO.P,U3,25*
G04 #@! TO.N,/PPU_A12*
X172085000Y-92710000D03*
G04 #@! TO.P,U3,10*
G04 #@! TO.N,/PPU_A2*
X177165000Y-107950000D03*
G04 #@! TO.P,U3,26*
G04 #@! TO.N,/PPU_A11*
X169545000Y-92710000D03*
G04 #@! TO.P,U3,11*
G04 #@! TO.N,/PPU_A1*
X179705000Y-107950000D03*
G04 #@! TO.P,U3,27*
G04 #@! TO.N,/PPU_A10*
X167005000Y-92710000D03*
G04 #@! TO.P,U3,12*
G04 #@! TO.N,/PPU_A0*
X182245000Y-107950000D03*
G04 #@! TO.P,U3,28*
G04 #@! TO.N,/PPU_A9*
X164465000Y-92710000D03*
G04 #@! TO.P,U3,13*
G04 #@! TO.N,/PPU_D0*
X184785000Y-107950000D03*
G04 #@! TO.P,U3,29*
G04 #@! TO.N,/PPU_nWR*
X161925000Y-92710000D03*
G04 #@! TO.P,U3,14*
G04 #@! TO.N,/PPU_D1*
X187325000Y-107950000D03*
G04 #@! TO.P,U3,30*
G04 #@! TO.N,/CIRAM_nCE*
X159385000Y-92710000D03*
G04 #@! TO.P,U3,15*
G04 #@! TO.N,/PPU_D2*
X189865000Y-107950000D03*
G04 #@! TO.P,U3,31*
G04 #@! TO.N,GND*
X156845000Y-92710000D03*
G04 #@! TO.P,U3,16*
X192405000Y-107950000D03*
G04 #@! TO.P,U3,32*
G04 #@! TO.N,VCC*
X154305000Y-92710000D03*
G04 #@! TD*
G04 #@! TO.P,U5,32*
G04 #@! TO.N,VCC*
X103505000Y-92710000D03*
G04 #@! TO.P,U5,16*
G04 #@! TO.N,GND*
X141605000Y-107950000D03*
G04 #@! TO.P,U5,31*
G04 #@! TO.N,VCC*
X106045000Y-92710000D03*
G04 #@! TO.P,U5,15*
G04 #@! TO.N,/CPU_D2*
X139065000Y-107950000D03*
G04 #@! TO.P,U5,30*
G04 #@! TO.N,/MAP_D2*
X108585000Y-92710000D03*
G04 #@! TO.P,U5,14*
G04 #@! TO.N,/CPU_D1*
X136525000Y-107950000D03*
G04 #@! TO.P,U5,29*
G04 #@! TO.N,/CPU_A9*
X111125000Y-92710000D03*
G04 #@! TO.P,U5,13*
G04 #@! TO.N,/CPU_D0*
X133985000Y-107950000D03*
G04 #@! TO.P,U5,28*
G04 #@! TO.N,/CPU_A10*
X113665000Y-92710000D03*
G04 #@! TO.P,U5,12*
G04 #@! TO.N,/CPU_A0*
X131445000Y-107950000D03*
G04 #@! TO.P,U5,27*
G04 #@! TO.N,/CPU_A11*
X116205000Y-92710000D03*
G04 #@! TO.P,U5,11*
G04 #@! TO.N,/CPU_A1*
X128905000Y-107950000D03*
G04 #@! TO.P,U5,26*
G04 #@! TO.N,/CPU_A12*
X118745000Y-92710000D03*
G04 #@! TO.P,U5,10*
G04 #@! TO.N,/CPU_A2*
X126365000Y-107950000D03*
G04 #@! TO.P,U5,25*
G04 #@! TO.N,/CPU_A13*
X121285000Y-92710000D03*
G04 #@! TO.P,U5,9*
G04 #@! TO.N,/CPU_A3*
X123825000Y-107950000D03*
G04 #@! TO.P,U5,24*
G04 #@! TO.N,/PRG_nOE*
X123825000Y-92710000D03*
G04 #@! TO.P,U5,8*
G04 #@! TO.N,/CPU_A4*
X121285000Y-107950000D03*
G04 #@! TO.P,U5,23*
G04 #@! TO.N,/CPU_A14*
X126365000Y-92710000D03*
G04 #@! TO.P,U5,7*
G04 #@! TO.N,/CPU_A5*
X118745000Y-107950000D03*
G04 #@! TO.P,U5,22*
G04 #@! TO.N,/nROMSEL*
X128905000Y-92710000D03*
G04 #@! TO.P,U5,6*
G04 #@! TO.N,/CPU_A6*
X116205000Y-107950000D03*
G04 #@! TO.P,U5,21*
G04 #@! TO.N,/CPU_D7*
X131445000Y-92710000D03*
G04 #@! TO.P,U5,5*
G04 #@! TO.N,/CPU_A7*
X113665000Y-107950000D03*
G04 #@! TO.P,U5,20*
G04 #@! TO.N,/CPU_D6*
X133985000Y-92710000D03*
G04 #@! TO.P,U5,4*
G04 #@! TO.N,/CPU_A8*
X111125000Y-107950000D03*
G04 #@! TO.P,U5,19*
G04 #@! TO.N,/CPU_D5*
X136525000Y-92710000D03*
G04 #@! TO.P,U5,3*
G04 #@! TO.N,/MAP_D3*
X108585000Y-107950000D03*
G04 #@! TO.P,U5,18*
G04 #@! TO.N,/CPU_D4*
X139065000Y-92710000D03*
G04 #@! TO.P,U5,2*
G04 #@! TO.N,/MAP_D1*
X106045000Y-107950000D03*
G04 #@! TO.P,U5,17*
G04 #@! TO.N,/CPU_D3*
X141605000Y-92710000D03*
D10*
G04 #@! TO.P,U5,1*
G04 #@! TO.N,/MAP_D0*
X103505000Y-107950000D03*
G04 #@! TD*
D12*
G04 #@! TO.N,GND*
G04 #@! TO.C,J1*
X110550001Y-134045001D03*
G04 #@! TO.N,/CPU_A11*
X113090001Y-134045001D03*
G04 #@! TO.N,/CPU_A10*
X115630001Y-134045001D03*
G04 #@! TO.N,/CPU_A9*
X118170001Y-134045001D03*
G04 #@! TO.N,/CPU_A8*
X120710001Y-134045001D03*
G04 #@! TO.N,/CPU_A7*
X123250001Y-134045001D03*
G04 #@! TO.N,/CPU_A6*
X125790001Y-134045001D03*
G04 #@! TO.N,/CPU_A5*
X128330001Y-134045001D03*
G04 #@! TO.N,/CPU_A4*
X130870001Y-134045001D03*
G04 #@! TO.N,/CPU_A3*
X133410001Y-134045001D03*
G04 #@! TO.N,/CPU_A2*
X135950001Y-134045001D03*
G04 #@! TO.N,/CPU_A1*
X138490001Y-134045001D03*
G04 #@! TO.N,/CPU_A0*
X141030001Y-134045001D03*
G04 #@! TO.N,/CPU_RnW*
X143570001Y-134045001D03*
G04 #@! TO.N,/nIRQ*
X146110001Y-134045001D03*
G04 #@! TO.N,GND*
X148650001Y-134045001D03*
G04 #@! TO.N,/PPU_nRD*
X151190001Y-134045001D03*
G04 #@! TO.N,/CIRAM_A10*
X153730001Y-134045001D03*
G04 #@! TO.N,/PPU_A6*
X156270001Y-134045001D03*
G04 #@! TO.N,/PPU_A5*
X158810001Y-134045001D03*
G04 #@! TO.N,/PPU_A4*
X161350001Y-134045001D03*
G04 #@! TO.N,/PPU_A3*
X163890001Y-134045001D03*
G04 #@! TO.N,/PPU_A2*
X166430001Y-134045001D03*
G04 #@! TO.N,/PPU_A1*
X168970001Y-134045001D03*
G04 #@! TO.N,/PPU_A0*
X171510001Y-134045001D03*
G04 #@! TO.N,/PPU_D0*
X174050001Y-134045001D03*
G04 #@! TO.N,/PPU_D1*
X176590001Y-134045001D03*
G04 #@! TO.N,/PPU_D2*
X179130001Y-134045001D03*
G04 #@! TO.N,/PPU_D3*
X181670001Y-134045001D03*
G04 #@! TO.N,VCC*
X184210001Y-134045001D03*
G04 #@! TD*
D10*
G04 #@! TO.P,U1,1*
G04 #@! TO.N,Net-(U1-Pad1)*
X103505000Y-58420000D03*
D11*
G04 #@! TO.P,U1,8*
G04 #@! TO.N,/PRG_nOE*
X118745000Y-50800000D03*
G04 #@! TO.P,U1,2*
G04 #@! TO.N,/M2*
X106045000Y-58420000D03*
G04 #@! TO.P,U1,9*
X116205000Y-50800000D03*
G04 #@! TO.P,U1,3*
G04 #@! TO.N,/PRG_nWE*
X108585000Y-58420000D03*
G04 #@! TO.P,U1,10*
G04 #@! TO.N,/CPU_RnW*
X113665000Y-50800000D03*
G04 #@! TO.P,U1,4*
G04 #@! TO.N,/CPU_A13*
X111125000Y-58420000D03*
G04 #@! TO.P,U1,11*
G04 #@! TO.N,Net-(U1-Pad1)*
X111125000Y-50800000D03*
G04 #@! TO.P,U1,5*
G04 #@! TO.N,/CPU_A14*
X113665000Y-58420000D03*
G04 #@! TO.P,U1,12*
G04 #@! TO.N,/CPU_RnW*
X108585000Y-50800000D03*
G04 #@! TO.P,U1,6*
G04 #@! TO.N,/WRK_nCE*
X116205000Y-58420000D03*
G04 #@! TO.P,U1,13*
G04 #@! TO.N,/CPU_RnW*
X106045000Y-50800000D03*
G04 #@! TO.P,U1,7*
G04 #@! TO.N,GND*
X118745000Y-58420000D03*
G04 #@! TO.P,U1,14*
G04 #@! TO.N,VCC*
X103505000Y-50800000D03*
G04 #@! TD*
G04 #@! TO.P,U2,14*
G04 #@! TO.N,VCC*
X179705000Y-72390000D03*
G04 #@! TO.P,U2,7*
G04 #@! TO.N,GND*
X194945000Y-80010000D03*
G04 #@! TO.P,U2,13*
X182245000Y-72390000D03*
G04 #@! TO.P,U2,6*
G04 #@! TO.N,Net-(U2-Pad6)*
X192405000Y-80010000D03*
G04 #@! TO.P,U2,12*
G04 #@! TO.N,GND*
X184785000Y-72390000D03*
G04 #@! TO.P,U2,5*
X189865000Y-80010000D03*
G04 #@! TO.P,U2,11*
G04 #@! TO.N,Net-(U2-Pad11)*
X187325000Y-72390000D03*
G04 #@! TO.P,U2,4*
G04 #@! TO.N,GND*
X187325000Y-80010000D03*
G04 #@! TO.P,U2,10*
X189865000Y-72390000D03*
G04 #@! TO.P,U2,3*
G04 #@! TO.N,/MAP_nD7*
X184785000Y-80010000D03*
G04 #@! TO.P,U2,9*
G04 #@! TO.N,GND*
X192405000Y-72390000D03*
G04 #@! TO.P,U2,2*
G04 #@! TO.N,/MAP_D7*
X182245000Y-80010000D03*
G04 #@! TO.P,U2,8*
G04 #@! TO.N,Net-(U2-Pad8)*
X194945000Y-72390000D03*
D10*
G04 #@! TO.P,U2,1*
G04 #@! TO.N,/MAP_D7*
X179705000Y-80010000D03*
G04 #@! TD*
G04 #@! TO.P,U6,1*
G04 #@! TO.N,/A10_SEL*
X154305000Y-80010000D03*
D11*
G04 #@! TO.P,U6,8*
G04 #@! TO.N,/A11_SEL*
X169545000Y-72390000D03*
G04 #@! TO.P,U6,2*
G04 #@! TO.N,/PPU_A10*
X156845000Y-80010000D03*
G04 #@! TO.P,U6,9*
G04 #@! TO.N,/A10_SEL*
X167005000Y-72390000D03*
G04 #@! TO.P,U6,3*
G04 #@! TO.N,/MAP_D7*
X159385000Y-80010000D03*
G04 #@! TO.P,U6,10*
G04 #@! TO.N,/MAP_MIR*
X164465000Y-72390000D03*
G04 #@! TO.P,U6,4*
G04 #@! TO.N,/A11_SEL*
X161925000Y-80010000D03*
G04 #@! TO.P,U6,11*
G04 #@! TO.N,/nROMSEL*
X161925000Y-72390000D03*
G04 #@! TO.P,U6,5*
G04 #@! TO.N,/PPU_A11*
X164465000Y-80010000D03*
G04 #@! TO.P,U6,12*
G04 #@! TO.N,/PRG_nWE*
X159385000Y-72390000D03*
G04 #@! TO.P,U6,6*
G04 #@! TO.N,/MAP_nD7*
X167005000Y-80010000D03*
G04 #@! TO.P,U6,13*
G04 #@! TO.N,/MAP_LE*
X156845000Y-72390000D03*
G04 #@! TO.P,U6,7*
G04 #@! TO.N,GND*
X169545000Y-80010000D03*
G04 #@! TO.P,U6,14*
G04 #@! TO.N,VCC*
X154305000Y-72390000D03*
G04 #@! TD*
D13*
G04 #@! TO.P,BT1,2*
G04 #@! TO.N,GND*
X194990000Y-57785000D03*
G04 #@! TO.P,BT1,1*
G04 #@! TO.N,Net-(BT1-Pad1)*
X165690000Y-57785000D03*
G04 #@! TD*
D11*
G04 #@! TO.P,D1,2*
G04 #@! TO.N,VCC*
X99060000Y-75565000D03*
D10*
G04 #@! TO.P,D1,1*
G04 #@! TO.N,/VBAT*
X99060000Y-67945000D03*
G04 #@! TD*
G04 #@! TO.P,D2,1*
G04 #@! TO.N,/VBAT*
X160020000Y-67945000D03*
D11*
G04 #@! TO.P,D2,2*
G04 #@! TO.N,Net-(D2-Pad2)*
X160020000Y-60325000D03*
G04 #@! TD*
D14*
G04 #@! TO.P,R1,1*
G04 #@! TO.N,/nROMSEL*
X99060000Y-65405000D03*
D11*
G04 #@! TO.P,R1,2*
G04 #@! TO.N,GND*
X99060000Y-57785000D03*
G04 #@! TD*
G04 #@! TO.P,R2,2*
G04 #@! TO.N,Net-(BT1-Pad1)*
X160020000Y-50165000D03*
D14*
G04 #@! TO.P,R2,1*
G04 #@! TO.N,Net-(D2-Pad2)*
X160020000Y-57785000D03*
G04 #@! TD*
G04 #@! TO.P,C1,1*
G04 #@! TO.N,VCC*
X149860000Y-75565000D03*
G04 #@! TO.P,C1,2*
G04 #@! TO.N,GND*
X149860000Y-78065000D03*
G04 #@! TD*
G04 #@! TO.P,C2,2*
G04 #@! TO.N,VCC*
X175260000Y-72430000D03*
G04 #@! TO.P,C2,1*
G04 #@! TO.N,GND*
X175260000Y-74930000D03*
G04 #@! TD*
G04 #@! TO.P,C3,2*
G04 #@! TO.N,VCC*
X99060000Y-78145000D03*
G04 #@! TO.P,C3,1*
G04 #@! TO.N,GND*
X99060000Y-80645000D03*
G04 #@! TD*
G04 #@! TO.P,C4,1*
G04 #@! TO.N,GND*
X126365000Y-53300000D03*
G04 #@! TO.P,C4,2*
G04 #@! TO.N,VCC*
X126365000Y-50800000D03*
G04 #@! TD*
G04 #@! TO.P,C5,2*
G04 #@! TO.N,VCC*
X149860000Y-92750000D03*
G04 #@! TO.P,C5,1*
G04 #@! TO.N,GND*
X149860000Y-95250000D03*
G04 #@! TD*
G04 #@! TO.P,C6,1*
G04 #@! TO.N,GND*
X99060000Y-53340000D03*
G04 #@! TO.P,C6,2*
G04 #@! TO.N,VCC*
X99060000Y-50840000D03*
G04 #@! TD*
G04 #@! TO.P,C7,1*
G04 #@! TO.N,GND*
X99060000Y-95250000D03*
G04 #@! TO.P,C7,2*
G04 #@! TO.N,VCC*
X99060000Y-92750000D03*
G04 #@! TD*
D15*
G04 #@! TO.P,J2,1*
G04 #@! TO.N,/PPU_nA13*
X154305000Y-86360000D03*
D16*
G04 #@! TO.P,J2,2*
G04 #@! TO.N,/CIRAM_nCE*
X156845000Y-86360000D03*
G04 #@! TO.P,J2,3*
G04 #@! TO.N,VCC*
X159385000Y-86360000D03*
G04 #@! TD*
G04 #@! TO.P,J3,3*
G04 #@! TO.N,/MAP_MIR*
X169545000Y-86360000D03*
G04 #@! TO.P,J3,2*
G04 #@! TO.N,/CIRAM_A10*
X167005000Y-86360000D03*
D15*
G04 #@! TO.P,J3,1*
G04 #@! TO.N,/MAP_D7*
X164465000Y-86360000D03*
G04 #@! TD*
D17*
G04 #@! TO.N,/CPU_A11*
X114935000Y-114300000D03*
X113090001Y-123885001D03*
G04 #@! TO.N,/CPU_A10*
X112395000Y-114300000D03*
X112395000Y-120650000D03*
G04 #@! TO.N,/CPU_RnW*
X146685000Y-62865000D03*
G04 #@! TO.N,/PPU_nRD*
X153670000Y-103505000D03*
X173355000Y-102870000D03*
G04 #@! TO.N,/CIRAM_A10*
X153670000Y-105410000D03*
X169545000Y-104775000D03*
G04 #@! TO.N,VCC*
X184210001Y-123885001D03*
G04 #@! TO.N,/M2*
X108585000Y-114300000D03*
G04 #@! TO.N,/CPU_A12*
X117475000Y-114300000D03*
G04 #@! TO.N,/CPU_A13*
X120015000Y-114300000D03*
X112395000Y-77470000D03*
X122555000Y-78740000D03*
G04 #@! TO.N,/CPU_A14*
X125095000Y-114300000D03*
X114935000Y-76835000D03*
X125095000Y-78740000D03*
G04 #@! TO.N,/CPU_D7*
X130175000Y-114300000D03*
G04 #@! TO.N,/CPU_D6*
X132715000Y-114300000D03*
G04 #@! TO.N,/CPU_D5*
X135255000Y-114300000D03*
G04 #@! TO.N,/CPU_D4*
X137795000Y-114300000D03*
G04 #@! TO.N,/CPU_D3*
X140335000Y-114300000D03*
G04 #@! TO.N,/CPU_D2*
X140970000Y-116205000D03*
G04 #@! TO.N,/CPU_D1*
X140970000Y-118745000D03*
G04 #@! TO.N,/CPU_D0*
X140970000Y-121285000D03*
G04 #@! TO.N,/nROMSEL*
X127635000Y-112395000D03*
X127635000Y-74295000D03*
G04 #@! TO.N,/PPU_nWR*
X156845000Y-116840000D03*
G04 #@! TO.N,/CIRAM_nCE*
X158115000Y-113030000D03*
G04 #@! TO.N,/PPU_A7*
X158750000Y-118745000D03*
G04 #@! TO.N,/PPU_A8*
X161925000Y-113030000D03*
G04 #@! TO.N,/PPU_A9*
X163195000Y-113030000D03*
G04 #@! TO.N,/PPU_A10*
X165735000Y-113030000D03*
G04 #@! TO.N,/PPU_A11*
X168275000Y-113030000D03*
G04 #@! TO.N,/PPU_A12*
X170815000Y-113030000D03*
G04 #@! TO.N,/PPU_A13*
X175895000Y-113030000D03*
G04 #@! TO.N,/PPU_D7*
X180975000Y-113030000D03*
G04 #@! TO.N,/PPU_D6*
X183515000Y-113030000D03*
G04 #@! TO.N,/PPU_D5*
X186055000Y-113030000D03*
G04 #@! TO.N,/PPU_D4*
X188595000Y-113030000D03*
G04 #@! TO.N,/MAP_D7*
X162560000Y-54610000D03*
G04 #@! TO.N,/MAP_D0*
X98425000Y-88900000D03*
G04 #@! TO.N,/MAP_D1*
X98425000Y-87630000D03*
G04 #@! TO.N,/MAP_D2*
X98425000Y-86360000D03*
G04 #@! TO.N,/MAP_D3*
X98425000Y-85090000D03*
G04 #@! TO.N,/MAP_D4*
X107315000Y-64135000D03*
X125730000Y-61314998D03*
G04 #@! TO.N,/MAP_D5*
X106045000Y-62865000D03*
X124460000Y-60325000D03*
G04 #@! TO.N,/MAP_D6*
X104775000Y-61595000D03*
X123190000Y-59055000D03*
G04 #@! TO.N,/PPU_nA13*
X156270001Y-121980001D03*
G04 #@! TD*
D18*
G04 #@! TO.N,GND*
X156845000Y-107950000D02*
X156845000Y-92710000D01*
X148650001Y-134045001D02*
X148650001Y-126425001D01*
X110550001Y-134045001D02*
X110550001Y-126425001D01*
G04 #@! TO.N,/CPU_A11*
X116205000Y-92710000D02*
X116205000Y-92075000D01*
X116205000Y-92075000D02*
X114935000Y-90805000D01*
X114935000Y-90805000D02*
X114935000Y-82550000D01*
X114935000Y-82550000D02*
X118745000Y-78740000D01*
X118745000Y-78740000D02*
X118745000Y-67945000D01*
X113090001Y-134045001D02*
X113090001Y-123885001D01*
X114935000Y-114300000D02*
X114935000Y-94615000D01*
X116205000Y-93345000D02*
X116205000Y-92710000D01*
X114935000Y-94615000D02*
X116205000Y-93345000D01*
G04 #@! TO.N,/CPU_A10*
X113665000Y-92710000D02*
X113665000Y-92075000D01*
X113665000Y-92075000D02*
X112395000Y-90805000D01*
X112395000Y-90805000D02*
X112395000Y-82550000D01*
X112395000Y-82550000D02*
X116205000Y-78740000D01*
X116205000Y-78740000D02*
X116205000Y-67945000D01*
X115630001Y-134045001D02*
X115630001Y-123885001D01*
X115630001Y-123885001D02*
X112395000Y-120650000D01*
X112395000Y-114300000D02*
X112395000Y-94615000D01*
X113665000Y-93345000D02*
X113665000Y-92710000D01*
X112395000Y-94615000D02*
X113665000Y-93345000D01*
G04 #@! TO.N,/CPU_A9*
X111125000Y-92710000D02*
X111125000Y-92075000D01*
X111125000Y-92075000D02*
X109855000Y-90805000D01*
X109855000Y-90805000D02*
X109855000Y-82550000D01*
X109855000Y-82550000D02*
X113665000Y-78740000D01*
X113665000Y-78740000D02*
X113665000Y-67945000D01*
X111125000Y-93345000D02*
X111125000Y-92710000D01*
X118170001Y-134045001D02*
X118170001Y-123885001D01*
X118170001Y-123885001D02*
X109855000Y-115570000D01*
X109855000Y-115570000D02*
X109855000Y-94615000D01*
X109855000Y-94615000D02*
X111125000Y-93345000D01*
G04 #@! TO.N,/CPU_A8*
X120710001Y-134045001D02*
X120710001Y-123885001D01*
X120710001Y-123885001D02*
X111125000Y-114300000D01*
X111125000Y-114300000D02*
X111125000Y-107950000D01*
X111125000Y-107950000D02*
X111125000Y-94615000D01*
X111125000Y-94615000D02*
X112395000Y-93345000D01*
X112395000Y-93345000D02*
X112395000Y-92075000D01*
X112395000Y-92075000D02*
X111125000Y-90805000D01*
X111125000Y-90805000D02*
X111125000Y-83185000D01*
G04 #@! TO.N,/CPU_A7*
X123250001Y-134045001D02*
X123250001Y-123885001D01*
X113665000Y-114300000D02*
X113665000Y-107950000D01*
X123250001Y-123885001D02*
X113665000Y-114300000D01*
X113665000Y-107950000D02*
X113665000Y-94615000D01*
X113665000Y-94615000D02*
X114935000Y-93345000D01*
X114935000Y-93345000D02*
X114935000Y-92075000D01*
X114935000Y-92075000D02*
X113665000Y-90805000D01*
X113665000Y-90805000D02*
X113665000Y-83185000D01*
G04 #@! TO.N,/CPU_A6*
X125790001Y-134045001D02*
X125790001Y-123885001D01*
X116205000Y-114300000D02*
X116205000Y-107950000D01*
X125790001Y-123885001D02*
X116205000Y-114300000D01*
X116205000Y-107950000D02*
X116205000Y-94615000D01*
X116205000Y-94615000D02*
X117475000Y-93345000D01*
X117475000Y-93345000D02*
X117475000Y-92075000D01*
X117475000Y-92075000D02*
X116205000Y-90805000D01*
X116205000Y-90805000D02*
X116205000Y-83185000D01*
G04 #@! TO.N,/CPU_A5*
X128330001Y-134045001D02*
X128330001Y-123885001D01*
X118745000Y-114300000D02*
X118745000Y-107950000D01*
X128330001Y-123885001D02*
X118745000Y-114300000D01*
X118745000Y-107950000D02*
X118745000Y-94615000D01*
X118745000Y-94615000D02*
X120015000Y-93345000D01*
X120015000Y-93345000D02*
X120015000Y-92075000D01*
X120015000Y-92075000D02*
X118745000Y-90805000D01*
X118745000Y-90805000D02*
X118745000Y-83185000D01*
G04 #@! TO.N,/CPU_A4*
X130870001Y-134045001D02*
X130870001Y-123885001D01*
X121285000Y-114300000D02*
X121285000Y-107950000D01*
X130870001Y-123885001D02*
X121285000Y-114300000D01*
X121285000Y-107950000D02*
X121285000Y-94615000D01*
X121285000Y-94615000D02*
X122555000Y-93345000D01*
X122555000Y-93345000D02*
X122555000Y-92075000D01*
X122555000Y-92075000D02*
X121285000Y-90805000D01*
X121285000Y-90805000D02*
X121285000Y-83185000D01*
G04 #@! TO.N,/CPU_A3*
X133410001Y-134045001D02*
X133410001Y-123885001D01*
X123825000Y-114300000D02*
X123825000Y-107950000D01*
X133410001Y-123885001D02*
X123825000Y-114300000D01*
X123825000Y-107950000D02*
X123825000Y-94615000D01*
X123825000Y-94615000D02*
X125095000Y-93345000D01*
X125095000Y-93345000D02*
X125095000Y-92075000D01*
X125095000Y-92075000D02*
X123825000Y-90805000D01*
X123825000Y-90805000D02*
X123825000Y-83185000D01*
G04 #@! TO.N,/CPU_A2*
X135950001Y-134045001D02*
X135950001Y-123885001D01*
X126365000Y-114300000D02*
X126365000Y-107950000D01*
X135950001Y-123885001D02*
X126365000Y-114300000D01*
X126365000Y-107950000D02*
X126365000Y-94615000D01*
X126365000Y-94615000D02*
X127635000Y-93345000D01*
X127635000Y-93345000D02*
X127635000Y-92075000D01*
X127635000Y-92075000D02*
X126365000Y-90805000D01*
X126365000Y-90805000D02*
X126365000Y-83185000D01*
G04 #@! TO.N,/CPU_A1*
X138490001Y-134045001D02*
X138490001Y-123885001D01*
X128905000Y-114300000D02*
X128905000Y-107950000D01*
X138490001Y-123885001D02*
X128905000Y-114300000D01*
X128905000Y-107950000D02*
X128905000Y-94615000D01*
X128905000Y-94615000D02*
X130175000Y-93345000D01*
X130175000Y-93345000D02*
X130175000Y-92075000D01*
X130175000Y-92075000D02*
X128905000Y-90805000D01*
X128905000Y-90805000D02*
X128905000Y-83185000D01*
G04 #@! TO.N,/CPU_A0*
X141030001Y-134045001D02*
X141030001Y-123885001D01*
X131445000Y-114300000D02*
X131445000Y-107950000D01*
X141030001Y-123885001D02*
X131445000Y-114300000D01*
X131445000Y-107950000D02*
X131445000Y-94615000D01*
X131445000Y-94615000D02*
X132715000Y-93345000D01*
X132715000Y-93345000D02*
X132715000Y-92075000D01*
X132715000Y-92075000D02*
X131445000Y-90805000D01*
X131445000Y-90805000D02*
X131445000Y-83185000D01*
G04 #@! TO.N,/CPU_RnW*
X143570001Y-134045001D02*
X143570001Y-123885001D01*
X146685000Y-120770002D02*
X146685000Y-62865000D01*
X143570001Y-123885001D02*
X146685000Y-120770002D01*
G04 #@! TO.N,/PPU_nRD*
X174625000Y-93345000D02*
X174625000Y-92710000D01*
X173355000Y-94615000D02*
X174625000Y-93345000D01*
X151190001Y-134045001D02*
X151190001Y-105984999D01*
X151190001Y-105984999D02*
X153670000Y-103505000D01*
X173355000Y-102870000D02*
X173355000Y-94615000D01*
G04 #@! TO.N,/CIRAM_A10*
X153730001Y-134045001D02*
X153730001Y-121980001D01*
X153730001Y-121980001D02*
X153035000Y-121285000D01*
X169545000Y-94615000D02*
X170815000Y-93345000D01*
X170815000Y-93345000D02*
X170815000Y-90170000D01*
X170815000Y-90170000D02*
X167005000Y-86360000D01*
X153035000Y-121285000D02*
X153035000Y-106045000D01*
X153035000Y-106045000D02*
X153670000Y-105410000D01*
X169545000Y-104775000D02*
X169545000Y-94615000D01*
G04 #@! TO.N,/PPU_A6*
X156270001Y-134045001D02*
X156270001Y-123885001D01*
X156270001Y-123885001D02*
X167005000Y-113150002D01*
X167005000Y-113150002D02*
X167005000Y-107950000D01*
G04 #@! TO.N,/PPU_A5*
X158810001Y-123764999D02*
X169545000Y-113030000D01*
X169545000Y-113030000D02*
X169545000Y-107950000D01*
X158810001Y-134045001D02*
X158810001Y-123764999D01*
G04 #@! TO.N,/PPU_A4*
X161350001Y-134045001D02*
X161350001Y-123885001D01*
X161350001Y-123885001D02*
X172085000Y-113150002D01*
X172085000Y-113150002D02*
X172085000Y-107950000D01*
G04 #@! TO.N,/PPU_A3*
X163890001Y-134045001D02*
X163890001Y-123885001D01*
X163890001Y-123885001D02*
X174625000Y-113150002D01*
X174625000Y-113150002D02*
X174625000Y-107950000D01*
G04 #@! TO.N,/PPU_A2*
X166430001Y-134045001D02*
X166430001Y-123885001D01*
X166430001Y-123885001D02*
X177165000Y-113150002D01*
X177165000Y-113150002D02*
X177165000Y-107950000D01*
G04 #@! TO.N,/PPU_A1*
X168970001Y-134045001D02*
X168970001Y-123885001D01*
X168970001Y-123885001D02*
X179705000Y-113150002D01*
X179705000Y-113150002D02*
X179705000Y-107950000D01*
G04 #@! TO.N,/PPU_A0*
X182245000Y-113030000D02*
X182245000Y-107950000D01*
X171510001Y-123764999D02*
X182245000Y-113030000D01*
X171510001Y-134045001D02*
X171510001Y-123764999D01*
G04 #@! TO.N,/PPU_D0*
X184785000Y-113030000D02*
X184785000Y-107950000D01*
X174050001Y-123764999D02*
X184785000Y-113030000D01*
X174050001Y-134045001D02*
X174050001Y-123764999D01*
G04 #@! TO.N,/PPU_D1*
X187325000Y-113030000D02*
X187325000Y-107950000D01*
X176590001Y-123764999D02*
X187325000Y-113030000D01*
X176590001Y-134045001D02*
X176590001Y-123764999D01*
G04 #@! TO.N,/PPU_D2*
X189865000Y-113030000D02*
X189865000Y-107950000D01*
X179130001Y-123764999D02*
X189865000Y-113030000D01*
X179130001Y-134045001D02*
X179130001Y-123764999D01*
G04 #@! TO.N,/PPU_D3*
X181670001Y-134045001D02*
X181670001Y-122494999D01*
X181670001Y-122494999D02*
X191135000Y-113030000D01*
X191135000Y-113030000D02*
X191135000Y-94615000D01*
X191135000Y-94615000D02*
X192405000Y-93345000D01*
X192405000Y-93345000D02*
X192405000Y-92710000D01*
G04 #@! TO.N,VCC*
X103465000Y-92750000D02*
X103505000Y-92710000D01*
X99060000Y-92750000D02*
X103465000Y-92750000D01*
X99060000Y-78145000D02*
X99060000Y-75565000D01*
X103465000Y-50840000D02*
X103505000Y-50800000D01*
X99060000Y-50840000D02*
X103465000Y-50840000D01*
X126365000Y-50800000D02*
X130810000Y-50800000D01*
X179665000Y-72430000D02*
X179705000Y-72390000D01*
X175260000Y-72430000D02*
X179665000Y-72430000D01*
X154265000Y-92750000D02*
X154305000Y-92710000D01*
X149860000Y-92750000D02*
X154265000Y-92750000D01*
X184210001Y-134045001D02*
X184210001Y-123885001D01*
X151130000Y-75565000D02*
X154305000Y-72390000D01*
X149860000Y-75565000D02*
X151130000Y-75565000D01*
G04 #@! TO.N,/M2*
X112395000Y-54610000D02*
X116205000Y-50800000D01*
X109855000Y-54610000D02*
X112395000Y-54610000D01*
X106045000Y-58420000D02*
X109855000Y-54610000D01*
X102870000Y-61595000D02*
X106045000Y-58420000D01*
X100330000Y-61595000D02*
X102870000Y-61595000D01*
X108585000Y-114300000D02*
X107315000Y-114300000D01*
X97155000Y-64770000D02*
X100330000Y-61595000D01*
X107315000Y-114300000D02*
X97155000Y-104140000D01*
X97155000Y-104140000D02*
X97155000Y-64770000D01*
G04 #@! TO.N,/CPU_A12*
X118745000Y-92710000D02*
X118745000Y-92075000D01*
X118745000Y-92075000D02*
X117475000Y-90805000D01*
X117475000Y-90805000D02*
X117475000Y-82550000D01*
X117475000Y-82550000D02*
X121285000Y-78740000D01*
X121285000Y-78740000D02*
X121285000Y-67945000D01*
X117475000Y-114300000D02*
X117475000Y-94615000D01*
X118745000Y-93345000D02*
X118745000Y-92710000D01*
X117475000Y-94615000D02*
X118745000Y-93345000D01*
G04 #@! TO.N,/CPU_A13*
X120015000Y-114300000D02*
X120015000Y-94615000D01*
X121285000Y-93345000D02*
X121285000Y-92710000D01*
X120015000Y-94615000D02*
X121285000Y-93345000D01*
X121285000Y-92710000D02*
X121285000Y-92075000D01*
X121285000Y-92075000D02*
X120015000Y-90805000D01*
X120015000Y-90805000D02*
X120015000Y-82550000D01*
X120015000Y-82550000D02*
X122555000Y-80010000D01*
X112395000Y-77470000D02*
X112395000Y-67310000D01*
X112395000Y-67310000D02*
X111125000Y-66040000D01*
X111125000Y-66040000D02*
X111125000Y-58420000D01*
X122555000Y-80010000D02*
X122555000Y-78740000D01*
G04 #@! TO.N,/CPU_A14*
X125095000Y-114300000D02*
X125095000Y-94615000D01*
X126365000Y-93345000D02*
X126365000Y-92710000D01*
X125095000Y-94615000D02*
X126365000Y-93345000D01*
X126365000Y-92710000D02*
X126365000Y-92075000D01*
X126365000Y-92075000D02*
X125095000Y-90805000D01*
X125095000Y-90805000D02*
X125095000Y-82550000D01*
X114935000Y-67310000D02*
X113665000Y-66040000D01*
X113665000Y-66040000D02*
X113665000Y-58420000D01*
X114935000Y-67310000D02*
X114935000Y-76835000D01*
X125095000Y-82550000D02*
X125095000Y-78740000D01*
G04 #@! TO.N,/CPU_D7*
X131445000Y-92710000D02*
X131445000Y-92075000D01*
X131445000Y-92075000D02*
X130175000Y-90805000D01*
X130175000Y-90805000D02*
X130175000Y-82550000D01*
X130175000Y-82550000D02*
X131445000Y-81280000D01*
X131445000Y-81280000D02*
X131445000Y-67945000D01*
X130175000Y-114300000D02*
X130175000Y-94615000D01*
X131445000Y-93345000D02*
X131445000Y-92710000D01*
X130175000Y-94615000D02*
X131445000Y-93345000D01*
X131445000Y-67945000D02*
X131445000Y-67310000D01*
X131445000Y-67310000D02*
X133350000Y-65405000D01*
X133350000Y-65405000D02*
X133350000Y-58420000D01*
G04 #@! TO.N,/CPU_D6*
X133985000Y-92710000D02*
X133985000Y-92075000D01*
X133985000Y-92075000D02*
X132715000Y-90805000D01*
X132715000Y-90805000D02*
X132715000Y-82550000D01*
X132715000Y-82550000D02*
X133985000Y-81280000D01*
X133985000Y-81280000D02*
X133985000Y-67945000D01*
X132715000Y-114300000D02*
X132715000Y-94615000D01*
X133985000Y-93345000D02*
X133985000Y-92710000D01*
X132715000Y-94615000D02*
X133985000Y-93345000D01*
X133985000Y-67945000D02*
X133985000Y-67310000D01*
X133985000Y-67310000D02*
X135890000Y-65405000D01*
X135890000Y-65405000D02*
X135890000Y-58420000D01*
G04 #@! TO.N,/CPU_D5*
X136525000Y-92710000D02*
X136525000Y-92075000D01*
X136525000Y-92075000D02*
X135255000Y-90805000D01*
X135255000Y-90805000D02*
X135255000Y-82550000D01*
X135255000Y-82550000D02*
X136525000Y-81280000D01*
X136525000Y-81280000D02*
X136525000Y-67945000D01*
X135255000Y-114300000D02*
X135255000Y-94615000D01*
X136525000Y-93345000D02*
X136525000Y-92710000D01*
X135255000Y-94615000D02*
X136525000Y-93345000D01*
X136525000Y-67945000D02*
X136525000Y-67310000D01*
X136525000Y-67310000D02*
X138430000Y-65405000D01*
X138430000Y-65405000D02*
X138430000Y-58420000D01*
G04 #@! TO.N,/CPU_D4*
X139065000Y-92710000D02*
X139065000Y-92075000D01*
X139065000Y-92075000D02*
X137795000Y-90805000D01*
X137795000Y-90805000D02*
X137795000Y-82550000D01*
X137795000Y-82550000D02*
X139065000Y-81280000D01*
X139065000Y-81280000D02*
X139065000Y-67945000D01*
X137795000Y-114300000D02*
X137795000Y-94615000D01*
X137795000Y-94615000D02*
X139065000Y-93345000D01*
X139065000Y-93345000D02*
X139065000Y-92710000D01*
X139065000Y-67945000D02*
X139065000Y-67310000D01*
X139065000Y-67310000D02*
X140970000Y-65405000D01*
X140970000Y-65405000D02*
X140970000Y-58420000D01*
G04 #@! TO.N,/CPU_D3*
X141605000Y-92710000D02*
X141605000Y-92075000D01*
X141605000Y-92075000D02*
X140335000Y-90805000D01*
X140335000Y-90805000D02*
X140335000Y-82550000D01*
X140335000Y-82550000D02*
X141605000Y-81280000D01*
X141605000Y-81280000D02*
X141605000Y-67945000D01*
X140335000Y-114300000D02*
X140335000Y-94615000D01*
X141605000Y-93345000D02*
X141605000Y-92710000D01*
X140335000Y-94615000D02*
X141605000Y-93345000D01*
X141605000Y-67945000D02*
X141605000Y-67310000D01*
X141605000Y-67310000D02*
X143510000Y-65405000D01*
X143510000Y-65405000D02*
X143510000Y-58420000D01*
G04 #@! TO.N,/CPU_D2*
X139065000Y-107950000D02*
X139065000Y-94615000D01*
X139065000Y-94615000D02*
X140335000Y-93345000D01*
X140335000Y-93345000D02*
X140335000Y-92075000D01*
X140335000Y-92075000D02*
X139065000Y-90805000D01*
X139065000Y-90805000D02*
X139065000Y-83185000D01*
X139065000Y-83185000D02*
X139065000Y-82550000D01*
X140970000Y-116205000D02*
X139065000Y-114300000D01*
X139065000Y-114300000D02*
X139065000Y-107950000D01*
X139065000Y-82550000D02*
X140335000Y-81280000D01*
X142384999Y-65499999D02*
X140335000Y-67549998D01*
X146050000Y-58420000D02*
X144924999Y-57294999D01*
X142969999Y-57294999D02*
X142384999Y-57879999D01*
X144924999Y-57294999D02*
X142969999Y-57294999D01*
X142384999Y-57879999D02*
X142384999Y-65499999D01*
X140335000Y-67549998D02*
X140335000Y-81280000D01*
G04 #@! TO.N,/CPU_D1*
X136525000Y-107950000D02*
X136525000Y-94615000D01*
X136525000Y-94615000D02*
X137795000Y-93345000D01*
X137795000Y-93345000D02*
X137795000Y-92075000D01*
X137795000Y-92075000D02*
X136525000Y-90805000D01*
X136525000Y-90805000D02*
X136525000Y-83185000D01*
X136525000Y-83185000D02*
X136525000Y-82550000D01*
X140970000Y-118745000D02*
X136525000Y-114300000D01*
X136525000Y-114300000D02*
X136525000Y-107950000D01*
X136525000Y-82550000D02*
X137795000Y-81280000D01*
X137795000Y-67549998D02*
X137795000Y-81280000D01*
X139844999Y-65499999D02*
X137795000Y-67549998D01*
X139844999Y-57879999D02*
X139844999Y-65499999D01*
X140880008Y-56844990D02*
X139844999Y-57879999D01*
X147014990Y-56844990D02*
X140880008Y-56844990D01*
X148590000Y-58420000D02*
X147014990Y-56844990D01*
G04 #@! TO.N,/CPU_D0*
X133985000Y-107950000D02*
X133985000Y-94615000D01*
X133985000Y-94615000D02*
X135255000Y-93345000D01*
X135255000Y-93345000D02*
X135255000Y-92075000D01*
X135255000Y-92075000D02*
X133985000Y-90805000D01*
X133985000Y-90805000D02*
X133985000Y-83185000D01*
X133985000Y-83185000D02*
X133985000Y-82550000D01*
X140970000Y-121285000D02*
X133985000Y-114300000D01*
X133985000Y-114300000D02*
X133985000Y-107950000D01*
X133985000Y-82550000D02*
X135255000Y-81280000D01*
X137015001Y-65789997D02*
X135255000Y-67549998D01*
X135255000Y-67549998D02*
X135255000Y-81280000D01*
X137015001Y-58169997D02*
X137015001Y-65789997D01*
X138790018Y-56394980D02*
X137015001Y-58169997D01*
X149104980Y-56394980D02*
X138790018Y-56394980D01*
X151130000Y-58420000D02*
X149104980Y-56394980D01*
G04 #@! TO.N,/nROMSEL*
X128905000Y-92710000D02*
X128905000Y-92075000D01*
X128905000Y-92075000D02*
X127635000Y-90805000D01*
X128905000Y-92710000D02*
X128905000Y-93345000D01*
X128905000Y-93345000D02*
X127635000Y-94615000D01*
X127635000Y-94615000D02*
X127635000Y-112395000D01*
X127635000Y-90805000D02*
X127635000Y-74295000D01*
G04 #@! TO.N,/PPU_nWR*
X161925000Y-92710000D02*
X161925000Y-93345000D01*
X161925000Y-93345000D02*
X160655000Y-94615000D01*
X160655000Y-94615000D02*
X160655000Y-113030000D01*
X160655000Y-113030000D02*
X156845000Y-116840000D01*
G04 #@! TO.N,/CIRAM_nCE*
X159385000Y-92710000D02*
X159385000Y-93345000D01*
X159385000Y-93345000D02*
X158115000Y-94615000D01*
X158115000Y-94615000D02*
X158115000Y-113030000D01*
X156845000Y-86360000D02*
X156845000Y-89535000D01*
X159385000Y-92075000D02*
X159385000Y-92710000D01*
X156845000Y-89535000D02*
X159385000Y-92075000D01*
G04 #@! TO.N,/PPU_A7*
X164465000Y-113030000D02*
X164465000Y-107950000D01*
X158750000Y-118745000D02*
X164465000Y-113030000D01*
G04 #@! TO.N,/PPU_A8*
X161925000Y-113030000D02*
X161925000Y-107950000D01*
G04 #@! TO.N,/PPU_A9*
X163195000Y-113030000D02*
X163195000Y-94615000D01*
X163195000Y-94615000D02*
X164465000Y-93345000D01*
X164465000Y-93345000D02*
X164465000Y-92710000D01*
G04 #@! TO.N,/PPU_A10*
X167005000Y-93345000D02*
X167005000Y-92710000D01*
X165735000Y-94615000D02*
X167005000Y-93345000D01*
X165735000Y-113030000D02*
X165735000Y-94615000D01*
X167005000Y-91301370D02*
X167005000Y-92710000D01*
X156845000Y-81141370D02*
X167005000Y-91301370D01*
X156845000Y-80010000D02*
X156845000Y-81141370D01*
G04 #@! TO.N,/PPU_A11*
X168275000Y-113030000D02*
X168275000Y-94615000D01*
X168275000Y-94615000D02*
X169545000Y-93345000D01*
X169545000Y-93345000D02*
X169545000Y-92710000D01*
X165829999Y-88994999D02*
X169545000Y-92710000D01*
X165829999Y-81374999D02*
X165829999Y-88994999D01*
X164465000Y-80010000D02*
X165829999Y-81374999D01*
G04 #@! TO.N,/PPU_A12*
X170815000Y-113030000D02*
X170815000Y-94615000D01*
X170815000Y-94615000D02*
X172085000Y-93345000D01*
X172085000Y-93345000D02*
X172085000Y-92710000D01*
G04 #@! TO.N,/PPU_A13*
X175895000Y-113030000D02*
X175895000Y-94615000D01*
X175895000Y-94615000D02*
X177165000Y-93345000D01*
X177165000Y-93345000D02*
X177165000Y-92710000D01*
G04 #@! TO.N,/PPU_D7*
X180975000Y-113030000D02*
X180975000Y-94615000D01*
X180975000Y-94615000D02*
X182245000Y-93345000D01*
X182245000Y-93345000D02*
X182245000Y-92710000D01*
G04 #@! TO.N,/PPU_D6*
X183515000Y-113030000D02*
X183515000Y-94615000D01*
X183515000Y-94615000D02*
X184785000Y-93345000D01*
X184785000Y-93345000D02*
X184785000Y-92710000D01*
G04 #@! TO.N,/PPU_D5*
X186055000Y-113030000D02*
X186055000Y-94615000D01*
X186055000Y-94615000D02*
X187325000Y-93345000D01*
X187325000Y-93345000D02*
X187325000Y-92710000D01*
G04 #@! TO.N,/PPU_D4*
X188595000Y-113030000D02*
X188595000Y-94615000D01*
X188595000Y-94615000D02*
X189865000Y-93345000D01*
X189865000Y-93345000D02*
X189865000Y-92710000D01*
G04 #@! TO.N,/PRG_nWE*
X108585000Y-58420000D02*
X109855000Y-59690000D01*
X109855000Y-66675000D02*
X111125000Y-67945000D01*
X109855000Y-59690000D02*
X109855000Y-66675000D01*
G04 #@! TO.N,/PRG_nOE*
X123825000Y-92710000D02*
X123825000Y-92075000D01*
X123825000Y-92075000D02*
X122555000Y-90805000D01*
X122555000Y-90805000D02*
X122555000Y-82550000D01*
X122555000Y-82550000D02*
X123825000Y-81280000D01*
X123825000Y-81280000D02*
X123825000Y-67945000D01*
X123825000Y-92710000D02*
X123825000Y-93345000D01*
X118745000Y-50800000D02*
X114935000Y-54610000D01*
X114935000Y-54610000D02*
X114935000Y-59055000D01*
X114935000Y-59055000D02*
X123825000Y-67945000D01*
G04 #@! TO.N,/WRK_nCE*
X116205000Y-58420000D02*
X125095000Y-67310000D01*
X125095000Y-67310000D02*
X125095000Y-68580000D01*
X127779999Y-69070001D02*
X128905000Y-67945000D01*
X125585001Y-69070001D02*
X127779999Y-69070001D01*
X125095000Y-68580000D02*
X125585001Y-69070001D01*
G04 #@! TO.N,/MAP_D7*
X159385000Y-81280000D02*
X164465000Y-86360000D01*
X159385000Y-80010000D02*
X159385000Y-81280000D01*
X175895000Y-80010000D02*
X179705000Y-80010000D01*
X162560000Y-54610000D02*
X162560000Y-60960000D01*
X162560000Y-60960000D02*
X172720000Y-71120000D01*
X172720000Y-71120000D02*
X172720000Y-76835000D01*
X172720000Y-76835000D02*
X175895000Y-80010000D01*
G04 #@! TO.N,/MAP_LE*
X152544999Y-51925001D02*
X152544999Y-68089999D01*
X152544999Y-68089999D02*
X156845000Y-72390000D01*
X153670000Y-50800000D02*
X152544999Y-51925001D01*
G04 #@! TO.N,/MAP_D0*
X103505000Y-94615000D02*
X103505000Y-107950000D01*
X98425000Y-88900000D02*
X101600000Y-88900000D01*
X101600000Y-88900000D02*
X104775000Y-92075000D01*
X104775000Y-92075000D02*
X104775000Y-93345000D01*
X104775000Y-93345000D02*
X103505000Y-94615000D01*
G04 #@! TO.N,/MAP_D1*
X98425000Y-87630000D02*
X102870000Y-87630000D01*
X102870000Y-87630000D02*
X107315000Y-92075000D01*
X106045000Y-94615000D02*
X106045000Y-107950000D01*
X107315000Y-93345000D02*
X106045000Y-94615000D01*
X107315000Y-92075000D02*
X107315000Y-93345000D01*
G04 #@! TO.N,/MAP_D2*
X108585000Y-92075000D02*
X108585000Y-92710000D01*
X102870000Y-86360000D02*
X108585000Y-92075000D01*
X98425000Y-86360000D02*
X102870000Y-86360000D01*
G04 #@! TO.N,/MAP_D3*
X108585000Y-94615000D02*
X108585000Y-107950000D01*
X98425000Y-85090000D02*
X102870000Y-85090000D01*
X102870000Y-85090000D02*
X109855000Y-92075000D01*
X109855000Y-92075000D02*
X109855000Y-93345000D01*
X109855000Y-93345000D02*
X108585000Y-94615000D01*
G04 #@! TO.N,/MAP_D4*
X140970000Y-50800000D02*
X135624980Y-56145020D01*
X107315000Y-81915000D02*
X108585000Y-83185000D01*
X107315000Y-64135000D02*
X107315000Y-81915000D01*
X130899978Y-56145020D02*
X125730000Y-61314998D01*
X135624980Y-56145020D02*
X130899978Y-56145020D01*
G04 #@! TO.N,/MAP_D5*
X133534990Y-55695010D02*
X129089990Y-55695010D01*
X138430000Y-50800000D02*
X133534990Y-55695010D01*
X106045000Y-62865000D02*
X106045000Y-67945000D01*
X129089990Y-55695010D02*
X124460000Y-60325000D01*
G04 #@! TO.N,/MAP_D6*
X135890000Y-50800000D02*
X131445000Y-55245000D01*
X131445000Y-55245000D02*
X127000000Y-55245000D01*
X104775000Y-81915000D02*
X106045000Y-83185000D01*
X104775000Y-61595000D02*
X104775000Y-81915000D01*
X127000000Y-55245000D02*
X123190000Y-59055000D01*
G04 #@! TO.N,Net-(BT1-Pad1)*
X165690000Y-55835000D02*
X160020000Y-50165000D01*
X165690000Y-57785000D02*
X165690000Y-55835000D01*
G04 #@! TO.N,/VBAT*
X99060000Y-67945000D02*
X103505000Y-67945000D01*
G04 #@! TO.N,Net-(D2-Pad2)*
X160020000Y-57785000D02*
X160020000Y-60325000D01*
G04 #@! TO.N,/PPU_nA13*
X156270001Y-121980001D02*
X155575000Y-121285000D01*
X155575000Y-87630000D02*
X154305000Y-86360000D01*
X155575000Y-121285000D02*
X155575000Y-87630000D01*
G04 #@! TO.N,/MAP_MIR*
X168275000Y-77074998D02*
X168275000Y-85090000D01*
X168275000Y-85090000D02*
X169545000Y-86360000D01*
X170670001Y-74679997D02*
X168275000Y-77074998D01*
X170670001Y-71849999D02*
X170670001Y-74679997D01*
X165590001Y-71264999D02*
X170085001Y-71264999D01*
X170085001Y-71264999D02*
X170670001Y-71849999D01*
X164465000Y-72390000D02*
X165590001Y-71264999D01*
G04 #@! TO.N,/A10_SEL*
X160799999Y-73515001D02*
X154305000Y-80010000D01*
X165879999Y-73515001D02*
X160799999Y-73515001D01*
X167005000Y-72390000D02*
X165879999Y-73515001D01*
G04 #@! TO.N,/A11_SEL*
X169545000Y-72390000D02*
X161925000Y-80010000D01*
G04 #@! TO.N,Net-(U1-Pad1)*
X111125000Y-50800000D02*
X103505000Y-58420000D01*
G04 #@! TD*
D19*
G04 #@! TO.N,GND*
G36*
X150015363Y-59334759D02*
G01*
X150215241Y-59534637D01*
X150450273Y-59691680D01*
X150711426Y-59799853D01*
X150988665Y-59855000D01*
X151271335Y-59855000D01*
X151548574Y-59799853D01*
X151784999Y-59701922D01*
X151785000Y-68052666D01*
X151781323Y-68089999D01*
X151795997Y-68238984D01*
X151839453Y-68382245D01*
X151910025Y-68514275D01*
X151963965Y-68580000D01*
X152004999Y-68630000D01*
X152033997Y-68653798D01*
X154335198Y-70955000D01*
X154163665Y-70955000D01*
X153886426Y-71010147D01*
X153625273Y-71118320D01*
X153390241Y-71275363D01*
X153190363Y-71475241D01*
X153033320Y-71710273D01*
X152925147Y-71971426D01*
X152870000Y-72248665D01*
X152870000Y-72531335D01*
X152906312Y-72713886D01*
X151257000Y-74363199D01*
X151257000Y-74295000D01*
X151254560Y-74270224D01*
X151247333Y-74246399D01*
X151235597Y-74224443D01*
X151219803Y-74205197D01*
X151200557Y-74189403D01*
X151178601Y-74177667D01*
X151154776Y-74170440D01*
X151130000Y-74168000D01*
X150192371Y-74168000D01*
X150001335Y-74130000D01*
X149718665Y-74130000D01*
X149527629Y-74168000D01*
X148590000Y-74168000D01*
X148565224Y-74170440D01*
X148541399Y-74177667D01*
X148519443Y-74189403D01*
X148500197Y-74205197D01*
X148484403Y-74224443D01*
X148472667Y-74246399D01*
X148465440Y-74270224D01*
X148463000Y-74295000D01*
X148463000Y-75232629D01*
X148425000Y-75423665D01*
X148425000Y-75706335D01*
X148463000Y-75897371D01*
X148463000Y-77736294D01*
X148433700Y-77853184D01*
X148419783Y-78135512D01*
X148461213Y-78415130D01*
X148463000Y-78420127D01*
X148463000Y-79375000D01*
X148465440Y-79399776D01*
X148472667Y-79423601D01*
X148484403Y-79445557D01*
X148500197Y-79464803D01*
X148519443Y-79480597D01*
X148541399Y-79492333D01*
X148565224Y-79499560D01*
X148590000Y-79502000D01*
X149865250Y-79502000D01*
X149930512Y-79505217D01*
X149952224Y-79502000D01*
X151130000Y-79502000D01*
X151154776Y-79499560D01*
X151178601Y-79492333D01*
X151200557Y-79480597D01*
X151219803Y-79464803D01*
X151235597Y-79445557D01*
X151247333Y-79423601D01*
X151254560Y-79399776D01*
X151257000Y-79375000D01*
X151257000Y-78393706D01*
X151286300Y-78276816D01*
X151300217Y-77994488D01*
X151258787Y-77714870D01*
X151257000Y-77709873D01*
X151257000Y-76316168D01*
X151278986Y-76314003D01*
X151422247Y-76270546D01*
X151554276Y-76199974D01*
X151670001Y-76105001D01*
X151693804Y-76075997D01*
X153981114Y-73788688D01*
X154163665Y-73825000D01*
X154446335Y-73825000D01*
X154723574Y-73769853D01*
X154984727Y-73661680D01*
X155219759Y-73504637D01*
X155419637Y-73304759D01*
X155575000Y-73072241D01*
X155730363Y-73304759D01*
X155930241Y-73504637D01*
X156165273Y-73661680D01*
X156426426Y-73769853D01*
X156703665Y-73825000D01*
X156986335Y-73825000D01*
X157263574Y-73769853D01*
X157524727Y-73661680D01*
X157759759Y-73504637D01*
X157959637Y-73304759D01*
X158115000Y-73072241D01*
X158270363Y-73304759D01*
X158470241Y-73504637D01*
X158705273Y-73661680D01*
X158966426Y-73769853D01*
X159243665Y-73825000D01*
X159415198Y-73825000D01*
X154668271Y-78571928D01*
X153505000Y-78571928D01*
X153380518Y-78584188D01*
X153260820Y-78620498D01*
X153150506Y-78679463D01*
X153053815Y-78758815D01*
X152974463Y-78855506D01*
X152915498Y-78965820D01*
X152879188Y-79085518D01*
X152866928Y-79210000D01*
X152866928Y-80810000D01*
X152879188Y-80934482D01*
X152915498Y-81054180D01*
X152974463Y-81164494D01*
X153053815Y-81261185D01*
X153150506Y-81340537D01*
X153260820Y-81399502D01*
X153380518Y-81435812D01*
X153505000Y-81448072D01*
X155105000Y-81448072D01*
X155229482Y-81435812D01*
X155349180Y-81399502D01*
X155459494Y-81340537D01*
X155556185Y-81261185D01*
X155635537Y-81164494D01*
X155694502Y-81054180D01*
X155730812Y-80934482D01*
X155731643Y-80926039D01*
X155930241Y-81124637D01*
X156090203Y-81231520D01*
X156095144Y-81281680D01*
X156095998Y-81290355D01*
X156139454Y-81433616D01*
X156210026Y-81565646D01*
X156256894Y-81622754D01*
X156305000Y-81681371D01*
X156333998Y-81705169D01*
X159503829Y-84875000D01*
X159238740Y-84875000D01*
X158951842Y-84932068D01*
X158681589Y-85044010D01*
X158438368Y-85206525D01*
X158231525Y-85413368D01*
X158115000Y-85587760D01*
X157998475Y-85413368D01*
X157791632Y-85206525D01*
X157548411Y-85044010D01*
X157278158Y-84932068D01*
X156991260Y-84875000D01*
X156698740Y-84875000D01*
X156411842Y-84932068D01*
X156141589Y-85044010D01*
X155898368Y-85206525D01*
X155766513Y-85338380D01*
X155744502Y-85265820D01*
X155685537Y-85155506D01*
X155606185Y-85058815D01*
X155509494Y-84979463D01*
X155399180Y-84920498D01*
X155279482Y-84884188D01*
X155155000Y-84871928D01*
X153455000Y-84871928D01*
X153330518Y-84884188D01*
X153210820Y-84920498D01*
X153100506Y-84979463D01*
X153003815Y-85058815D01*
X152924463Y-85155506D01*
X152865498Y-85265820D01*
X152829188Y-85385518D01*
X152816928Y-85510000D01*
X152816928Y-87210000D01*
X152829188Y-87334482D01*
X152865498Y-87454180D01*
X152924463Y-87564494D01*
X153003815Y-87661185D01*
X153100506Y-87740537D01*
X153210820Y-87799502D01*
X153330518Y-87835812D01*
X153455000Y-87848072D01*
X154718270Y-87848072D01*
X154815001Y-87944803D01*
X154815001Y-91368017D01*
X154723574Y-91330147D01*
X154446335Y-91275000D01*
X154163665Y-91275000D01*
X153886426Y-91330147D01*
X153625273Y-91438320D01*
X153390241Y-91595363D01*
X153190363Y-91795241D01*
X153060229Y-91990000D01*
X151257000Y-91990000D01*
X151257000Y-91440000D01*
X151254560Y-91415224D01*
X151247333Y-91391399D01*
X151235597Y-91369443D01*
X151219803Y-91350197D01*
X151200557Y-91334403D01*
X151178601Y-91322667D01*
X151154776Y-91315440D01*
X151130000Y-91313000D01*
X148590000Y-91313000D01*
X148565224Y-91315440D01*
X148541399Y-91322667D01*
X148519443Y-91334403D01*
X148500197Y-91350197D01*
X148484403Y-91369443D01*
X148472667Y-91391399D01*
X148465440Y-91415224D01*
X148463000Y-91440000D01*
X148463000Y-92417629D01*
X148425000Y-92608665D01*
X148425000Y-92891335D01*
X148463000Y-93082371D01*
X148463000Y-94921294D01*
X148433700Y-95038184D01*
X148419783Y-95320512D01*
X148461213Y-95600130D01*
X148463000Y-95605127D01*
X148463000Y-96520000D01*
X148465440Y-96544776D01*
X148472667Y-96568601D01*
X148484403Y-96590557D01*
X148500197Y-96609803D01*
X148519443Y-96625597D01*
X148541399Y-96637333D01*
X148565224Y-96644560D01*
X148590000Y-96647000D01*
X149531294Y-96647000D01*
X149648184Y-96676300D01*
X149930512Y-96690217D01*
X150210130Y-96648787D01*
X150215127Y-96647000D01*
X151130000Y-96647000D01*
X151154776Y-96644560D01*
X151178601Y-96637333D01*
X151200557Y-96625597D01*
X151219803Y-96609803D01*
X151235597Y-96590557D01*
X151247333Y-96568601D01*
X151254560Y-96544776D01*
X151257000Y-96520000D01*
X151257000Y-95578706D01*
X151286300Y-95461816D01*
X151300217Y-95179488D01*
X151258787Y-94899870D01*
X151257000Y-94894873D01*
X151257000Y-93510000D01*
X153113684Y-93510000D01*
X153190363Y-93624759D01*
X153390241Y-93824637D01*
X153625273Y-93981680D01*
X153886426Y-94089853D01*
X154163665Y-94145000D01*
X154446335Y-94145000D01*
X154723574Y-94089853D01*
X154815001Y-94051983D01*
X154815000Y-106511928D01*
X153795000Y-106511928D01*
X153795000Y-106440413D01*
X153971898Y-106405226D01*
X154160256Y-106327205D01*
X154329774Y-106213937D01*
X154473937Y-106069774D01*
X154587205Y-105900256D01*
X154665226Y-105711898D01*
X154705000Y-105511939D01*
X154705000Y-105308061D01*
X154665226Y-105108102D01*
X154587205Y-104919744D01*
X154473937Y-104750226D01*
X154329774Y-104606063D01*
X154160256Y-104492795D01*
X154075047Y-104457500D01*
X154160256Y-104422205D01*
X154329774Y-104308937D01*
X154473937Y-104164774D01*
X154587205Y-103995256D01*
X154665226Y-103806898D01*
X154705000Y-103606939D01*
X154705000Y-103403061D01*
X154665226Y-103203102D01*
X154587205Y-103014744D01*
X154473937Y-102845226D01*
X154329774Y-102701063D01*
X154160256Y-102587795D01*
X153971898Y-102509774D01*
X153771939Y-102470000D01*
X153568061Y-102470000D01*
X153368102Y-102509774D01*
X153179744Y-102587795D01*
X153010226Y-102701063D01*
X152866063Y-102845226D01*
X152752795Y-103014744D01*
X152674774Y-103203102D01*
X152635000Y-103403061D01*
X152635000Y-103465198D01*
X150678999Y-105421200D01*
X150650001Y-105444998D01*
X150626203Y-105473996D01*
X150626202Y-105473997D01*
X150555027Y-105560723D01*
X150484455Y-105692753D01*
X150440999Y-105836014D01*
X150426325Y-105984999D01*
X150430002Y-106022332D01*
X150430001Y-128143000D01*
X144330001Y-128143000D01*
X144330001Y-124199802D01*
X147196004Y-121333800D01*
X147225001Y-121310003D01*
X147319974Y-121194278D01*
X147390546Y-121062249D01*
X147434003Y-120918988D01*
X147445000Y-120807335D01*
X147445000Y-120807325D01*
X147448676Y-120770002D01*
X147445000Y-120732679D01*
X147445000Y-63568711D01*
X147488937Y-63524774D01*
X147602205Y-63355256D01*
X147680226Y-63166898D01*
X147720000Y-62966939D01*
X147720000Y-62763061D01*
X147680226Y-62563102D01*
X147602205Y-62374744D01*
X147488937Y-62205226D01*
X147344774Y-62061063D01*
X147175256Y-61947795D01*
X146986898Y-61869774D01*
X146786939Y-61830000D01*
X146583061Y-61830000D01*
X146383102Y-61869774D01*
X146194744Y-61947795D01*
X146025226Y-62061063D01*
X145881063Y-62205226D01*
X145767795Y-62374744D01*
X145689774Y-62563102D01*
X145650000Y-62763061D01*
X145650000Y-62966939D01*
X145689774Y-63166898D01*
X145767795Y-63355256D01*
X145881063Y-63524774D01*
X145925001Y-63568712D01*
X145925000Y-120455200D01*
X143058999Y-123321202D01*
X143030001Y-123345000D01*
X143006204Y-123373997D01*
X143006202Y-123373999D01*
X142935027Y-123460725D01*
X142864455Y-123592755D01*
X142857400Y-123616014D01*
X142821000Y-123736014D01*
X142820999Y-123736016D01*
X142806325Y-123885001D01*
X142810002Y-123922333D01*
X142810002Y-128143000D01*
X141790001Y-128143000D01*
X141790001Y-123922323D01*
X141793677Y-123885000D01*
X141790001Y-123847677D01*
X141790001Y-123847668D01*
X141779004Y-123736015D01*
X141735547Y-123592754D01*
X141664975Y-123460725D01*
X141610827Y-123394745D01*
X141593800Y-123373997D01*
X141593796Y-123373993D01*
X141570002Y-123345000D01*
X141541009Y-123321206D01*
X133344180Y-115124379D01*
X133374774Y-115103937D01*
X133518937Y-114959774D01*
X133539379Y-114929180D01*
X139935000Y-121324802D01*
X139935000Y-121386939D01*
X139974774Y-121586898D01*
X140052795Y-121775256D01*
X140166063Y-121944774D01*
X140310226Y-122088937D01*
X140479744Y-122202205D01*
X140668102Y-122280226D01*
X140868061Y-122320000D01*
X141071939Y-122320000D01*
X141271898Y-122280226D01*
X141460256Y-122202205D01*
X141629774Y-122088937D01*
X141773937Y-121944774D01*
X141887205Y-121775256D01*
X141965226Y-121586898D01*
X142005000Y-121386939D01*
X142005000Y-121183061D01*
X141965226Y-120983102D01*
X141887205Y-120794744D01*
X141773937Y-120625226D01*
X141629774Y-120481063D01*
X141460256Y-120367795D01*
X141271898Y-120289774D01*
X141071939Y-120250000D01*
X141009802Y-120250000D01*
X135884180Y-115124379D01*
X135914774Y-115103937D01*
X136058937Y-114959774D01*
X136079379Y-114929180D01*
X139935000Y-118784802D01*
X139935000Y-118846939D01*
X139974774Y-119046898D01*
X140052795Y-119235256D01*
X140166063Y-119404774D01*
X140310226Y-119548937D01*
X140479744Y-119662205D01*
X140668102Y-119740226D01*
X140868061Y-119780000D01*
X141071939Y-119780000D01*
X141271898Y-119740226D01*
X141460256Y-119662205D01*
X141629774Y-119548937D01*
X141773937Y-119404774D01*
X141887205Y-119235256D01*
X141965226Y-119046898D01*
X142005000Y-118846939D01*
X142005000Y-118643061D01*
X141965226Y-118443102D01*
X141887205Y-118254744D01*
X141773937Y-118085226D01*
X141629774Y-117941063D01*
X141460256Y-117827795D01*
X141271898Y-117749774D01*
X141071939Y-117710000D01*
X141009802Y-117710000D01*
X138424180Y-115124379D01*
X138454774Y-115103937D01*
X138598937Y-114959774D01*
X138619379Y-114929180D01*
X139935000Y-116244802D01*
X139935000Y-116306939D01*
X139974774Y-116506898D01*
X140052795Y-116695256D01*
X140166063Y-116864774D01*
X140310226Y-117008937D01*
X140479744Y-117122205D01*
X140668102Y-117200226D01*
X140868061Y-117240000D01*
X141071939Y-117240000D01*
X141271898Y-117200226D01*
X141460256Y-117122205D01*
X141629774Y-117008937D01*
X141773937Y-116864774D01*
X141887205Y-116695256D01*
X141965226Y-116506898D01*
X142005000Y-116306939D01*
X142005000Y-116103061D01*
X141965226Y-115903102D01*
X141887205Y-115714744D01*
X141773937Y-115545226D01*
X141629774Y-115401063D01*
X141460256Y-115287795D01*
X141271898Y-115209774D01*
X141071939Y-115170000D01*
X141009802Y-115170000D01*
X140964181Y-115124379D01*
X140994774Y-115103937D01*
X141138937Y-114959774D01*
X141252205Y-114790256D01*
X141330226Y-114601898D01*
X141370000Y-114401939D01*
X141370000Y-114198061D01*
X141330226Y-113998102D01*
X141252205Y-113809744D01*
X141138937Y-113640226D01*
X141095000Y-113596289D01*
X141095000Y-109288526D01*
X141121913Y-109301246D01*
X141255961Y-109341904D01*
X141478000Y-109219915D01*
X141478000Y-108077000D01*
X141732000Y-108077000D01*
X141732000Y-109219915D01*
X141954039Y-109341904D01*
X142088087Y-109301246D01*
X142342420Y-109181037D01*
X142568414Y-109013519D01*
X142757385Y-108805131D01*
X142902070Y-108563881D01*
X142996909Y-108299040D01*
X142875624Y-108077000D01*
X141732000Y-108077000D01*
X141478000Y-108077000D01*
X141458000Y-108077000D01*
X141458000Y-107823000D01*
X141478000Y-107823000D01*
X141478000Y-106680085D01*
X141732000Y-106680085D01*
X141732000Y-107823000D01*
X142875624Y-107823000D01*
X142996909Y-107600960D01*
X142902070Y-107336119D01*
X142757385Y-107094869D01*
X142568414Y-106886481D01*
X142342420Y-106718963D01*
X142088087Y-106598754D01*
X141954039Y-106558096D01*
X141732000Y-106680085D01*
X141478000Y-106680085D01*
X141255961Y-106558096D01*
X141121913Y-106598754D01*
X141095000Y-106611474D01*
X141095000Y-94929801D01*
X141912943Y-94111859D01*
X142023574Y-94089853D01*
X142284727Y-93981680D01*
X142519759Y-93824637D01*
X142719637Y-93624759D01*
X142876680Y-93389727D01*
X142984853Y-93128574D01*
X143040000Y-92851335D01*
X143040000Y-92568665D01*
X142984853Y-92291426D01*
X142876680Y-92030273D01*
X142719637Y-91795241D01*
X142519759Y-91595363D01*
X142284727Y-91438320D01*
X142023574Y-91330147D01*
X141912943Y-91308141D01*
X141095000Y-90490199D01*
X141095000Y-84523526D01*
X141121913Y-84536246D01*
X141255961Y-84576904D01*
X141478000Y-84454915D01*
X141478000Y-83312000D01*
X141732000Y-83312000D01*
X141732000Y-84454915D01*
X141954039Y-84576904D01*
X142088087Y-84536246D01*
X142342420Y-84416037D01*
X142568414Y-84248519D01*
X142757385Y-84040131D01*
X142902070Y-83798881D01*
X142996909Y-83534040D01*
X142875624Y-83312000D01*
X141732000Y-83312000D01*
X141478000Y-83312000D01*
X141458000Y-83312000D01*
X141458000Y-83058000D01*
X141478000Y-83058000D01*
X141478000Y-83038000D01*
X141732000Y-83038000D01*
X141732000Y-83058000D01*
X142875624Y-83058000D01*
X142996909Y-82835960D01*
X142902070Y-82571119D01*
X142757385Y-82329869D01*
X142568414Y-82121481D01*
X142342420Y-81953963D01*
X142113864Y-81845938D01*
X142116004Y-81843798D01*
X142145001Y-81820001D01*
X142239974Y-81704276D01*
X142310546Y-81572247D01*
X142354003Y-81428986D01*
X142365000Y-81317333D01*
X142365000Y-81317324D01*
X142368676Y-81280001D01*
X142365000Y-81242678D01*
X142365000Y-69163043D01*
X142519759Y-69059637D01*
X142719637Y-68859759D01*
X142876680Y-68624727D01*
X142984853Y-68363574D01*
X143040000Y-68086335D01*
X143040000Y-67803665D01*
X142984853Y-67526426D01*
X142876680Y-67265273D01*
X142815737Y-67174065D01*
X144021004Y-65968798D01*
X144050001Y-65945001D01*
X144144974Y-65829276D01*
X144215546Y-65697247D01*
X144259003Y-65553986D01*
X144270000Y-65442333D01*
X144270000Y-65442323D01*
X144273676Y-65405000D01*
X144270000Y-65367677D01*
X144270000Y-59638043D01*
X144424759Y-59534637D01*
X144624637Y-59334759D01*
X144780000Y-59102241D01*
X144935363Y-59334759D01*
X145135241Y-59534637D01*
X145370273Y-59691680D01*
X145631426Y-59799853D01*
X145908665Y-59855000D01*
X146191335Y-59855000D01*
X146468574Y-59799853D01*
X146729727Y-59691680D01*
X146964759Y-59534637D01*
X147164637Y-59334759D01*
X147320000Y-59102241D01*
X147475363Y-59334759D01*
X147675241Y-59534637D01*
X147910273Y-59691680D01*
X148171426Y-59799853D01*
X148448665Y-59855000D01*
X148731335Y-59855000D01*
X149008574Y-59799853D01*
X149269727Y-59691680D01*
X149504759Y-59534637D01*
X149704637Y-59334759D01*
X149860000Y-59102241D01*
X150015363Y-59334759D01*
G37*
X150015363Y-59334759D02*
X150215241Y-59534637D01*
X150450273Y-59691680D01*
X150711426Y-59799853D01*
X150988665Y-59855000D01*
X151271335Y-59855000D01*
X151548574Y-59799853D01*
X151784999Y-59701922D01*
X151785000Y-68052666D01*
X151781323Y-68089999D01*
X151795997Y-68238984D01*
X151839453Y-68382245D01*
X151910025Y-68514275D01*
X151963965Y-68580000D01*
X152004999Y-68630000D01*
X152033997Y-68653798D01*
X154335198Y-70955000D01*
X154163665Y-70955000D01*
X153886426Y-71010147D01*
X153625273Y-71118320D01*
X153390241Y-71275363D01*
X153190363Y-71475241D01*
X153033320Y-71710273D01*
X152925147Y-71971426D01*
X152870000Y-72248665D01*
X152870000Y-72531335D01*
X152906312Y-72713886D01*
X151257000Y-74363199D01*
X151257000Y-74295000D01*
X151254560Y-74270224D01*
X151247333Y-74246399D01*
X151235597Y-74224443D01*
X151219803Y-74205197D01*
X151200557Y-74189403D01*
X151178601Y-74177667D01*
X151154776Y-74170440D01*
X151130000Y-74168000D01*
X150192371Y-74168000D01*
X150001335Y-74130000D01*
X149718665Y-74130000D01*
X149527629Y-74168000D01*
X148590000Y-74168000D01*
X148565224Y-74170440D01*
X148541399Y-74177667D01*
X148519443Y-74189403D01*
X148500197Y-74205197D01*
X148484403Y-74224443D01*
X148472667Y-74246399D01*
X148465440Y-74270224D01*
X148463000Y-74295000D01*
X148463000Y-75232629D01*
X148425000Y-75423665D01*
X148425000Y-75706335D01*
X148463000Y-75897371D01*
X148463000Y-77736294D01*
X148433700Y-77853184D01*
X148419783Y-78135512D01*
X148461213Y-78415130D01*
X148463000Y-78420127D01*
X148463000Y-79375000D01*
X148465440Y-79399776D01*
X148472667Y-79423601D01*
X148484403Y-79445557D01*
X148500197Y-79464803D01*
X148519443Y-79480597D01*
X148541399Y-79492333D01*
X148565224Y-79499560D01*
X148590000Y-79502000D01*
X149865250Y-79502000D01*
X149930512Y-79505217D01*
X149952224Y-79502000D01*
X151130000Y-79502000D01*
X151154776Y-79499560D01*
X151178601Y-79492333D01*
X151200557Y-79480597D01*
X151219803Y-79464803D01*
X151235597Y-79445557D01*
X151247333Y-79423601D01*
X151254560Y-79399776D01*
X151257000Y-79375000D01*
X151257000Y-78393706D01*
X151286300Y-78276816D01*
X151300217Y-77994488D01*
X151258787Y-77714870D01*
X151257000Y-77709873D01*
X151257000Y-76316168D01*
X151278986Y-76314003D01*
X151422247Y-76270546D01*
X151554276Y-76199974D01*
X151670001Y-76105001D01*
X151693804Y-76075997D01*
X153981114Y-73788688D01*
X154163665Y-73825000D01*
X154446335Y-73825000D01*
X154723574Y-73769853D01*
X154984727Y-73661680D01*
X155219759Y-73504637D01*
X155419637Y-73304759D01*
X155575000Y-73072241D01*
X155730363Y-73304759D01*
X155930241Y-73504637D01*
X156165273Y-73661680D01*
X156426426Y-73769853D01*
X156703665Y-73825000D01*
X156986335Y-73825000D01*
X157263574Y-73769853D01*
X157524727Y-73661680D01*
X157759759Y-73504637D01*
X157959637Y-73304759D01*
X158115000Y-73072241D01*
X158270363Y-73304759D01*
X158470241Y-73504637D01*
X158705273Y-73661680D01*
X158966426Y-73769853D01*
X159243665Y-73825000D01*
X159415198Y-73825000D01*
X154668271Y-78571928D01*
X153505000Y-78571928D01*
X153380518Y-78584188D01*
X153260820Y-78620498D01*
X153150506Y-78679463D01*
X153053815Y-78758815D01*
X152974463Y-78855506D01*
X152915498Y-78965820D01*
X152879188Y-79085518D01*
X152866928Y-79210000D01*
X152866928Y-80810000D01*
X152879188Y-80934482D01*
X152915498Y-81054180D01*
X152974463Y-81164494D01*
X153053815Y-81261185D01*
X153150506Y-81340537D01*
X153260820Y-81399502D01*
X153380518Y-81435812D01*
X153505000Y-81448072D01*
X155105000Y-81448072D01*
X155229482Y-81435812D01*
X155349180Y-81399502D01*
X155459494Y-81340537D01*
X155556185Y-81261185D01*
X155635537Y-81164494D01*
X155694502Y-81054180D01*
X155730812Y-80934482D01*
X155731643Y-80926039D01*
X155930241Y-81124637D01*
X156090203Y-81231520D01*
X156095144Y-81281680D01*
X156095998Y-81290355D01*
X156139454Y-81433616D01*
X156210026Y-81565646D01*
X156256894Y-81622754D01*
X156305000Y-81681371D01*
X156333998Y-81705169D01*
X159503829Y-84875000D01*
X159238740Y-84875000D01*
X158951842Y-84932068D01*
X158681589Y-85044010D01*
X158438368Y-85206525D01*
X158231525Y-85413368D01*
X158115000Y-85587760D01*
X157998475Y-85413368D01*
X157791632Y-85206525D01*
X157548411Y-85044010D01*
X157278158Y-84932068D01*
X156991260Y-84875000D01*
X156698740Y-84875000D01*
X156411842Y-84932068D01*
X156141589Y-85044010D01*
X155898368Y-85206525D01*
X155766513Y-85338380D01*
X155744502Y-85265820D01*
X155685537Y-85155506D01*
X155606185Y-85058815D01*
X155509494Y-84979463D01*
X155399180Y-84920498D01*
X155279482Y-84884188D01*
X155155000Y-84871928D01*
X153455000Y-84871928D01*
X153330518Y-84884188D01*
X153210820Y-84920498D01*
X153100506Y-84979463D01*
X153003815Y-85058815D01*
X152924463Y-85155506D01*
X152865498Y-85265820D01*
X152829188Y-85385518D01*
X152816928Y-85510000D01*
X152816928Y-87210000D01*
X152829188Y-87334482D01*
X152865498Y-87454180D01*
X152924463Y-87564494D01*
X153003815Y-87661185D01*
X153100506Y-87740537D01*
X153210820Y-87799502D01*
X153330518Y-87835812D01*
X153455000Y-87848072D01*
X154718270Y-87848072D01*
X154815001Y-87944803D01*
X154815001Y-91368017D01*
X154723574Y-91330147D01*
X154446335Y-91275000D01*
X154163665Y-91275000D01*
X153886426Y-91330147D01*
X153625273Y-91438320D01*
X153390241Y-91595363D01*
X153190363Y-91795241D01*
X153060229Y-91990000D01*
X151257000Y-91990000D01*
X151257000Y-91440000D01*
X151254560Y-91415224D01*
X151247333Y-91391399D01*
X151235597Y-91369443D01*
X151219803Y-91350197D01*
X151200557Y-91334403D01*
X151178601Y-91322667D01*
X151154776Y-91315440D01*
X151130000Y-91313000D01*
X148590000Y-91313000D01*
X148565224Y-91315440D01*
X148541399Y-91322667D01*
X148519443Y-91334403D01*
X148500197Y-91350197D01*
X148484403Y-91369443D01*
X148472667Y-91391399D01*
X148465440Y-91415224D01*
X148463000Y-91440000D01*
X148463000Y-92417629D01*
X148425000Y-92608665D01*
X148425000Y-92891335D01*
X148463000Y-93082371D01*
X148463000Y-94921294D01*
X148433700Y-95038184D01*
X148419783Y-95320512D01*
X148461213Y-95600130D01*
X148463000Y-95605127D01*
X148463000Y-96520000D01*
X148465440Y-96544776D01*
X148472667Y-96568601D01*
X148484403Y-96590557D01*
X148500197Y-96609803D01*
X148519443Y-96625597D01*
X148541399Y-96637333D01*
X148565224Y-96644560D01*
X148590000Y-96647000D01*
X149531294Y-96647000D01*
X149648184Y-96676300D01*
X149930512Y-96690217D01*
X150210130Y-96648787D01*
X150215127Y-96647000D01*
X151130000Y-96647000D01*
X151154776Y-96644560D01*
X151178601Y-96637333D01*
X151200557Y-96625597D01*
X151219803Y-96609803D01*
X151235597Y-96590557D01*
X151247333Y-96568601D01*
X151254560Y-96544776D01*
X151257000Y-96520000D01*
X151257000Y-95578706D01*
X151286300Y-95461816D01*
X151300217Y-95179488D01*
X151258787Y-94899870D01*
X151257000Y-94894873D01*
X151257000Y-93510000D01*
X153113684Y-93510000D01*
X153190363Y-93624759D01*
X153390241Y-93824637D01*
X153625273Y-93981680D01*
X153886426Y-94089853D01*
X154163665Y-94145000D01*
X154446335Y-94145000D01*
X154723574Y-94089853D01*
X154815001Y-94051983D01*
X154815000Y-106511928D01*
X153795000Y-106511928D01*
X153795000Y-106440413D01*
X153971898Y-106405226D01*
X154160256Y-106327205D01*
X154329774Y-106213937D01*
X154473937Y-106069774D01*
X154587205Y-105900256D01*
X154665226Y-105711898D01*
X154705000Y-105511939D01*
X154705000Y-105308061D01*
X154665226Y-105108102D01*
X154587205Y-104919744D01*
X154473937Y-104750226D01*
X154329774Y-104606063D01*
X154160256Y-104492795D01*
X154075047Y-104457500D01*
X154160256Y-104422205D01*
X154329774Y-104308937D01*
X154473937Y-104164774D01*
X154587205Y-103995256D01*
X154665226Y-103806898D01*
X154705000Y-103606939D01*
X154705000Y-103403061D01*
X154665226Y-103203102D01*
X154587205Y-103014744D01*
X154473937Y-102845226D01*
X154329774Y-102701063D01*
X154160256Y-102587795D01*
X153971898Y-102509774D01*
X153771939Y-102470000D01*
X153568061Y-102470000D01*
X153368102Y-102509774D01*
X153179744Y-102587795D01*
X153010226Y-102701063D01*
X152866063Y-102845226D01*
X152752795Y-103014744D01*
X152674774Y-103203102D01*
X152635000Y-103403061D01*
X152635000Y-103465198D01*
X150678999Y-105421200D01*
X150650001Y-105444998D01*
X150626203Y-105473996D01*
X150626202Y-105473997D01*
X150555027Y-105560723D01*
X150484455Y-105692753D01*
X150440999Y-105836014D01*
X150426325Y-105984999D01*
X150430002Y-106022332D01*
X150430001Y-128143000D01*
X144330001Y-128143000D01*
X144330001Y-124199802D01*
X147196004Y-121333800D01*
X147225001Y-121310003D01*
X147319974Y-121194278D01*
X147390546Y-121062249D01*
X147434003Y-120918988D01*
X147445000Y-120807335D01*
X147445000Y-120807325D01*
X147448676Y-120770002D01*
X147445000Y-120732679D01*
X147445000Y-63568711D01*
X147488937Y-63524774D01*
X147602205Y-63355256D01*
X147680226Y-63166898D01*
X147720000Y-62966939D01*
X147720000Y-62763061D01*
X147680226Y-62563102D01*
X147602205Y-62374744D01*
X147488937Y-62205226D01*
X147344774Y-62061063D01*
X147175256Y-61947795D01*
X146986898Y-61869774D01*
X146786939Y-61830000D01*
X146583061Y-61830000D01*
X146383102Y-61869774D01*
X146194744Y-61947795D01*
X146025226Y-62061063D01*
X145881063Y-62205226D01*
X145767795Y-62374744D01*
X145689774Y-62563102D01*
X145650000Y-62763061D01*
X145650000Y-62966939D01*
X145689774Y-63166898D01*
X145767795Y-63355256D01*
X145881063Y-63524774D01*
X145925001Y-63568712D01*
X145925000Y-120455200D01*
X143058999Y-123321202D01*
X143030001Y-123345000D01*
X143006204Y-123373997D01*
X143006202Y-123373999D01*
X142935027Y-123460725D01*
X142864455Y-123592755D01*
X142857400Y-123616014D01*
X142821000Y-123736014D01*
X142820999Y-123736016D01*
X142806325Y-123885001D01*
X142810002Y-123922333D01*
X142810002Y-128143000D01*
X141790001Y-128143000D01*
X141790001Y-123922323D01*
X141793677Y-123885000D01*
X141790001Y-123847677D01*
X141790001Y-123847668D01*
X141779004Y-123736015D01*
X141735547Y-123592754D01*
X141664975Y-123460725D01*
X141610827Y-123394745D01*
X141593800Y-123373997D01*
X141593796Y-123373993D01*
X141570002Y-123345000D01*
X141541009Y-123321206D01*
X133344180Y-115124379D01*
X133374774Y-115103937D01*
X133518937Y-114959774D01*
X133539379Y-114929180D01*
X139935000Y-121324802D01*
X139935000Y-121386939D01*
X139974774Y-121586898D01*
X140052795Y-121775256D01*
X140166063Y-121944774D01*
X140310226Y-122088937D01*
X140479744Y-122202205D01*
X140668102Y-122280226D01*
X140868061Y-122320000D01*
X141071939Y-122320000D01*
X141271898Y-122280226D01*
X141460256Y-122202205D01*
X141629774Y-122088937D01*
X141773937Y-121944774D01*
X141887205Y-121775256D01*
X141965226Y-121586898D01*
X142005000Y-121386939D01*
X142005000Y-121183061D01*
X141965226Y-120983102D01*
X141887205Y-120794744D01*
X141773937Y-120625226D01*
X141629774Y-120481063D01*
X141460256Y-120367795D01*
X141271898Y-120289774D01*
X141071939Y-120250000D01*
X141009802Y-120250000D01*
X135884180Y-115124379D01*
X135914774Y-115103937D01*
X136058937Y-114959774D01*
X136079379Y-114929180D01*
X139935000Y-118784802D01*
X139935000Y-118846939D01*
X139974774Y-119046898D01*
X140052795Y-119235256D01*
X140166063Y-119404774D01*
X140310226Y-119548937D01*
X140479744Y-119662205D01*
X140668102Y-119740226D01*
X140868061Y-119780000D01*
X141071939Y-119780000D01*
X141271898Y-119740226D01*
X141460256Y-119662205D01*
X141629774Y-119548937D01*
X141773937Y-119404774D01*
X141887205Y-119235256D01*
X141965226Y-119046898D01*
X142005000Y-118846939D01*
X142005000Y-118643061D01*
X141965226Y-118443102D01*
X141887205Y-118254744D01*
X141773937Y-118085226D01*
X141629774Y-117941063D01*
X141460256Y-117827795D01*
X141271898Y-117749774D01*
X141071939Y-117710000D01*
X141009802Y-117710000D01*
X138424180Y-115124379D01*
X138454774Y-115103937D01*
X138598937Y-114959774D01*
X138619379Y-114929180D01*
X139935000Y-116244802D01*
X139935000Y-116306939D01*
X139974774Y-116506898D01*
X140052795Y-116695256D01*
X140166063Y-116864774D01*
X140310226Y-117008937D01*
X140479744Y-117122205D01*
X140668102Y-117200226D01*
X140868061Y-117240000D01*
X141071939Y-117240000D01*
X141271898Y-117200226D01*
X141460256Y-117122205D01*
X141629774Y-117008937D01*
X141773937Y-116864774D01*
X141887205Y-116695256D01*
X141965226Y-116506898D01*
X142005000Y-116306939D01*
X142005000Y-116103061D01*
X141965226Y-115903102D01*
X141887205Y-115714744D01*
X141773937Y-115545226D01*
X141629774Y-115401063D01*
X141460256Y-115287795D01*
X141271898Y-115209774D01*
X141071939Y-115170000D01*
X141009802Y-115170000D01*
X140964181Y-115124379D01*
X140994774Y-115103937D01*
X141138937Y-114959774D01*
X141252205Y-114790256D01*
X141330226Y-114601898D01*
X141370000Y-114401939D01*
X141370000Y-114198061D01*
X141330226Y-113998102D01*
X141252205Y-113809744D01*
X141138937Y-113640226D01*
X141095000Y-113596289D01*
X141095000Y-109288526D01*
X141121913Y-109301246D01*
X141255961Y-109341904D01*
X141478000Y-109219915D01*
X141478000Y-108077000D01*
X141732000Y-108077000D01*
X141732000Y-109219915D01*
X141954039Y-109341904D01*
X142088087Y-109301246D01*
X142342420Y-109181037D01*
X142568414Y-109013519D01*
X142757385Y-108805131D01*
X142902070Y-108563881D01*
X142996909Y-108299040D01*
X142875624Y-108077000D01*
X141732000Y-108077000D01*
X141478000Y-108077000D01*
X141458000Y-108077000D01*
X141458000Y-107823000D01*
X141478000Y-107823000D01*
X141478000Y-106680085D01*
X141732000Y-106680085D01*
X141732000Y-107823000D01*
X142875624Y-107823000D01*
X142996909Y-107600960D01*
X142902070Y-107336119D01*
X142757385Y-107094869D01*
X142568414Y-106886481D01*
X142342420Y-106718963D01*
X142088087Y-106598754D01*
X141954039Y-106558096D01*
X141732000Y-106680085D01*
X141478000Y-106680085D01*
X141255961Y-106558096D01*
X141121913Y-106598754D01*
X141095000Y-106611474D01*
X141095000Y-94929801D01*
X141912943Y-94111859D01*
X142023574Y-94089853D01*
X142284727Y-93981680D01*
X142519759Y-93824637D01*
X142719637Y-93624759D01*
X142876680Y-93389727D01*
X142984853Y-93128574D01*
X143040000Y-92851335D01*
X143040000Y-92568665D01*
X142984853Y-92291426D01*
X142876680Y-92030273D01*
X142719637Y-91795241D01*
X142519759Y-91595363D01*
X142284727Y-91438320D01*
X142023574Y-91330147D01*
X141912943Y-91308141D01*
X141095000Y-90490199D01*
X141095000Y-84523526D01*
X141121913Y-84536246D01*
X141255961Y-84576904D01*
X141478000Y-84454915D01*
X141478000Y-83312000D01*
X141732000Y-83312000D01*
X141732000Y-84454915D01*
X141954039Y-84576904D01*
X142088087Y-84536246D01*
X142342420Y-84416037D01*
X142568414Y-84248519D01*
X142757385Y-84040131D01*
X142902070Y-83798881D01*
X142996909Y-83534040D01*
X142875624Y-83312000D01*
X141732000Y-83312000D01*
X141478000Y-83312000D01*
X141458000Y-83312000D01*
X141458000Y-83058000D01*
X141478000Y-83058000D01*
X141478000Y-83038000D01*
X141732000Y-83038000D01*
X141732000Y-83058000D01*
X142875624Y-83058000D01*
X142996909Y-82835960D01*
X142902070Y-82571119D01*
X142757385Y-82329869D01*
X142568414Y-82121481D01*
X142342420Y-81953963D01*
X142113864Y-81845938D01*
X142116004Y-81843798D01*
X142145001Y-81820001D01*
X142239974Y-81704276D01*
X142310546Y-81572247D01*
X142354003Y-81428986D01*
X142365000Y-81317333D01*
X142365000Y-81317324D01*
X142368676Y-81280001D01*
X142365000Y-81242678D01*
X142365000Y-69163043D01*
X142519759Y-69059637D01*
X142719637Y-68859759D01*
X142876680Y-68624727D01*
X142984853Y-68363574D01*
X143040000Y-68086335D01*
X143040000Y-67803665D01*
X142984853Y-67526426D01*
X142876680Y-67265273D01*
X142815737Y-67174065D01*
X144021004Y-65968798D01*
X144050001Y-65945001D01*
X144144974Y-65829276D01*
X144215546Y-65697247D01*
X144259003Y-65553986D01*
X144270000Y-65442333D01*
X144270000Y-65442323D01*
X144273676Y-65405000D01*
X144270000Y-65367677D01*
X144270000Y-59638043D01*
X144424759Y-59534637D01*
X144624637Y-59334759D01*
X144780000Y-59102241D01*
X144935363Y-59334759D01*
X145135241Y-59534637D01*
X145370273Y-59691680D01*
X145631426Y-59799853D01*
X145908665Y-59855000D01*
X146191335Y-59855000D01*
X146468574Y-59799853D01*
X146729727Y-59691680D01*
X146964759Y-59534637D01*
X147164637Y-59334759D01*
X147320000Y-59102241D01*
X147475363Y-59334759D01*
X147675241Y-59534637D01*
X147910273Y-59691680D01*
X148171426Y-59799853D01*
X148448665Y-59855000D01*
X148731335Y-59855000D01*
X149008574Y-59799853D01*
X149269727Y-59691680D01*
X149504759Y-59534637D01*
X149704637Y-59334759D01*
X149860000Y-59102241D01*
X150015363Y-59334759D01*
G36*
X201270000Y-108231779D02*
G01*
X188484067Y-116755735D01*
X191646004Y-113593798D01*
X191675001Y-113570001D01*
X191715826Y-113520256D01*
X191769974Y-113454277D01*
X191840546Y-113322247D01*
X191857911Y-113265000D01*
X191884003Y-113178986D01*
X191895000Y-113067333D01*
X191895000Y-113067323D01*
X191898676Y-113030000D01*
X191895000Y-112992677D01*
X191895000Y-109288526D01*
X191921913Y-109301246D01*
X192055961Y-109341904D01*
X192278000Y-109219915D01*
X192278000Y-108077000D01*
X192532000Y-108077000D01*
X192532000Y-109219915D01*
X192754039Y-109341904D01*
X192888087Y-109301246D01*
X193142420Y-109181037D01*
X193368414Y-109013519D01*
X193557385Y-108805131D01*
X193702070Y-108563881D01*
X193796909Y-108299040D01*
X193675624Y-108077000D01*
X192532000Y-108077000D01*
X192278000Y-108077000D01*
X192258000Y-108077000D01*
X192258000Y-107823000D01*
X192278000Y-107823000D01*
X192278000Y-106680085D01*
X192532000Y-106680085D01*
X192532000Y-107823000D01*
X193675624Y-107823000D01*
X193796909Y-107600960D01*
X193702070Y-107336119D01*
X193557385Y-107094869D01*
X193368414Y-106886481D01*
X193142420Y-106718963D01*
X192888087Y-106598754D01*
X192754039Y-106558096D01*
X192532000Y-106680085D01*
X192278000Y-106680085D01*
X192055961Y-106558096D01*
X191921913Y-106598754D01*
X191895000Y-106611474D01*
X191895000Y-94929801D01*
X192712943Y-94111859D01*
X192823574Y-94089853D01*
X193084727Y-93981680D01*
X193319759Y-93824637D01*
X193519637Y-93624759D01*
X193676680Y-93389727D01*
X193784853Y-93128574D01*
X193840000Y-92851335D01*
X193840000Y-92568665D01*
X193784853Y-92291426D01*
X193676680Y-92030273D01*
X193519637Y-91795241D01*
X193319759Y-91595363D01*
X193084727Y-91438320D01*
X192823574Y-91330147D01*
X192546335Y-91275000D01*
X192263665Y-91275000D01*
X191986426Y-91330147D01*
X191725273Y-91438320D01*
X191490241Y-91595363D01*
X191290363Y-91795241D01*
X191135000Y-92027759D01*
X190979637Y-91795241D01*
X190779759Y-91595363D01*
X190544727Y-91438320D01*
X190283574Y-91330147D01*
X190006335Y-91275000D01*
X189723665Y-91275000D01*
X189446426Y-91330147D01*
X189185273Y-91438320D01*
X188950241Y-91595363D01*
X188750363Y-91795241D01*
X188595000Y-92027759D01*
X188439637Y-91795241D01*
X188239759Y-91595363D01*
X188004727Y-91438320D01*
X187743574Y-91330147D01*
X187466335Y-91275000D01*
X187183665Y-91275000D01*
X186906426Y-91330147D01*
X186645273Y-91438320D01*
X186410241Y-91595363D01*
X186210363Y-91795241D01*
X186055000Y-92027759D01*
X185899637Y-91795241D01*
X185699759Y-91595363D01*
X185464727Y-91438320D01*
X185203574Y-91330147D01*
X184926335Y-91275000D01*
X184643665Y-91275000D01*
X184366426Y-91330147D01*
X184105273Y-91438320D01*
X183870241Y-91595363D01*
X183670363Y-91795241D01*
X183515000Y-92027759D01*
X183359637Y-91795241D01*
X183159759Y-91595363D01*
X182924727Y-91438320D01*
X182663574Y-91330147D01*
X182386335Y-91275000D01*
X182103665Y-91275000D01*
X181826426Y-91330147D01*
X181565273Y-91438320D01*
X181330241Y-91595363D01*
X181130363Y-91795241D01*
X180973320Y-92030273D01*
X180968933Y-92040865D01*
X180857385Y-91854869D01*
X180668414Y-91646481D01*
X180442420Y-91478963D01*
X180188087Y-91358754D01*
X180054039Y-91318096D01*
X179832000Y-91440085D01*
X179832000Y-92583000D01*
X179852000Y-92583000D01*
X179852000Y-92837000D01*
X179832000Y-92837000D01*
X179832000Y-93979915D01*
X180054039Y-94101904D01*
X180188087Y-94061246D01*
X180442420Y-93941037D01*
X180668414Y-93773519D01*
X180857385Y-93565131D01*
X180968933Y-93379135D01*
X180973320Y-93389727D01*
X181034263Y-93480935D01*
X180463998Y-94051201D01*
X180435000Y-94074999D01*
X180411202Y-94103997D01*
X180411201Y-94103998D01*
X180340026Y-94190724D01*
X180269454Y-94322754D01*
X180225998Y-94466015D01*
X180211324Y-94615000D01*
X180215001Y-94652333D01*
X180215000Y-106608017D01*
X180123574Y-106570147D01*
X179846335Y-106515000D01*
X179563665Y-106515000D01*
X179286426Y-106570147D01*
X179025273Y-106678320D01*
X178790241Y-106835363D01*
X178590363Y-107035241D01*
X178435000Y-107267759D01*
X178279637Y-107035241D01*
X178079759Y-106835363D01*
X177844727Y-106678320D01*
X177583574Y-106570147D01*
X177306335Y-106515000D01*
X177023665Y-106515000D01*
X176746426Y-106570147D01*
X176655000Y-106608017D01*
X176655000Y-94929801D01*
X177472943Y-94111859D01*
X177583574Y-94089853D01*
X177844727Y-93981680D01*
X178079759Y-93824637D01*
X178279637Y-93624759D01*
X178436680Y-93389727D01*
X178441067Y-93379135D01*
X178552615Y-93565131D01*
X178741586Y-93773519D01*
X178967580Y-93941037D01*
X179221913Y-94061246D01*
X179355961Y-94101904D01*
X179578000Y-93979915D01*
X179578000Y-92837000D01*
X179558000Y-92837000D01*
X179558000Y-92583000D01*
X179578000Y-92583000D01*
X179578000Y-91440085D01*
X179355961Y-91318096D01*
X179221913Y-91358754D01*
X178967580Y-91478963D01*
X178741586Y-91646481D01*
X178552615Y-91854869D01*
X178441067Y-92040865D01*
X178436680Y-92030273D01*
X178279637Y-91795241D01*
X178079759Y-91595363D01*
X177844727Y-91438320D01*
X177583574Y-91330147D01*
X177306335Y-91275000D01*
X177023665Y-91275000D01*
X176746426Y-91330147D01*
X176485273Y-91438320D01*
X176250241Y-91595363D01*
X176050363Y-91795241D01*
X175895000Y-92027759D01*
X175739637Y-91795241D01*
X175539759Y-91595363D01*
X175304727Y-91438320D01*
X175043574Y-91330147D01*
X174766335Y-91275000D01*
X174483665Y-91275000D01*
X174206426Y-91330147D01*
X173945273Y-91438320D01*
X173710241Y-91595363D01*
X173510363Y-91795241D01*
X173355000Y-92027759D01*
X173199637Y-91795241D01*
X172999759Y-91595363D01*
X172764727Y-91438320D01*
X172503574Y-91330147D01*
X172226335Y-91275000D01*
X171943665Y-91275000D01*
X171666426Y-91330147D01*
X171575000Y-91368017D01*
X171575000Y-90207325D01*
X171578676Y-90170000D01*
X171575000Y-90132675D01*
X171575000Y-90132667D01*
X171564003Y-90021014D01*
X171520546Y-89877753D01*
X171449974Y-89745724D01*
X171355001Y-89629999D01*
X171326003Y-89606201D01*
X169564802Y-87845000D01*
X169691260Y-87845000D01*
X169978158Y-87787932D01*
X170248411Y-87675990D01*
X170491632Y-87513475D01*
X170698475Y-87306632D01*
X170860990Y-87063411D01*
X170972932Y-86793158D01*
X171030000Y-86506260D01*
X171030000Y-86213740D01*
X170972932Y-85926842D01*
X170860990Y-85656589D01*
X170698475Y-85413368D01*
X170491632Y-85206525D01*
X170248411Y-85044010D01*
X169978158Y-84932068D01*
X169691260Y-84875000D01*
X169398740Y-84875000D01*
X169178592Y-84918791D01*
X169035000Y-84775199D01*
X169035000Y-81348526D01*
X169061913Y-81361246D01*
X169195961Y-81401904D01*
X169418000Y-81279915D01*
X169418000Y-80137000D01*
X169672000Y-80137000D01*
X169672000Y-81279915D01*
X169894039Y-81401904D01*
X170028087Y-81361246D01*
X170282420Y-81241037D01*
X170508414Y-81073519D01*
X170697385Y-80865131D01*
X170842070Y-80623881D01*
X170936909Y-80359040D01*
X170815624Y-80137000D01*
X169672000Y-80137000D01*
X169418000Y-80137000D01*
X169398000Y-80137000D01*
X169398000Y-79883000D01*
X169418000Y-79883000D01*
X169418000Y-78740085D01*
X169672000Y-78740085D01*
X169672000Y-79883000D01*
X170815624Y-79883000D01*
X170936909Y-79660960D01*
X170842070Y-79396119D01*
X170697385Y-79154869D01*
X170508414Y-78946481D01*
X170282420Y-78778963D01*
X170028087Y-78658754D01*
X169894039Y-78618096D01*
X169672000Y-78740085D01*
X169418000Y-78740085D01*
X169195961Y-78618096D01*
X169061913Y-78658754D01*
X169035000Y-78671474D01*
X169035000Y-77389799D01*
X171181004Y-75243796D01*
X171210002Y-75219998D01*
X171270381Y-75146426D01*
X171304975Y-75104274D01*
X171375547Y-74972244D01*
X171388361Y-74930000D01*
X171419004Y-74828983D01*
X171430001Y-74717330D01*
X171430001Y-74717320D01*
X171433677Y-74679997D01*
X171430001Y-74642674D01*
X171430001Y-71887322D01*
X171433677Y-71849999D01*
X171430001Y-71812676D01*
X171430001Y-71812666D01*
X171419004Y-71701013D01*
X171375547Y-71557752D01*
X171352824Y-71515241D01*
X171304975Y-71425722D01*
X171233800Y-71338996D01*
X171210002Y-71309998D01*
X171181005Y-71286201D01*
X170648804Y-70754001D01*
X170625002Y-70724998D01*
X170509277Y-70630025D01*
X170377248Y-70559453D01*
X170233987Y-70515996D01*
X170122334Y-70504999D01*
X170122323Y-70504999D01*
X170085001Y-70501323D01*
X170047679Y-70504999D01*
X165627326Y-70504999D01*
X165590001Y-70501323D01*
X165552676Y-70504999D01*
X165552668Y-70504999D01*
X165441015Y-70515996D01*
X165297754Y-70559453D01*
X165165725Y-70630025D01*
X165050000Y-70724998D01*
X165026202Y-70753996D01*
X164788886Y-70991312D01*
X164606335Y-70955000D01*
X164323665Y-70955000D01*
X164046426Y-71010147D01*
X163785273Y-71118320D01*
X163550241Y-71275363D01*
X163350363Y-71475241D01*
X163195000Y-71707759D01*
X163039637Y-71475241D01*
X162839759Y-71275363D01*
X162604727Y-71118320D01*
X162343574Y-71010147D01*
X162066335Y-70955000D01*
X161783665Y-70955000D01*
X161506426Y-71010147D01*
X161245273Y-71118320D01*
X161010241Y-71275363D01*
X160810363Y-71475241D01*
X160655000Y-71707759D01*
X160499637Y-71475241D01*
X160299759Y-71275363D01*
X160064727Y-71118320D01*
X159803574Y-71010147D01*
X159526335Y-70955000D01*
X159243665Y-70955000D01*
X158966426Y-71010147D01*
X158705273Y-71118320D01*
X158470241Y-71275363D01*
X158270363Y-71475241D01*
X158115000Y-71707759D01*
X157959637Y-71475241D01*
X157759759Y-71275363D01*
X157524727Y-71118320D01*
X157263574Y-71010147D01*
X156986335Y-70955000D01*
X156703665Y-70955000D01*
X156521114Y-70991312D01*
X153304999Y-67775198D01*
X153304999Y-67145000D01*
X158581928Y-67145000D01*
X158581928Y-68745000D01*
X158594188Y-68869482D01*
X158630498Y-68989180D01*
X158689463Y-69099494D01*
X158768815Y-69196185D01*
X158865506Y-69275537D01*
X158975820Y-69334502D01*
X159095518Y-69370812D01*
X159220000Y-69383072D01*
X160820000Y-69383072D01*
X160944482Y-69370812D01*
X161064180Y-69334502D01*
X161174494Y-69275537D01*
X161271185Y-69196185D01*
X161350537Y-69099494D01*
X161409502Y-68989180D01*
X161445812Y-68869482D01*
X161458072Y-68745000D01*
X161458072Y-67145000D01*
X161445812Y-67020518D01*
X161409502Y-66900820D01*
X161350537Y-66790506D01*
X161271185Y-66693815D01*
X161174494Y-66614463D01*
X161064180Y-66555498D01*
X160944482Y-66519188D01*
X160820000Y-66506928D01*
X159220000Y-66506928D01*
X159095518Y-66519188D01*
X158975820Y-66555498D01*
X158865506Y-66614463D01*
X158768815Y-66693815D01*
X158689463Y-66790506D01*
X158630498Y-66900820D01*
X158594188Y-67020518D01*
X158581928Y-67145000D01*
X153304999Y-67145000D01*
X153304999Y-59807063D01*
X153320961Y-59811904D01*
X153543000Y-59689915D01*
X153543000Y-58547000D01*
X153797000Y-58547000D01*
X153797000Y-59689915D01*
X154019039Y-59811904D01*
X154153087Y-59771246D01*
X154407420Y-59651037D01*
X154633414Y-59483519D01*
X154822385Y-59275131D01*
X154967070Y-59033881D01*
X155061909Y-58769040D01*
X154940624Y-58547000D01*
X153797000Y-58547000D01*
X153543000Y-58547000D01*
X153523000Y-58547000D01*
X153523000Y-58293000D01*
X153543000Y-58293000D01*
X153543000Y-57150085D01*
X153797000Y-57150085D01*
X153797000Y-58293000D01*
X154940624Y-58293000D01*
X155061909Y-58070960D01*
X154967070Y-57806119D01*
X154869642Y-57643665D01*
X158585000Y-57643665D01*
X158585000Y-57926335D01*
X158640147Y-58203574D01*
X158748320Y-58464727D01*
X158905363Y-58699759D01*
X159105241Y-58899637D01*
X159260000Y-59003044D01*
X159260001Y-59106956D01*
X159105241Y-59210363D01*
X158905363Y-59410241D01*
X158748320Y-59645273D01*
X158640147Y-59906426D01*
X158585000Y-60183665D01*
X158585000Y-60466335D01*
X158640147Y-60743574D01*
X158748320Y-61004727D01*
X158905363Y-61239759D01*
X159105241Y-61439637D01*
X159340273Y-61596680D01*
X159601426Y-61704853D01*
X159878665Y-61760000D01*
X160161335Y-61760000D01*
X160438574Y-61704853D01*
X160699727Y-61596680D01*
X160934759Y-61439637D01*
X161134637Y-61239759D01*
X161291680Y-61004727D01*
X161399853Y-60743574D01*
X161455000Y-60466335D01*
X161455000Y-60183665D01*
X161399853Y-59906426D01*
X161291680Y-59645273D01*
X161134637Y-59410241D01*
X160934759Y-59210363D01*
X160780000Y-59106957D01*
X160780000Y-59003043D01*
X160934759Y-58899637D01*
X161134637Y-58699759D01*
X161291680Y-58464727D01*
X161399853Y-58203574D01*
X161455000Y-57926335D01*
X161455000Y-57643665D01*
X161399853Y-57366426D01*
X161291680Y-57105273D01*
X161134637Y-56870241D01*
X160934759Y-56670363D01*
X160699727Y-56513320D01*
X160438574Y-56405147D01*
X160161335Y-56350000D01*
X159878665Y-56350000D01*
X159601426Y-56405147D01*
X159340273Y-56513320D01*
X159105241Y-56670363D01*
X158905363Y-56870241D01*
X158748320Y-57105273D01*
X158640147Y-57366426D01*
X158585000Y-57643665D01*
X154869642Y-57643665D01*
X154822385Y-57564869D01*
X154633414Y-57356481D01*
X154407420Y-57188963D01*
X154153087Y-57068754D01*
X154019039Y-57028096D01*
X153797000Y-57150085D01*
X153543000Y-57150085D01*
X153320961Y-57028096D01*
X153304999Y-57032937D01*
X153304999Y-52239802D01*
X153346113Y-52198688D01*
X153528665Y-52235000D01*
X153811335Y-52235000D01*
X154088574Y-52179853D01*
X154349727Y-52071680D01*
X154584759Y-51914637D01*
X154784637Y-51714759D01*
X154941680Y-51479727D01*
X155049853Y-51218574D01*
X155105000Y-50941335D01*
X155105000Y-50658665D01*
X155049853Y-50381426D01*
X154941680Y-50120273D01*
X154877129Y-50023665D01*
X158585000Y-50023665D01*
X158585000Y-50306335D01*
X158640147Y-50583574D01*
X158748320Y-50844727D01*
X158905363Y-51079759D01*
X159105241Y-51279637D01*
X159340273Y-51436680D01*
X159601426Y-51544853D01*
X159878665Y-51600000D01*
X160161335Y-51600000D01*
X160343887Y-51563688D01*
X162372264Y-53592066D01*
X162258102Y-53614774D01*
X162069744Y-53692795D01*
X161900226Y-53806063D01*
X161756063Y-53950226D01*
X161642795Y-54119744D01*
X161564774Y-54308102D01*
X161525000Y-54508061D01*
X161525000Y-54711939D01*
X161564774Y-54911898D01*
X161642795Y-55100256D01*
X161756063Y-55269774D01*
X161800000Y-55313711D01*
X161800001Y-60922668D01*
X161796324Y-60960000D01*
X161800001Y-60997333D01*
X161807553Y-61074003D01*
X161810998Y-61108985D01*
X161854454Y-61252246D01*
X161925026Y-61384276D01*
X161990441Y-61463983D01*
X162020000Y-61500001D01*
X162048998Y-61523799D01*
X171960000Y-71434802D01*
X171960001Y-76797668D01*
X171956324Y-76835000D01*
X171970998Y-76983985D01*
X172014454Y-77127246D01*
X172085026Y-77259276D01*
X172139175Y-77325256D01*
X172180000Y-77375001D01*
X172208998Y-77398799D01*
X175331200Y-80521002D01*
X175354999Y-80550001D01*
X175383997Y-80573799D01*
X175470723Y-80644974D01*
X175602689Y-80715512D01*
X175602753Y-80715546D01*
X175746014Y-80759003D01*
X175857667Y-80770000D01*
X175857676Y-80770000D01*
X175894999Y-80773676D01*
X175932322Y-80770000D01*
X178266928Y-80770000D01*
X178266928Y-80810000D01*
X178279188Y-80934482D01*
X178315498Y-81054180D01*
X178374463Y-81164494D01*
X178453815Y-81261185D01*
X178550506Y-81340537D01*
X178660820Y-81399502D01*
X178780518Y-81435812D01*
X178905000Y-81448072D01*
X180505000Y-81448072D01*
X180629482Y-81435812D01*
X180749180Y-81399502D01*
X180859494Y-81340537D01*
X180956185Y-81261185D01*
X181035537Y-81164494D01*
X181094502Y-81054180D01*
X181130812Y-80934482D01*
X181131643Y-80926039D01*
X181330241Y-81124637D01*
X181565273Y-81281680D01*
X181826426Y-81389853D01*
X182103665Y-81445000D01*
X182386335Y-81445000D01*
X182663574Y-81389853D01*
X182924727Y-81281680D01*
X183159759Y-81124637D01*
X183359637Y-80924759D01*
X183515000Y-80692241D01*
X183670363Y-80924759D01*
X183870241Y-81124637D01*
X184105273Y-81281680D01*
X184366426Y-81389853D01*
X184643665Y-81445000D01*
X184926335Y-81445000D01*
X185203574Y-81389853D01*
X185464727Y-81281680D01*
X185699759Y-81124637D01*
X185899637Y-80924759D01*
X186056680Y-80689727D01*
X186061067Y-80679135D01*
X186172615Y-80865131D01*
X186361586Y-81073519D01*
X186587580Y-81241037D01*
X186841913Y-81361246D01*
X186975961Y-81401904D01*
X187198000Y-81279915D01*
X187198000Y-80137000D01*
X187452000Y-80137000D01*
X187452000Y-81279915D01*
X187674039Y-81401904D01*
X187808087Y-81361246D01*
X188062420Y-81241037D01*
X188288414Y-81073519D01*
X188477385Y-80865131D01*
X188595000Y-80669018D01*
X188712615Y-80865131D01*
X188901586Y-81073519D01*
X189127580Y-81241037D01*
X189381913Y-81361246D01*
X189515961Y-81401904D01*
X189738000Y-81279915D01*
X189738000Y-80137000D01*
X187452000Y-80137000D01*
X187198000Y-80137000D01*
X187178000Y-80137000D01*
X187178000Y-79883000D01*
X187198000Y-79883000D01*
X187198000Y-78740085D01*
X187452000Y-78740085D01*
X187452000Y-79883000D01*
X189738000Y-79883000D01*
X189738000Y-78740085D01*
X189992000Y-78740085D01*
X189992000Y-79883000D01*
X190012000Y-79883000D01*
X190012000Y-80137000D01*
X189992000Y-80137000D01*
X189992000Y-81279915D01*
X190214039Y-81401904D01*
X190348087Y-81361246D01*
X190602420Y-81241037D01*
X190828414Y-81073519D01*
X191017385Y-80865131D01*
X191128933Y-80679135D01*
X191133320Y-80689727D01*
X191290363Y-80924759D01*
X191490241Y-81124637D01*
X191725273Y-81281680D01*
X191986426Y-81389853D01*
X192263665Y-81445000D01*
X192546335Y-81445000D01*
X192823574Y-81389853D01*
X193084727Y-81281680D01*
X193319759Y-81124637D01*
X193519637Y-80924759D01*
X193676680Y-80689727D01*
X193681067Y-80679135D01*
X193792615Y-80865131D01*
X193981586Y-81073519D01*
X194207580Y-81241037D01*
X194461913Y-81361246D01*
X194595961Y-81401904D01*
X194818000Y-81279915D01*
X194818000Y-80137000D01*
X195072000Y-80137000D01*
X195072000Y-81279915D01*
X195294039Y-81401904D01*
X195428087Y-81361246D01*
X195682420Y-81241037D01*
X195908414Y-81073519D01*
X196097385Y-80865131D01*
X196242070Y-80623881D01*
X196336909Y-80359040D01*
X196215624Y-80137000D01*
X195072000Y-80137000D01*
X194818000Y-80137000D01*
X194798000Y-80137000D01*
X194798000Y-79883000D01*
X194818000Y-79883000D01*
X194818000Y-78740085D01*
X195072000Y-78740085D01*
X195072000Y-79883000D01*
X196215624Y-79883000D01*
X196336909Y-79660960D01*
X196242070Y-79396119D01*
X196097385Y-79154869D01*
X195908414Y-78946481D01*
X195682420Y-78778963D01*
X195428087Y-78658754D01*
X195294039Y-78618096D01*
X195072000Y-78740085D01*
X194818000Y-78740085D01*
X194595961Y-78618096D01*
X194461913Y-78658754D01*
X194207580Y-78778963D01*
X193981586Y-78946481D01*
X193792615Y-79154869D01*
X193681067Y-79340865D01*
X193676680Y-79330273D01*
X193519637Y-79095241D01*
X193319759Y-78895363D01*
X193084727Y-78738320D01*
X192823574Y-78630147D01*
X192546335Y-78575000D01*
X192263665Y-78575000D01*
X191986426Y-78630147D01*
X191725273Y-78738320D01*
X191490241Y-78895363D01*
X191290363Y-79095241D01*
X191133320Y-79330273D01*
X191128933Y-79340865D01*
X191017385Y-79154869D01*
X190828414Y-78946481D01*
X190602420Y-78778963D01*
X190348087Y-78658754D01*
X190214039Y-78618096D01*
X189992000Y-78740085D01*
X189738000Y-78740085D01*
X189515961Y-78618096D01*
X189381913Y-78658754D01*
X189127580Y-78778963D01*
X188901586Y-78946481D01*
X188712615Y-79154869D01*
X188595000Y-79350982D01*
X188477385Y-79154869D01*
X188288414Y-78946481D01*
X188062420Y-78778963D01*
X187808087Y-78658754D01*
X187674039Y-78618096D01*
X187452000Y-78740085D01*
X187198000Y-78740085D01*
X186975961Y-78618096D01*
X186841913Y-78658754D01*
X186587580Y-78778963D01*
X186361586Y-78946481D01*
X186172615Y-79154869D01*
X186061067Y-79340865D01*
X186056680Y-79330273D01*
X185899637Y-79095241D01*
X185699759Y-78895363D01*
X185464727Y-78738320D01*
X185203574Y-78630147D01*
X184926335Y-78575000D01*
X184643665Y-78575000D01*
X184366426Y-78630147D01*
X184105273Y-78738320D01*
X183870241Y-78895363D01*
X183670363Y-79095241D01*
X183515000Y-79327759D01*
X183359637Y-79095241D01*
X183159759Y-78895363D01*
X182924727Y-78738320D01*
X182663574Y-78630147D01*
X182386335Y-78575000D01*
X182103665Y-78575000D01*
X181826426Y-78630147D01*
X181565273Y-78738320D01*
X181330241Y-78895363D01*
X181131643Y-79093961D01*
X181130812Y-79085518D01*
X181094502Y-78965820D01*
X181035537Y-78855506D01*
X180956185Y-78758815D01*
X180859494Y-78679463D01*
X180749180Y-78620498D01*
X180629482Y-78584188D01*
X180505000Y-78571928D01*
X178905000Y-78571928D01*
X178780518Y-78584188D01*
X178660820Y-78620498D01*
X178550506Y-78679463D01*
X178453815Y-78758815D01*
X178374463Y-78855506D01*
X178315498Y-78965820D01*
X178279188Y-79085518D01*
X178266928Y-79210000D01*
X178266928Y-79250000D01*
X176209802Y-79250000D01*
X173480000Y-76520199D01*
X173480000Y-75000512D01*
X173819783Y-75000512D01*
X173861213Y-75280130D01*
X173863000Y-75285127D01*
X173863000Y-76200000D01*
X173865440Y-76224776D01*
X173872667Y-76248601D01*
X173884403Y-76270557D01*
X173900197Y-76289803D01*
X173919443Y-76305597D01*
X173941399Y-76317333D01*
X173965224Y-76324560D01*
X173990000Y-76327000D01*
X174931294Y-76327000D01*
X175048184Y-76356300D01*
X175330512Y-76370217D01*
X175610130Y-76328787D01*
X175615127Y-76327000D01*
X176530000Y-76327000D01*
X176554776Y-76324560D01*
X176578601Y-76317333D01*
X176600557Y-76305597D01*
X176619803Y-76289803D01*
X176635597Y-76270557D01*
X176647333Y-76248601D01*
X176654560Y-76224776D01*
X176657000Y-76200000D01*
X176657000Y-75258706D01*
X176686300Y-75141816D01*
X176700217Y-74859488D01*
X176658787Y-74579870D01*
X176657000Y-74574873D01*
X176657000Y-73190000D01*
X178513684Y-73190000D01*
X178590363Y-73304759D01*
X178790241Y-73504637D01*
X179025273Y-73661680D01*
X179286426Y-73769853D01*
X179563665Y-73825000D01*
X179846335Y-73825000D01*
X180123574Y-73769853D01*
X180384727Y-73661680D01*
X180619759Y-73504637D01*
X180819637Y-73304759D01*
X180976680Y-73069727D01*
X180981067Y-73059135D01*
X181092615Y-73245131D01*
X181281586Y-73453519D01*
X181507580Y-73621037D01*
X181761913Y-73741246D01*
X181895961Y-73781904D01*
X182118000Y-73659915D01*
X182118000Y-72517000D01*
X182372000Y-72517000D01*
X182372000Y-73659915D01*
X182594039Y-73781904D01*
X182728087Y-73741246D01*
X182982420Y-73621037D01*
X183208414Y-73453519D01*
X183397385Y-73245131D01*
X183515000Y-73049018D01*
X183632615Y-73245131D01*
X183821586Y-73453519D01*
X184047580Y-73621037D01*
X184301913Y-73741246D01*
X184435961Y-73781904D01*
X184658000Y-73659915D01*
X184658000Y-72517000D01*
X182372000Y-72517000D01*
X182118000Y-72517000D01*
X182098000Y-72517000D01*
X182098000Y-72263000D01*
X182118000Y-72263000D01*
X182118000Y-71120085D01*
X182372000Y-71120085D01*
X182372000Y-72263000D01*
X184658000Y-72263000D01*
X184658000Y-71120085D01*
X184912000Y-71120085D01*
X184912000Y-72263000D01*
X184932000Y-72263000D01*
X184932000Y-72517000D01*
X184912000Y-72517000D01*
X184912000Y-73659915D01*
X185134039Y-73781904D01*
X185268087Y-73741246D01*
X185522420Y-73621037D01*
X185748414Y-73453519D01*
X185937385Y-73245131D01*
X186048933Y-73059135D01*
X186053320Y-73069727D01*
X186210363Y-73304759D01*
X186410241Y-73504637D01*
X186645273Y-73661680D01*
X186906426Y-73769853D01*
X187183665Y-73825000D01*
X187466335Y-73825000D01*
X187743574Y-73769853D01*
X188004727Y-73661680D01*
X188239759Y-73504637D01*
X188439637Y-73304759D01*
X188596680Y-73069727D01*
X188601067Y-73059135D01*
X188712615Y-73245131D01*
X188901586Y-73453519D01*
X189127580Y-73621037D01*
X189381913Y-73741246D01*
X189515961Y-73781904D01*
X189738000Y-73659915D01*
X189738000Y-72517000D01*
X189992000Y-72517000D01*
X189992000Y-73659915D01*
X190214039Y-73781904D01*
X190348087Y-73741246D01*
X190602420Y-73621037D01*
X190828414Y-73453519D01*
X191017385Y-73245131D01*
X191135000Y-73049018D01*
X191252615Y-73245131D01*
X191441586Y-73453519D01*
X191667580Y-73621037D01*
X191921913Y-73741246D01*
X192055961Y-73781904D01*
X192278000Y-73659915D01*
X192278000Y-72517000D01*
X189992000Y-72517000D01*
X189738000Y-72517000D01*
X189718000Y-72517000D01*
X189718000Y-72263000D01*
X189738000Y-72263000D01*
X189738000Y-71120085D01*
X189992000Y-71120085D01*
X189992000Y-72263000D01*
X192278000Y-72263000D01*
X192278000Y-71120085D01*
X192532000Y-71120085D01*
X192532000Y-72263000D01*
X192552000Y-72263000D01*
X192552000Y-72517000D01*
X192532000Y-72517000D01*
X192532000Y-73659915D01*
X192754039Y-73781904D01*
X192888087Y-73741246D01*
X193142420Y-73621037D01*
X193368414Y-73453519D01*
X193557385Y-73245131D01*
X193668933Y-73059135D01*
X193673320Y-73069727D01*
X193830363Y-73304759D01*
X194030241Y-73504637D01*
X194265273Y-73661680D01*
X194526426Y-73769853D01*
X194803665Y-73825000D01*
X195086335Y-73825000D01*
X195363574Y-73769853D01*
X195624727Y-73661680D01*
X195859759Y-73504637D01*
X196059637Y-73304759D01*
X196216680Y-73069727D01*
X196324853Y-72808574D01*
X196380000Y-72531335D01*
X196380000Y-72248665D01*
X196324853Y-71971426D01*
X196216680Y-71710273D01*
X196059637Y-71475241D01*
X195859759Y-71275363D01*
X195624727Y-71118320D01*
X195363574Y-71010147D01*
X195086335Y-70955000D01*
X194803665Y-70955000D01*
X194526426Y-71010147D01*
X194265273Y-71118320D01*
X194030241Y-71275363D01*
X193830363Y-71475241D01*
X193673320Y-71710273D01*
X193668933Y-71720865D01*
X193557385Y-71534869D01*
X193368414Y-71326481D01*
X193142420Y-71158963D01*
X192888087Y-71038754D01*
X192754039Y-70998096D01*
X192532000Y-71120085D01*
X192278000Y-71120085D01*
X192055961Y-70998096D01*
X191921913Y-71038754D01*
X191667580Y-71158963D01*
X191441586Y-71326481D01*
X191252615Y-71534869D01*
X191135000Y-71730982D01*
X191017385Y-71534869D01*
X190828414Y-71326481D01*
X190602420Y-71158963D01*
X190348087Y-71038754D01*
X190214039Y-70998096D01*
X189992000Y-71120085D01*
X189738000Y-71120085D01*
X189515961Y-70998096D01*
X189381913Y-71038754D01*
X189127580Y-71158963D01*
X188901586Y-71326481D01*
X188712615Y-71534869D01*
X188601067Y-71720865D01*
X188596680Y-71710273D01*
X188439637Y-71475241D01*
X188239759Y-71275363D01*
X188004727Y-71118320D01*
X187743574Y-71010147D01*
X187466335Y-70955000D01*
X187183665Y-70955000D01*
X186906426Y-71010147D01*
X186645273Y-71118320D01*
X186410241Y-71275363D01*
X186210363Y-71475241D01*
X186053320Y-71710273D01*
X186048933Y-71720865D01*
X185937385Y-71534869D01*
X185748414Y-71326481D01*
X185522420Y-71158963D01*
X185268087Y-71038754D01*
X185134039Y-70998096D01*
X184912000Y-71120085D01*
X184658000Y-71120085D01*
X184435961Y-70998096D01*
X184301913Y-71038754D01*
X184047580Y-71158963D01*
X183821586Y-71326481D01*
X183632615Y-71534869D01*
X183515000Y-71730982D01*
X183397385Y-71534869D01*
X183208414Y-71326481D01*
X182982420Y-71158963D01*
X182728087Y-71038754D01*
X182594039Y-70998096D01*
X182372000Y-71120085D01*
X182118000Y-71120085D01*
X181895961Y-70998096D01*
X181761913Y-71038754D01*
X181507580Y-71158963D01*
X181281586Y-71326481D01*
X181092615Y-71534869D01*
X180981067Y-71720865D01*
X180976680Y-71710273D01*
X180819637Y-71475241D01*
X180619759Y-71275363D01*
X180384727Y-71118320D01*
X180123574Y-71010147D01*
X179846335Y-70955000D01*
X179563665Y-70955000D01*
X179286426Y-71010147D01*
X179025273Y-71118320D01*
X178790241Y-71275363D01*
X178590363Y-71475241D01*
X178460229Y-71670000D01*
X176657000Y-71670000D01*
X176657000Y-71120000D01*
X176654560Y-71095224D01*
X176647333Y-71071399D01*
X176635597Y-71049443D01*
X176619803Y-71030197D01*
X176600557Y-71014403D01*
X176578601Y-71002667D01*
X176554776Y-70995440D01*
X176530000Y-70993000D01*
X173990000Y-70993000D01*
X173965224Y-70995440D01*
X173941399Y-71002667D01*
X173919443Y-71014403D01*
X173900197Y-71030197D01*
X173884403Y-71049443D01*
X173872667Y-71071399D01*
X173865440Y-71095224D01*
X173863000Y-71120000D01*
X173863000Y-72097629D01*
X173825000Y-72288665D01*
X173825000Y-72571335D01*
X173863000Y-72762371D01*
X173863000Y-74601294D01*
X173833700Y-74718184D01*
X173819783Y-75000512D01*
X173480000Y-75000512D01*
X173480000Y-71157325D01*
X173483676Y-71120000D01*
X173480000Y-71082675D01*
X173480000Y-71082667D01*
X173469003Y-70971014D01*
X173425546Y-70827753D01*
X173354974Y-70695724D01*
X173260001Y-70579999D01*
X173231004Y-70556202D01*
X163320000Y-60645199D01*
X163320000Y-55313711D01*
X163363937Y-55269774D01*
X163477205Y-55100256D01*
X163555226Y-54911898D01*
X163577934Y-54797736D01*
X164168743Y-55388544D01*
X164145820Y-55395498D01*
X164035506Y-55454463D01*
X163938815Y-55533815D01*
X163859463Y-55630506D01*
X163800498Y-55740820D01*
X163764188Y-55860518D01*
X163751928Y-55985000D01*
X163751928Y-59585000D01*
X163764188Y-59709482D01*
X163800498Y-59829180D01*
X163859463Y-59939494D01*
X163938815Y-60036185D01*
X164035506Y-60115537D01*
X164145820Y-60174502D01*
X164265518Y-60210812D01*
X164390000Y-60223072D01*
X166990000Y-60223072D01*
X167114482Y-60210812D01*
X167234180Y-60174502D01*
X167344494Y-60115537D01*
X167441185Y-60036185D01*
X167520537Y-59939494D01*
X167579502Y-59829180D01*
X167615812Y-59709482D01*
X167628072Y-59585000D01*
X193051928Y-59585000D01*
X193064188Y-59709482D01*
X193100498Y-59829180D01*
X193159463Y-59939494D01*
X193238815Y-60036185D01*
X193335506Y-60115537D01*
X193445820Y-60174502D01*
X193565518Y-60210812D01*
X193690000Y-60223072D01*
X194704250Y-60220000D01*
X194863000Y-60061250D01*
X194863000Y-57912000D01*
X195117000Y-57912000D01*
X195117000Y-60061250D01*
X195275750Y-60220000D01*
X196290000Y-60223072D01*
X196414482Y-60210812D01*
X196534180Y-60174502D01*
X196644494Y-60115537D01*
X196741185Y-60036185D01*
X196820537Y-59939494D01*
X196879502Y-59829180D01*
X196915812Y-59709482D01*
X196928072Y-59585000D01*
X196925000Y-58070750D01*
X196766250Y-57912000D01*
X195117000Y-57912000D01*
X194863000Y-57912000D01*
X193213750Y-57912000D01*
X193055000Y-58070750D01*
X193051928Y-59585000D01*
X167628072Y-59585000D01*
X167628072Y-55985000D01*
X193051928Y-55985000D01*
X193055000Y-57499250D01*
X193213750Y-57658000D01*
X194863000Y-57658000D01*
X194863000Y-55508750D01*
X195117000Y-55508750D01*
X195117000Y-57658000D01*
X196766250Y-57658000D01*
X196925000Y-57499250D01*
X196928072Y-55985000D01*
X196915812Y-55860518D01*
X196879502Y-55740820D01*
X196820537Y-55630506D01*
X196741185Y-55533815D01*
X196644494Y-55454463D01*
X196534180Y-55395498D01*
X196414482Y-55359188D01*
X196290000Y-55346928D01*
X195275750Y-55350000D01*
X195117000Y-55508750D01*
X194863000Y-55508750D01*
X194704250Y-55350000D01*
X193690000Y-55346928D01*
X193565518Y-55359188D01*
X193445820Y-55395498D01*
X193335506Y-55454463D01*
X193238815Y-55533815D01*
X193159463Y-55630506D01*
X193100498Y-55740820D01*
X193064188Y-55860518D01*
X193051928Y-55985000D01*
X167628072Y-55985000D01*
X167615812Y-55860518D01*
X167579502Y-55740820D01*
X167520537Y-55630506D01*
X167441185Y-55533815D01*
X167344494Y-55454463D01*
X167234180Y-55395498D01*
X167114482Y-55359188D01*
X166990000Y-55346928D01*
X166272618Y-55346928D01*
X166253799Y-55323997D01*
X166230001Y-55294999D01*
X166201003Y-55271201D01*
X161418688Y-50488887D01*
X161455000Y-50306335D01*
X161455000Y-50023665D01*
X161399853Y-49746426D01*
X161291680Y-49485273D01*
X161134637Y-49250241D01*
X160934759Y-49050363D01*
X160699727Y-48893320D01*
X160438574Y-48785147D01*
X160161335Y-48730000D01*
X159878665Y-48730000D01*
X159601426Y-48785147D01*
X159340273Y-48893320D01*
X159105241Y-49050363D01*
X158905363Y-49250241D01*
X158748320Y-49485273D01*
X158640147Y-49746426D01*
X158585000Y-50023665D01*
X154877129Y-50023665D01*
X154784637Y-49885241D01*
X154584759Y-49685363D01*
X154349727Y-49528320D01*
X154088574Y-49420147D01*
X153811335Y-49365000D01*
X153528665Y-49365000D01*
X153251426Y-49420147D01*
X152990273Y-49528320D01*
X152755241Y-49685363D01*
X152555363Y-49885241D01*
X152400000Y-50117759D01*
X152244637Y-49885241D01*
X152044759Y-49685363D01*
X151809727Y-49528320D01*
X151548574Y-49420147D01*
X151271335Y-49365000D01*
X150988665Y-49365000D01*
X150711426Y-49420147D01*
X150450273Y-49528320D01*
X150215241Y-49685363D01*
X150015363Y-49885241D01*
X149860000Y-50117759D01*
X149704637Y-49885241D01*
X149504759Y-49685363D01*
X149269727Y-49528320D01*
X149008574Y-49420147D01*
X148731335Y-49365000D01*
X148448665Y-49365000D01*
X148171426Y-49420147D01*
X147910273Y-49528320D01*
X147675241Y-49685363D01*
X147475363Y-49885241D01*
X147320000Y-50117759D01*
X147164637Y-49885241D01*
X146964759Y-49685363D01*
X146729727Y-49528320D01*
X146468574Y-49420147D01*
X146191335Y-49365000D01*
X145908665Y-49365000D01*
X145631426Y-49420147D01*
X145370273Y-49528320D01*
X145135241Y-49685363D01*
X144935363Y-49885241D01*
X144780000Y-50117759D01*
X144624637Y-49885241D01*
X144424759Y-49685363D01*
X144189727Y-49528320D01*
X143928574Y-49420147D01*
X143651335Y-49365000D01*
X143368665Y-49365000D01*
X143091426Y-49420147D01*
X142830273Y-49528320D01*
X142595241Y-49685363D01*
X142395363Y-49885241D01*
X142240000Y-50117759D01*
X142084637Y-49885241D01*
X141884759Y-49685363D01*
X141649727Y-49528320D01*
X141388574Y-49420147D01*
X141111335Y-49365000D01*
X140828665Y-49365000D01*
X140551426Y-49420147D01*
X140290273Y-49528320D01*
X140055241Y-49685363D01*
X139855363Y-49885241D01*
X139700000Y-50117759D01*
X139544637Y-49885241D01*
X139344759Y-49685363D01*
X139109727Y-49528320D01*
X138848574Y-49420147D01*
X138571335Y-49365000D01*
X138288665Y-49365000D01*
X138011426Y-49420147D01*
X137750273Y-49528320D01*
X137515241Y-49685363D01*
X137315363Y-49885241D01*
X137160000Y-50117759D01*
X137004637Y-49885241D01*
X136804759Y-49685363D01*
X136569727Y-49528320D01*
X136308574Y-49420147D01*
X136031335Y-49365000D01*
X135748665Y-49365000D01*
X135471426Y-49420147D01*
X135210273Y-49528320D01*
X134975241Y-49685363D01*
X134775363Y-49885241D01*
X134620000Y-50117759D01*
X134464637Y-49885241D01*
X134264759Y-49685363D01*
X134029727Y-49528320D01*
X133768574Y-49420147D01*
X133491335Y-49365000D01*
X133208665Y-49365000D01*
X132931426Y-49420147D01*
X132670273Y-49528320D01*
X132435241Y-49685363D01*
X132235363Y-49885241D01*
X132080000Y-50117759D01*
X131924637Y-49885241D01*
X131724759Y-49685363D01*
X131489727Y-49528320D01*
X131228574Y-49420147D01*
X130951335Y-49365000D01*
X130668665Y-49365000D01*
X130391426Y-49420147D01*
X130130273Y-49528320D01*
X129895241Y-49685363D01*
X129695363Y-49885241D01*
X129591957Y-50040000D01*
X127762000Y-50040000D01*
X127762000Y-49530000D01*
X127759560Y-49505224D01*
X127752333Y-49481399D01*
X127740597Y-49459443D01*
X127724803Y-49440197D01*
X127705557Y-49424403D01*
X127683601Y-49412667D01*
X127659776Y-49405440D01*
X127635000Y-49403000D01*
X126697371Y-49403000D01*
X126506335Y-49365000D01*
X126223665Y-49365000D01*
X126032629Y-49403000D01*
X125095000Y-49403000D01*
X125070224Y-49405440D01*
X125046399Y-49412667D01*
X125024443Y-49424403D01*
X125005197Y-49440197D01*
X124989403Y-49459443D01*
X124977667Y-49481399D01*
X124970440Y-49505224D01*
X124968000Y-49530000D01*
X124968000Y-50467629D01*
X124930000Y-50658665D01*
X124930000Y-50941335D01*
X124968000Y-51132371D01*
X124968000Y-52971294D01*
X124938700Y-53088184D01*
X124924783Y-53370512D01*
X124966213Y-53650130D01*
X124968000Y-53655127D01*
X124968000Y-54610000D01*
X124970440Y-54634776D01*
X124977667Y-54658601D01*
X124989403Y-54680557D01*
X125005197Y-54699803D01*
X125024443Y-54715597D01*
X125046399Y-54727333D01*
X125070224Y-54734560D01*
X125095000Y-54737000D01*
X126370250Y-54737000D01*
X126430241Y-54739957D01*
X123150199Y-58020000D01*
X123088061Y-58020000D01*
X122888102Y-58059774D01*
X122699744Y-58137795D01*
X122530226Y-58251063D01*
X122386063Y-58395226D01*
X122272795Y-58564744D01*
X122194774Y-58753102D01*
X122155000Y-58953061D01*
X122155000Y-59156939D01*
X122194774Y-59356898D01*
X122272795Y-59545256D01*
X122386063Y-59714774D01*
X122530226Y-59858937D01*
X122699744Y-59972205D01*
X122888102Y-60050226D01*
X123088061Y-60090000D01*
X123291939Y-60090000D01*
X123458039Y-60056961D01*
X123425000Y-60223061D01*
X123425000Y-60426939D01*
X123464774Y-60626898D01*
X123542795Y-60815256D01*
X123656063Y-60984774D01*
X123800226Y-61128937D01*
X123969744Y-61242205D01*
X124158102Y-61320226D01*
X124358061Y-61360000D01*
X124561939Y-61360000D01*
X124695000Y-61333533D01*
X124695000Y-61416937D01*
X124734774Y-61616896D01*
X124812795Y-61805254D01*
X124926063Y-61974772D01*
X125070226Y-62118935D01*
X125239744Y-62232203D01*
X125428102Y-62310224D01*
X125628061Y-62349998D01*
X125831939Y-62349998D01*
X126031898Y-62310224D01*
X126220256Y-62232203D01*
X126389774Y-62118935D01*
X126533937Y-61974772D01*
X126647205Y-61805254D01*
X126725226Y-61616896D01*
X126765000Y-61416937D01*
X126765000Y-61354799D01*
X129374765Y-58745034D01*
X129371928Y-59220000D01*
X129384188Y-59344482D01*
X129420498Y-59464180D01*
X129479463Y-59574494D01*
X129558815Y-59671185D01*
X129655506Y-59750537D01*
X129765820Y-59809502D01*
X129885518Y-59845812D01*
X130010000Y-59858072D01*
X130524250Y-59855000D01*
X130683000Y-59696250D01*
X130683000Y-58547000D01*
X130663000Y-58547000D01*
X130663000Y-58293000D01*
X130683000Y-58293000D01*
X130683000Y-58273000D01*
X130937000Y-58273000D01*
X130937000Y-58293000D01*
X130957000Y-58293000D01*
X130957000Y-58547000D01*
X130937000Y-58547000D01*
X130937000Y-59696250D01*
X131095750Y-59855000D01*
X131610000Y-59858072D01*
X131734482Y-59845812D01*
X131854180Y-59809502D01*
X131964494Y-59750537D01*
X132061185Y-59671185D01*
X132140537Y-59574494D01*
X132199502Y-59464180D01*
X132235812Y-59344482D01*
X132236643Y-59336039D01*
X132435241Y-59534637D01*
X132590001Y-59638044D01*
X132590000Y-65090198D01*
X131137058Y-66543141D01*
X131026426Y-66565147D01*
X130765273Y-66673320D01*
X130530241Y-66830363D01*
X130330363Y-67030241D01*
X130175000Y-67262759D01*
X130019637Y-67030241D01*
X129819759Y-66830363D01*
X129584727Y-66673320D01*
X129323574Y-66565147D01*
X129046335Y-66510000D01*
X128763665Y-66510000D01*
X128486426Y-66565147D01*
X128225273Y-66673320D01*
X127990241Y-66830363D01*
X127790363Y-67030241D01*
X127633320Y-67265273D01*
X127628933Y-67275865D01*
X127517385Y-67089869D01*
X127328414Y-66881481D01*
X127102420Y-66713963D01*
X126848087Y-66593754D01*
X126714039Y-66553096D01*
X126492000Y-66675085D01*
X126492000Y-67818000D01*
X126512000Y-67818000D01*
X126512000Y-68072000D01*
X126492000Y-68072000D01*
X126492000Y-68092000D01*
X126238000Y-68092000D01*
X126238000Y-68072000D01*
X126218000Y-68072000D01*
X126218000Y-67818000D01*
X126238000Y-67818000D01*
X126238000Y-66675085D01*
X126015961Y-66553096D01*
X125881913Y-66593754D01*
X125627580Y-66713963D01*
X125596674Y-66736872D01*
X118573929Y-59714128D01*
X118618000Y-59689915D01*
X118618000Y-58547000D01*
X118872000Y-58547000D01*
X118872000Y-59689915D01*
X119094039Y-59811904D01*
X119228087Y-59771246D01*
X119482420Y-59651037D01*
X119708414Y-59483519D01*
X119897385Y-59275131D01*
X120042070Y-59033881D01*
X120136909Y-58769040D01*
X120015624Y-58547000D01*
X118872000Y-58547000D01*
X118618000Y-58547000D01*
X118598000Y-58547000D01*
X118598000Y-58293000D01*
X118618000Y-58293000D01*
X118618000Y-57150085D01*
X118872000Y-57150085D01*
X118872000Y-58293000D01*
X120015624Y-58293000D01*
X120136909Y-58070960D01*
X120042070Y-57806119D01*
X119897385Y-57564869D01*
X119708414Y-57356481D01*
X119482420Y-57188963D01*
X119228087Y-57068754D01*
X119094039Y-57028096D01*
X118872000Y-57150085D01*
X118618000Y-57150085D01*
X118395961Y-57028096D01*
X118261913Y-57068754D01*
X118007580Y-57188963D01*
X117781586Y-57356481D01*
X117592615Y-57564869D01*
X117481067Y-57750865D01*
X117476680Y-57740273D01*
X117319637Y-57505241D01*
X117119759Y-57305363D01*
X116884727Y-57148320D01*
X116623574Y-57040147D01*
X116346335Y-56985000D01*
X116063665Y-56985000D01*
X115786426Y-57040147D01*
X115695000Y-57078017D01*
X115695000Y-54924801D01*
X118421114Y-52198688D01*
X118603665Y-52235000D01*
X118886335Y-52235000D01*
X119163574Y-52179853D01*
X119424727Y-52071680D01*
X119659759Y-51914637D01*
X119859637Y-51714759D01*
X120016680Y-51479727D01*
X120124853Y-51218574D01*
X120180000Y-50941335D01*
X120180000Y-50658665D01*
X120124853Y-50381426D01*
X120016680Y-50120273D01*
X119859637Y-49885241D01*
X119659759Y-49685363D01*
X119424727Y-49528320D01*
X119163574Y-49420147D01*
X118886335Y-49365000D01*
X118603665Y-49365000D01*
X118326426Y-49420147D01*
X118065273Y-49528320D01*
X117830241Y-49685363D01*
X117630363Y-49885241D01*
X117475000Y-50117759D01*
X117319637Y-49885241D01*
X117119759Y-49685363D01*
X116884727Y-49528320D01*
X116623574Y-49420147D01*
X116346335Y-49365000D01*
X116063665Y-49365000D01*
X115786426Y-49420147D01*
X115525273Y-49528320D01*
X115290241Y-49685363D01*
X115090363Y-49885241D01*
X114935000Y-50117759D01*
X114779637Y-49885241D01*
X114579759Y-49685363D01*
X114344727Y-49528320D01*
X114083574Y-49420147D01*
X113806335Y-49365000D01*
X113523665Y-49365000D01*
X113246426Y-49420147D01*
X112985273Y-49528320D01*
X112750241Y-49685363D01*
X112550363Y-49885241D01*
X112395000Y-50117759D01*
X112239637Y-49885241D01*
X112039759Y-49685363D01*
X111804727Y-49528320D01*
X111543574Y-49420147D01*
X111266335Y-49365000D01*
X110983665Y-49365000D01*
X110706426Y-49420147D01*
X110445273Y-49528320D01*
X110210241Y-49685363D01*
X110010363Y-49885241D01*
X109855000Y-50117759D01*
X109699637Y-49885241D01*
X109499759Y-49685363D01*
X109264727Y-49528320D01*
X109003574Y-49420147D01*
X108726335Y-49365000D01*
X108443665Y-49365000D01*
X108166426Y-49420147D01*
X107905273Y-49528320D01*
X107670241Y-49685363D01*
X107470363Y-49885241D01*
X107315000Y-50117759D01*
X107159637Y-49885241D01*
X106959759Y-49685363D01*
X106724727Y-49528320D01*
X106463574Y-49420147D01*
X106186335Y-49365000D01*
X105903665Y-49365000D01*
X105626426Y-49420147D01*
X105365273Y-49528320D01*
X105130241Y-49685363D01*
X104930363Y-49885241D01*
X104775000Y-50117759D01*
X104619637Y-49885241D01*
X104419759Y-49685363D01*
X104184727Y-49528320D01*
X103923574Y-49420147D01*
X103646335Y-49365000D01*
X103363665Y-49365000D01*
X103086426Y-49420147D01*
X102825273Y-49528320D01*
X102590241Y-49685363D01*
X102390363Y-49885241D01*
X102260229Y-50080000D01*
X100457000Y-50080000D01*
X100457000Y-49530000D01*
X100454560Y-49505224D01*
X100447333Y-49481399D01*
X100435597Y-49459443D01*
X100419803Y-49440197D01*
X100400557Y-49424403D01*
X100378601Y-49412667D01*
X100354776Y-49405440D01*
X100330000Y-49403000D01*
X97790000Y-49403000D01*
X97765224Y-49405440D01*
X97741399Y-49412667D01*
X97719443Y-49424403D01*
X97700197Y-49440197D01*
X97684403Y-49459443D01*
X97672667Y-49481399D01*
X97665440Y-49505224D01*
X97663000Y-49530000D01*
X97663000Y-50507629D01*
X97625000Y-50698665D01*
X97625000Y-50981335D01*
X97663000Y-51172371D01*
X97663000Y-53011294D01*
X97633700Y-53128184D01*
X97619783Y-53410512D01*
X97661213Y-53690130D01*
X97663000Y-53695127D01*
X97663000Y-54610000D01*
X97665440Y-54634776D01*
X97672667Y-54658601D01*
X97684403Y-54680557D01*
X97700197Y-54699803D01*
X97719443Y-54715597D01*
X97741399Y-54727333D01*
X97765224Y-54734560D01*
X97790000Y-54737000D01*
X98731294Y-54737000D01*
X98848184Y-54766300D01*
X99130512Y-54780217D01*
X99410130Y-54738787D01*
X99415127Y-54737000D01*
X100330000Y-54737000D01*
X100354776Y-54734560D01*
X100378601Y-54727333D01*
X100400557Y-54715597D01*
X100419803Y-54699803D01*
X100435597Y-54680557D01*
X100447333Y-54658601D01*
X100454560Y-54634776D01*
X100457000Y-54610000D01*
X100457000Y-53668706D01*
X100486300Y-53551816D01*
X100500217Y-53269488D01*
X100458787Y-52989870D01*
X100457000Y-52984873D01*
X100457000Y-51600000D01*
X102313684Y-51600000D01*
X102390363Y-51714759D01*
X102590241Y-51914637D01*
X102825273Y-52071680D01*
X103086426Y-52179853D01*
X103363665Y-52235000D01*
X103646335Y-52235000D01*
X103923574Y-52179853D01*
X104184727Y-52071680D01*
X104419759Y-51914637D01*
X104619637Y-51714759D01*
X104775000Y-51482241D01*
X104930363Y-51714759D01*
X105130241Y-51914637D01*
X105365273Y-52071680D01*
X105626426Y-52179853D01*
X105903665Y-52235000D01*
X106186335Y-52235000D01*
X106463574Y-52179853D01*
X106724727Y-52071680D01*
X106959759Y-51914637D01*
X107159637Y-51714759D01*
X107315000Y-51482241D01*
X107470363Y-51714759D01*
X107670241Y-51914637D01*
X107905273Y-52071680D01*
X108166426Y-52179853D01*
X108443665Y-52235000D01*
X108615198Y-52235000D01*
X103868271Y-56981928D01*
X102705000Y-56981928D01*
X102580518Y-56994188D01*
X102460820Y-57030498D01*
X102350506Y-57089463D01*
X102253815Y-57168815D01*
X102174463Y-57265506D01*
X102115498Y-57375820D01*
X102079188Y-57495518D01*
X102066928Y-57620000D01*
X102066928Y-59220000D01*
X102079188Y-59344482D01*
X102115498Y-59464180D01*
X102174463Y-59574494D01*
X102253815Y-59671185D01*
X102350506Y-59750537D01*
X102460820Y-59809502D01*
X102580518Y-59845812D01*
X102705000Y-59858072D01*
X103532127Y-59858072D01*
X102555199Y-60835000D01*
X100367322Y-60835000D01*
X100329999Y-60831324D01*
X100292676Y-60835000D01*
X100292667Y-60835000D01*
X100181014Y-60845997D01*
X100039912Y-60888799D01*
X100037753Y-60889454D01*
X99905723Y-60960026D01*
X99841053Y-61013100D01*
X99789999Y-61054999D01*
X99766201Y-61083997D01*
X96643998Y-64206201D01*
X96615000Y-64229999D01*
X96591202Y-64258997D01*
X96591201Y-64258998D01*
X96520026Y-64345724D01*
X96449454Y-64477754D01*
X96405998Y-64621015D01*
X96391324Y-64770000D01*
X96395001Y-64807333D01*
X96395000Y-104102678D01*
X96391324Y-104140000D01*
X96395000Y-104177322D01*
X96395000Y-104177332D01*
X96405997Y-104288985D01*
X96432089Y-104375000D01*
X96449454Y-104432246D01*
X96520026Y-104564276D01*
X96554320Y-104606063D01*
X96614999Y-104680001D01*
X96644003Y-104703804D01*
X106751200Y-114811002D01*
X106774999Y-114840001D01*
X106890724Y-114934974D01*
X107022753Y-115005546D01*
X107166014Y-115049003D01*
X107277667Y-115060000D01*
X107277675Y-115060000D01*
X107315000Y-115063676D01*
X107352325Y-115060000D01*
X107881289Y-115060000D01*
X107925226Y-115103937D01*
X108094744Y-115217205D01*
X108283102Y-115295226D01*
X108483061Y-115335000D01*
X108686939Y-115335000D01*
X108886898Y-115295226D01*
X109075256Y-115217205D01*
X109095000Y-115204013D01*
X109095000Y-115532678D01*
X109091324Y-115570000D01*
X109095000Y-115607322D01*
X109095000Y-115607332D01*
X109105997Y-115718985D01*
X109132089Y-115805000D01*
X109149454Y-115862246D01*
X109220026Y-115994276D01*
X109254320Y-116036063D01*
X109314999Y-116110001D01*
X109344003Y-116133804D01*
X117410002Y-124199804D01*
X117410002Y-128143000D01*
X116390001Y-128143000D01*
X116390001Y-123922323D01*
X116393677Y-123885000D01*
X116390001Y-123847677D01*
X116390001Y-123847668D01*
X116379004Y-123736015D01*
X116335547Y-123592754D01*
X116264975Y-123460725D01*
X116170002Y-123345000D01*
X116141004Y-123321202D01*
X113430000Y-120610199D01*
X113430000Y-120548061D01*
X113390226Y-120348102D01*
X113312205Y-120159744D01*
X113198937Y-119990226D01*
X113054774Y-119846063D01*
X112885256Y-119732795D01*
X112696898Y-119654774D01*
X112496939Y-119615000D01*
X112293061Y-119615000D01*
X112093102Y-119654774D01*
X111904744Y-119732795D01*
X111735226Y-119846063D01*
X111591063Y-119990226D01*
X111477795Y-120159744D01*
X111399774Y-120348102D01*
X111360000Y-120548061D01*
X111360000Y-120751939D01*
X111399774Y-120951898D01*
X111477795Y-121140256D01*
X111591063Y-121309774D01*
X111735226Y-121453937D01*
X111904744Y-121567205D01*
X112093102Y-121645226D01*
X112293061Y-121685000D01*
X112355199Y-121685000D01*
X114870002Y-124199804D01*
X114870002Y-128143000D01*
X113850001Y-128143000D01*
X113850001Y-124588712D01*
X113893938Y-124544775D01*
X114007206Y-124375257D01*
X114085227Y-124186899D01*
X114125001Y-123986940D01*
X114125001Y-123783062D01*
X114085227Y-123583103D01*
X114007206Y-123394745D01*
X113893938Y-123225227D01*
X113749775Y-123081064D01*
X113580257Y-122967796D01*
X113391899Y-122889775D01*
X113191940Y-122850001D01*
X112988062Y-122850001D01*
X112788103Y-122889775D01*
X112599745Y-122967796D01*
X112430227Y-123081064D01*
X112286064Y-123225227D01*
X112172796Y-123394745D01*
X112094775Y-123583103D01*
X112055001Y-123783062D01*
X112055001Y-123986940D01*
X112094775Y-124186899D01*
X112172796Y-124375257D01*
X112286064Y-124544775D01*
X112330002Y-124588713D01*
X112330002Y-128143000D01*
X108610000Y-128143000D01*
X108610000Y-118777065D01*
X108613192Y-118744306D01*
X108606871Y-118680812D01*
X108600450Y-118615617D01*
X108600347Y-118615277D01*
X108600313Y-118614936D01*
X108581602Y-118553486D01*
X108562710Y-118491207D01*
X108562546Y-118490900D01*
X108562444Y-118490565D01*
X108532024Y-118433797D01*
X108501425Y-118376550D01*
X108501201Y-118376277D01*
X108501038Y-118375973D01*
X108460105Y-118326201D01*
X108418948Y-118276052D01*
X108418680Y-118275832D01*
X108418457Y-118275561D01*
X108368452Y-118234611D01*
X108318450Y-118193575D01*
X108289414Y-118178055D01*
X93370000Y-108231779D01*
X93370000Y-58134040D01*
X97668091Y-58134040D01*
X97762930Y-58398881D01*
X97907615Y-58640131D01*
X98096586Y-58848519D01*
X98322580Y-59016037D01*
X98576913Y-59136246D01*
X98710961Y-59176904D01*
X98933000Y-59054915D01*
X98933000Y-57912000D01*
X99187000Y-57912000D01*
X99187000Y-59054915D01*
X99409039Y-59176904D01*
X99543087Y-59136246D01*
X99797420Y-59016037D01*
X100023414Y-58848519D01*
X100212385Y-58640131D01*
X100357070Y-58398881D01*
X100451909Y-58134040D01*
X100330624Y-57912000D01*
X99187000Y-57912000D01*
X98933000Y-57912000D01*
X97789376Y-57912000D01*
X97668091Y-58134040D01*
X93370000Y-58134040D01*
X93370000Y-57435960D01*
X97668091Y-57435960D01*
X97789376Y-57658000D01*
X98933000Y-57658000D01*
X98933000Y-56515085D01*
X99187000Y-56515085D01*
X99187000Y-57658000D01*
X100330624Y-57658000D01*
X100451909Y-57435960D01*
X100357070Y-57171119D01*
X100212385Y-56929869D01*
X100023414Y-56721481D01*
X99797420Y-56553963D01*
X99543087Y-56433754D01*
X99409039Y-56393096D01*
X99187000Y-56515085D01*
X98933000Y-56515085D01*
X98710961Y-56393096D01*
X98576913Y-56433754D01*
X98322580Y-56553963D01*
X98096586Y-56721481D01*
X97907615Y-56929869D01*
X97762930Y-57171119D01*
X97668091Y-57435960D01*
X93370000Y-57435960D01*
X93370000Y-45110000D01*
X201270001Y-45110000D01*
X201270000Y-108231779D01*
G37*
X201270000Y-108231779D02*
X188484067Y-116755735D01*
X191646004Y-113593798D01*
X191675001Y-113570001D01*
X191715826Y-113520256D01*
X191769974Y-113454277D01*
X191840546Y-113322247D01*
X191857911Y-113265000D01*
X191884003Y-113178986D01*
X191895000Y-113067333D01*
X191895000Y-113067323D01*
X191898676Y-113030000D01*
X191895000Y-112992677D01*
X191895000Y-109288526D01*
X191921913Y-109301246D01*
X192055961Y-109341904D01*
X192278000Y-109219915D01*
X192278000Y-108077000D01*
X192532000Y-108077000D01*
X192532000Y-109219915D01*
X192754039Y-109341904D01*
X192888087Y-109301246D01*
X193142420Y-109181037D01*
X193368414Y-109013519D01*
X193557385Y-108805131D01*
X193702070Y-108563881D01*
X193796909Y-108299040D01*
X193675624Y-108077000D01*
X192532000Y-108077000D01*
X192278000Y-108077000D01*
X192258000Y-108077000D01*
X192258000Y-107823000D01*
X192278000Y-107823000D01*
X192278000Y-106680085D01*
X192532000Y-106680085D01*
X192532000Y-107823000D01*
X193675624Y-107823000D01*
X193796909Y-107600960D01*
X193702070Y-107336119D01*
X193557385Y-107094869D01*
X193368414Y-106886481D01*
X193142420Y-106718963D01*
X192888087Y-106598754D01*
X192754039Y-106558096D01*
X192532000Y-106680085D01*
X192278000Y-106680085D01*
X192055961Y-106558096D01*
X191921913Y-106598754D01*
X191895000Y-106611474D01*
X191895000Y-94929801D01*
X192712943Y-94111859D01*
X192823574Y-94089853D01*
X193084727Y-93981680D01*
X193319759Y-93824637D01*
X193519637Y-93624759D01*
X193676680Y-93389727D01*
X193784853Y-93128574D01*
X193840000Y-92851335D01*
X193840000Y-92568665D01*
X193784853Y-92291426D01*
X193676680Y-92030273D01*
X193519637Y-91795241D01*
X193319759Y-91595363D01*
X193084727Y-91438320D01*
X192823574Y-91330147D01*
X192546335Y-91275000D01*
X192263665Y-91275000D01*
X191986426Y-91330147D01*
X191725273Y-91438320D01*
X191490241Y-91595363D01*
X191290363Y-91795241D01*
X191135000Y-92027759D01*
X190979637Y-91795241D01*
X190779759Y-91595363D01*
X190544727Y-91438320D01*
X190283574Y-91330147D01*
X190006335Y-91275000D01*
X189723665Y-91275000D01*
X189446426Y-91330147D01*
X189185273Y-91438320D01*
X188950241Y-91595363D01*
X188750363Y-91795241D01*
X188595000Y-92027759D01*
X188439637Y-91795241D01*
X188239759Y-91595363D01*
X188004727Y-91438320D01*
X187743574Y-91330147D01*
X187466335Y-91275000D01*
X187183665Y-91275000D01*
X186906426Y-91330147D01*
X186645273Y-91438320D01*
X186410241Y-91595363D01*
X186210363Y-91795241D01*
X186055000Y-92027759D01*
X185899637Y-91795241D01*
X185699759Y-91595363D01*
X185464727Y-91438320D01*
X185203574Y-91330147D01*
X184926335Y-91275000D01*
X184643665Y-91275000D01*
X184366426Y-91330147D01*
X184105273Y-91438320D01*
X183870241Y-91595363D01*
X183670363Y-91795241D01*
X183515000Y-92027759D01*
X183359637Y-91795241D01*
X183159759Y-91595363D01*
X182924727Y-91438320D01*
X182663574Y-91330147D01*
X182386335Y-91275000D01*
X182103665Y-91275000D01*
X181826426Y-91330147D01*
X181565273Y-91438320D01*
X181330241Y-91595363D01*
X181130363Y-91795241D01*
X180973320Y-92030273D01*
X180968933Y-92040865D01*
X180857385Y-91854869D01*
X180668414Y-91646481D01*
X180442420Y-91478963D01*
X180188087Y-91358754D01*
X180054039Y-91318096D01*
X179832000Y-91440085D01*
X179832000Y-92583000D01*
X179852000Y-92583000D01*
X179852000Y-92837000D01*
X179832000Y-92837000D01*
X179832000Y-93979915D01*
X180054039Y-94101904D01*
X180188087Y-94061246D01*
X180442420Y-93941037D01*
X180668414Y-93773519D01*
X180857385Y-93565131D01*
X180968933Y-93379135D01*
X180973320Y-93389727D01*
X181034263Y-93480935D01*
X180463998Y-94051201D01*
X180435000Y-94074999D01*
X180411202Y-94103997D01*
X180411201Y-94103998D01*
X180340026Y-94190724D01*
X180269454Y-94322754D01*
X180225998Y-94466015D01*
X180211324Y-94615000D01*
X180215001Y-94652333D01*
X180215000Y-106608017D01*
X180123574Y-106570147D01*
X179846335Y-106515000D01*
X179563665Y-106515000D01*
X179286426Y-106570147D01*
X179025273Y-106678320D01*
X178790241Y-106835363D01*
X178590363Y-107035241D01*
X178435000Y-107267759D01*
X178279637Y-107035241D01*
X178079759Y-106835363D01*
X177844727Y-106678320D01*
X177583574Y-106570147D01*
X177306335Y-106515000D01*
X177023665Y-106515000D01*
X176746426Y-106570147D01*
X176655000Y-106608017D01*
X176655000Y-94929801D01*
X177472943Y-94111859D01*
X177583574Y-94089853D01*
X177844727Y-93981680D01*
X178079759Y-93824637D01*
X178279637Y-93624759D01*
X178436680Y-93389727D01*
X178441067Y-93379135D01*
X178552615Y-93565131D01*
X178741586Y-93773519D01*
X178967580Y-93941037D01*
X179221913Y-94061246D01*
X179355961Y-94101904D01*
X179578000Y-93979915D01*
X179578000Y-92837000D01*
X179558000Y-92837000D01*
X179558000Y-92583000D01*
X179578000Y-92583000D01*
X179578000Y-91440085D01*
X179355961Y-91318096D01*
X179221913Y-91358754D01*
X178967580Y-91478963D01*
X178741586Y-91646481D01*
X178552615Y-91854869D01*
X178441067Y-92040865D01*
X178436680Y-92030273D01*
X178279637Y-91795241D01*
X178079759Y-91595363D01*
X177844727Y-91438320D01*
X177583574Y-91330147D01*
X177306335Y-91275000D01*
X177023665Y-91275000D01*
X176746426Y-91330147D01*
X176485273Y-91438320D01*
X176250241Y-91595363D01*
X176050363Y-91795241D01*
X175895000Y-92027759D01*
X175739637Y-91795241D01*
X175539759Y-91595363D01*
X175304727Y-91438320D01*
X175043574Y-91330147D01*
X174766335Y-91275000D01*
X174483665Y-91275000D01*
X174206426Y-91330147D01*
X173945273Y-91438320D01*
X173710241Y-91595363D01*
X173510363Y-91795241D01*
X173355000Y-92027759D01*
X173199637Y-91795241D01*
X172999759Y-91595363D01*
X172764727Y-91438320D01*
X172503574Y-91330147D01*
X172226335Y-91275000D01*
X171943665Y-91275000D01*
X171666426Y-91330147D01*
X171575000Y-91368017D01*
X171575000Y-90207325D01*
X171578676Y-90170000D01*
X171575000Y-90132675D01*
X171575000Y-90132667D01*
X171564003Y-90021014D01*
X171520546Y-89877753D01*
X171449974Y-89745724D01*
X171355001Y-89629999D01*
X171326003Y-89606201D01*
X169564802Y-87845000D01*
X169691260Y-87845000D01*
X169978158Y-87787932D01*
X170248411Y-87675990D01*
X170491632Y-87513475D01*
X170698475Y-87306632D01*
X170860990Y-87063411D01*
X170972932Y-86793158D01*
X171030000Y-86506260D01*
X171030000Y-86213740D01*
X170972932Y-85926842D01*
X170860990Y-85656589D01*
X170698475Y-85413368D01*
X170491632Y-85206525D01*
X170248411Y-85044010D01*
X169978158Y-84932068D01*
X169691260Y-84875000D01*
X169398740Y-84875000D01*
X169178592Y-84918791D01*
X169035000Y-84775199D01*
X169035000Y-81348526D01*
X169061913Y-81361246D01*
X169195961Y-81401904D01*
X169418000Y-81279915D01*
X169418000Y-80137000D01*
X169672000Y-80137000D01*
X169672000Y-81279915D01*
X169894039Y-81401904D01*
X170028087Y-81361246D01*
X170282420Y-81241037D01*
X170508414Y-81073519D01*
X170697385Y-80865131D01*
X170842070Y-80623881D01*
X170936909Y-80359040D01*
X170815624Y-80137000D01*
X169672000Y-80137000D01*
X169418000Y-80137000D01*
X169398000Y-80137000D01*
X169398000Y-79883000D01*
X169418000Y-79883000D01*
X169418000Y-78740085D01*
X169672000Y-78740085D01*
X169672000Y-79883000D01*
X170815624Y-79883000D01*
X170936909Y-79660960D01*
X170842070Y-79396119D01*
X170697385Y-79154869D01*
X170508414Y-78946481D01*
X170282420Y-78778963D01*
X170028087Y-78658754D01*
X169894039Y-78618096D01*
X169672000Y-78740085D01*
X169418000Y-78740085D01*
X169195961Y-78618096D01*
X169061913Y-78658754D01*
X169035000Y-78671474D01*
X169035000Y-77389799D01*
X171181004Y-75243796D01*
X171210002Y-75219998D01*
X171270381Y-75146426D01*
X171304975Y-75104274D01*
X171375547Y-74972244D01*
X171388361Y-74930000D01*
X171419004Y-74828983D01*
X171430001Y-74717330D01*
X171430001Y-74717320D01*
X171433677Y-74679997D01*
X171430001Y-74642674D01*
X171430001Y-71887322D01*
X171433677Y-71849999D01*
X171430001Y-71812676D01*
X171430001Y-71812666D01*
X171419004Y-71701013D01*
X171375547Y-71557752D01*
X171352824Y-71515241D01*
X171304975Y-71425722D01*
X171233800Y-71338996D01*
X171210002Y-71309998D01*
X171181005Y-71286201D01*
X170648804Y-70754001D01*
X170625002Y-70724998D01*
X170509277Y-70630025D01*
X170377248Y-70559453D01*
X170233987Y-70515996D01*
X170122334Y-70504999D01*
X170122323Y-70504999D01*
X170085001Y-70501323D01*
X170047679Y-70504999D01*
X165627326Y-70504999D01*
X165590001Y-70501323D01*
X165552676Y-70504999D01*
X165552668Y-70504999D01*
X165441015Y-70515996D01*
X165297754Y-70559453D01*
X165165725Y-70630025D01*
X165050000Y-70724998D01*
X165026202Y-70753996D01*
X164788886Y-70991312D01*
X164606335Y-70955000D01*
X164323665Y-70955000D01*
X164046426Y-71010147D01*
X163785273Y-71118320D01*
X163550241Y-71275363D01*
X163350363Y-71475241D01*
X163195000Y-71707759D01*
X163039637Y-71475241D01*
X162839759Y-71275363D01*
X162604727Y-71118320D01*
X162343574Y-71010147D01*
X162066335Y-70955000D01*
X161783665Y-70955000D01*
X161506426Y-71010147D01*
X161245273Y-71118320D01*
X161010241Y-71275363D01*
X160810363Y-71475241D01*
X160655000Y-71707759D01*
X160499637Y-71475241D01*
X160299759Y-71275363D01*
X160064727Y-71118320D01*
X159803574Y-71010147D01*
X159526335Y-70955000D01*
X159243665Y-70955000D01*
X158966426Y-71010147D01*
X158705273Y-71118320D01*
X158470241Y-71275363D01*
X158270363Y-71475241D01*
X158115000Y-71707759D01*
X157959637Y-71475241D01*
X157759759Y-71275363D01*
X157524727Y-71118320D01*
X157263574Y-71010147D01*
X156986335Y-70955000D01*
X156703665Y-70955000D01*
X156521114Y-70991312D01*
X153304999Y-67775198D01*
X153304999Y-67145000D01*
X158581928Y-67145000D01*
X158581928Y-68745000D01*
X158594188Y-68869482D01*
X158630498Y-68989180D01*
X158689463Y-69099494D01*
X158768815Y-69196185D01*
X158865506Y-69275537D01*
X158975820Y-69334502D01*
X159095518Y-69370812D01*
X159220000Y-69383072D01*
X160820000Y-69383072D01*
X160944482Y-69370812D01*
X161064180Y-69334502D01*
X161174494Y-69275537D01*
X161271185Y-69196185D01*
X161350537Y-69099494D01*
X161409502Y-68989180D01*
X161445812Y-68869482D01*
X161458072Y-68745000D01*
X161458072Y-67145000D01*
X161445812Y-67020518D01*
X161409502Y-66900820D01*
X161350537Y-66790506D01*
X161271185Y-66693815D01*
X161174494Y-66614463D01*
X161064180Y-66555498D01*
X160944482Y-66519188D01*
X160820000Y-66506928D01*
X159220000Y-66506928D01*
X159095518Y-66519188D01*
X158975820Y-66555498D01*
X158865506Y-66614463D01*
X158768815Y-66693815D01*
X158689463Y-66790506D01*
X158630498Y-66900820D01*
X158594188Y-67020518D01*
X158581928Y-67145000D01*
X153304999Y-67145000D01*
X153304999Y-59807063D01*
X153320961Y-59811904D01*
X153543000Y-59689915D01*
X153543000Y-58547000D01*
X153797000Y-58547000D01*
X153797000Y-59689915D01*
X154019039Y-59811904D01*
X154153087Y-59771246D01*
X154407420Y-59651037D01*
X154633414Y-59483519D01*
X154822385Y-59275131D01*
X154967070Y-59033881D01*
X155061909Y-58769040D01*
X154940624Y-58547000D01*
X153797000Y-58547000D01*
X153543000Y-58547000D01*
X153523000Y-58547000D01*
X153523000Y-58293000D01*
X153543000Y-58293000D01*
X153543000Y-57150085D01*
X153797000Y-57150085D01*
X153797000Y-58293000D01*
X154940624Y-58293000D01*
X155061909Y-58070960D01*
X154967070Y-57806119D01*
X154869642Y-57643665D01*
X158585000Y-57643665D01*
X158585000Y-57926335D01*
X158640147Y-58203574D01*
X158748320Y-58464727D01*
X158905363Y-58699759D01*
X159105241Y-58899637D01*
X159260000Y-59003044D01*
X159260001Y-59106956D01*
X159105241Y-59210363D01*
X158905363Y-59410241D01*
X158748320Y-59645273D01*
X158640147Y-59906426D01*
X158585000Y-60183665D01*
X158585000Y-60466335D01*
X158640147Y-60743574D01*
X158748320Y-61004727D01*
X158905363Y-61239759D01*
X159105241Y-61439637D01*
X159340273Y-61596680D01*
X159601426Y-61704853D01*
X159878665Y-61760000D01*
X160161335Y-61760000D01*
X160438574Y-61704853D01*
X160699727Y-61596680D01*
X160934759Y-61439637D01*
X161134637Y-61239759D01*
X161291680Y-61004727D01*
X161399853Y-60743574D01*
X161455000Y-60466335D01*
X161455000Y-60183665D01*
X161399853Y-59906426D01*
X161291680Y-59645273D01*
X161134637Y-59410241D01*
X160934759Y-59210363D01*
X160780000Y-59106957D01*
X160780000Y-59003043D01*
X160934759Y-58899637D01*
X161134637Y-58699759D01*
X161291680Y-58464727D01*
X161399853Y-58203574D01*
X161455000Y-57926335D01*
X161455000Y-57643665D01*
X161399853Y-57366426D01*
X161291680Y-57105273D01*
X161134637Y-56870241D01*
X160934759Y-56670363D01*
X160699727Y-56513320D01*
X160438574Y-56405147D01*
X160161335Y-56350000D01*
X159878665Y-56350000D01*
X159601426Y-56405147D01*
X159340273Y-56513320D01*
X159105241Y-56670363D01*
X158905363Y-56870241D01*
X158748320Y-57105273D01*
X158640147Y-57366426D01*
X158585000Y-57643665D01*
X154869642Y-57643665D01*
X154822385Y-57564869D01*
X154633414Y-57356481D01*
X154407420Y-57188963D01*
X154153087Y-57068754D01*
X154019039Y-57028096D01*
X153797000Y-57150085D01*
X153543000Y-57150085D01*
X153320961Y-57028096D01*
X153304999Y-57032937D01*
X153304999Y-52239802D01*
X153346113Y-52198688D01*
X153528665Y-52235000D01*
X153811335Y-52235000D01*
X154088574Y-52179853D01*
X154349727Y-52071680D01*
X154584759Y-51914637D01*
X154784637Y-51714759D01*
X154941680Y-51479727D01*
X155049853Y-51218574D01*
X155105000Y-50941335D01*
X155105000Y-50658665D01*
X155049853Y-50381426D01*
X154941680Y-50120273D01*
X154877129Y-50023665D01*
X158585000Y-50023665D01*
X158585000Y-50306335D01*
X158640147Y-50583574D01*
X158748320Y-50844727D01*
X158905363Y-51079759D01*
X159105241Y-51279637D01*
X159340273Y-51436680D01*
X159601426Y-51544853D01*
X159878665Y-51600000D01*
X160161335Y-51600000D01*
X160343887Y-51563688D01*
X162372264Y-53592066D01*
X162258102Y-53614774D01*
X162069744Y-53692795D01*
X161900226Y-53806063D01*
X161756063Y-53950226D01*
X161642795Y-54119744D01*
X161564774Y-54308102D01*
X161525000Y-54508061D01*
X161525000Y-54711939D01*
X161564774Y-54911898D01*
X161642795Y-55100256D01*
X161756063Y-55269774D01*
X161800000Y-55313711D01*
X161800001Y-60922668D01*
X161796324Y-60960000D01*
X161800001Y-60997333D01*
X161807553Y-61074003D01*
X161810998Y-61108985D01*
X161854454Y-61252246D01*
X161925026Y-61384276D01*
X161990441Y-61463983D01*
X162020000Y-61500001D01*
X162048998Y-61523799D01*
X171960000Y-71434802D01*
X171960001Y-76797668D01*
X171956324Y-76835000D01*
X171970998Y-76983985D01*
X172014454Y-77127246D01*
X172085026Y-77259276D01*
X172139175Y-77325256D01*
X172180000Y-77375001D01*
X172208998Y-77398799D01*
X175331200Y-80521002D01*
X175354999Y-80550001D01*
X175383997Y-80573799D01*
X175470723Y-80644974D01*
X175602689Y-80715512D01*
X175602753Y-80715546D01*
X175746014Y-80759003D01*
X175857667Y-80770000D01*
X175857676Y-80770000D01*
X175894999Y-80773676D01*
X175932322Y-80770000D01*
X178266928Y-80770000D01*
X178266928Y-80810000D01*
X178279188Y-80934482D01*
X178315498Y-81054180D01*
X178374463Y-81164494D01*
X178453815Y-81261185D01*
X178550506Y-81340537D01*
X178660820Y-81399502D01*
X178780518Y-81435812D01*
X178905000Y-81448072D01*
X180505000Y-81448072D01*
X180629482Y-81435812D01*
X180749180Y-81399502D01*
X180859494Y-81340537D01*
X180956185Y-81261185D01*
X181035537Y-81164494D01*
X181094502Y-81054180D01*
X181130812Y-80934482D01*
X181131643Y-80926039D01*
X181330241Y-81124637D01*
X181565273Y-81281680D01*
X181826426Y-81389853D01*
X182103665Y-81445000D01*
X182386335Y-81445000D01*
X182663574Y-81389853D01*
X182924727Y-81281680D01*
X183159759Y-81124637D01*
X183359637Y-80924759D01*
X183515000Y-80692241D01*
X183670363Y-80924759D01*
X183870241Y-81124637D01*
X184105273Y-81281680D01*
X184366426Y-81389853D01*
X184643665Y-81445000D01*
X184926335Y-81445000D01*
X185203574Y-81389853D01*
X185464727Y-81281680D01*
X185699759Y-81124637D01*
X185899637Y-80924759D01*
X186056680Y-80689727D01*
X186061067Y-80679135D01*
X186172615Y-80865131D01*
X186361586Y-81073519D01*
X186587580Y-81241037D01*
X186841913Y-81361246D01*
X186975961Y-81401904D01*
X187198000Y-81279915D01*
X187198000Y-80137000D01*
X187452000Y-80137000D01*
X187452000Y-81279915D01*
X187674039Y-81401904D01*
X187808087Y-81361246D01*
X188062420Y-81241037D01*
X188288414Y-81073519D01*
X188477385Y-80865131D01*
X188595000Y-80669018D01*
X188712615Y-80865131D01*
X188901586Y-81073519D01*
X189127580Y-81241037D01*
X189381913Y-81361246D01*
X189515961Y-81401904D01*
X189738000Y-81279915D01*
X189738000Y-80137000D01*
X187452000Y-80137000D01*
X187198000Y-80137000D01*
X187178000Y-80137000D01*
X187178000Y-79883000D01*
X187198000Y-79883000D01*
X187198000Y-78740085D01*
X187452000Y-78740085D01*
X187452000Y-79883000D01*
X189738000Y-79883000D01*
X189738000Y-78740085D01*
X189992000Y-78740085D01*
X189992000Y-79883000D01*
X190012000Y-79883000D01*
X190012000Y-80137000D01*
X189992000Y-80137000D01*
X189992000Y-81279915D01*
X190214039Y-81401904D01*
X190348087Y-81361246D01*
X190602420Y-81241037D01*
X190828414Y-81073519D01*
X191017385Y-80865131D01*
X191128933Y-80679135D01*
X191133320Y-80689727D01*
X191290363Y-80924759D01*
X191490241Y-81124637D01*
X191725273Y-81281680D01*
X191986426Y-81389853D01*
X192263665Y-81445000D01*
X192546335Y-81445000D01*
X192823574Y-81389853D01*
X193084727Y-81281680D01*
X193319759Y-81124637D01*
X193519637Y-80924759D01*
X193676680Y-80689727D01*
X193681067Y-80679135D01*
X193792615Y-80865131D01*
X193981586Y-81073519D01*
X194207580Y-81241037D01*
X194461913Y-81361246D01*
X194595961Y-81401904D01*
X194818000Y-81279915D01*
X194818000Y-80137000D01*
X195072000Y-80137000D01*
X195072000Y-81279915D01*
X195294039Y-81401904D01*
X195428087Y-81361246D01*
X195682420Y-81241037D01*
X195908414Y-81073519D01*
X196097385Y-80865131D01*
X196242070Y-80623881D01*
X196336909Y-80359040D01*
X196215624Y-80137000D01*
X195072000Y-80137000D01*
X194818000Y-80137000D01*
X194798000Y-80137000D01*
X194798000Y-79883000D01*
X194818000Y-79883000D01*
X194818000Y-78740085D01*
X195072000Y-78740085D01*
X195072000Y-79883000D01*
X196215624Y-79883000D01*
X196336909Y-79660960D01*
X196242070Y-79396119D01*
X196097385Y-79154869D01*
X195908414Y-78946481D01*
X195682420Y-78778963D01*
X195428087Y-78658754D01*
X195294039Y-78618096D01*
X195072000Y-78740085D01*
X194818000Y-78740085D01*
X194595961Y-78618096D01*
X194461913Y-78658754D01*
X194207580Y-78778963D01*
X193981586Y-78946481D01*
X193792615Y-79154869D01*
X193681067Y-79340865D01*
X193676680Y-79330273D01*
X193519637Y-79095241D01*
X193319759Y-78895363D01*
X193084727Y-78738320D01*
X192823574Y-78630147D01*
X192546335Y-78575000D01*
X192263665Y-78575000D01*
X191986426Y-78630147D01*
X191725273Y-78738320D01*
X191490241Y-78895363D01*
X191290363Y-79095241D01*
X191133320Y-79330273D01*
X191128933Y-79340865D01*
X191017385Y-79154869D01*
X190828414Y-78946481D01*
X190602420Y-78778963D01*
X190348087Y-78658754D01*
X190214039Y-78618096D01*
X189992000Y-78740085D01*
X189738000Y-78740085D01*
X189515961Y-78618096D01*
X189381913Y-78658754D01*
X189127580Y-78778963D01*
X188901586Y-78946481D01*
X188712615Y-79154869D01*
X188595000Y-79350982D01*
X188477385Y-79154869D01*
X188288414Y-78946481D01*
X188062420Y-78778963D01*
X187808087Y-78658754D01*
X187674039Y-78618096D01*
X187452000Y-78740085D01*
X187198000Y-78740085D01*
X186975961Y-78618096D01*
X186841913Y-78658754D01*
X186587580Y-78778963D01*
X186361586Y-78946481D01*
X186172615Y-79154869D01*
X186061067Y-79340865D01*
X186056680Y-79330273D01*
X185899637Y-79095241D01*
X185699759Y-78895363D01*
X185464727Y-78738320D01*
X185203574Y-78630147D01*
X184926335Y-78575000D01*
X184643665Y-78575000D01*
X184366426Y-78630147D01*
X184105273Y-78738320D01*
X183870241Y-78895363D01*
X183670363Y-79095241D01*
X183515000Y-79327759D01*
X183359637Y-79095241D01*
X183159759Y-78895363D01*
X182924727Y-78738320D01*
X182663574Y-78630147D01*
X182386335Y-78575000D01*
X182103665Y-78575000D01*
X181826426Y-78630147D01*
X181565273Y-78738320D01*
X181330241Y-78895363D01*
X181131643Y-79093961D01*
X181130812Y-79085518D01*
X181094502Y-78965820D01*
X181035537Y-78855506D01*
X180956185Y-78758815D01*
X180859494Y-78679463D01*
X180749180Y-78620498D01*
X180629482Y-78584188D01*
X180505000Y-78571928D01*
X178905000Y-78571928D01*
X178780518Y-78584188D01*
X178660820Y-78620498D01*
X178550506Y-78679463D01*
X178453815Y-78758815D01*
X178374463Y-78855506D01*
X178315498Y-78965820D01*
X178279188Y-79085518D01*
X178266928Y-79210000D01*
X178266928Y-79250000D01*
X176209802Y-79250000D01*
X173480000Y-76520199D01*
X173480000Y-75000512D01*
X173819783Y-75000512D01*
X173861213Y-75280130D01*
X173863000Y-75285127D01*
X173863000Y-76200000D01*
X173865440Y-76224776D01*
X173872667Y-76248601D01*
X173884403Y-76270557D01*
X173900197Y-76289803D01*
X173919443Y-76305597D01*
X173941399Y-76317333D01*
X173965224Y-76324560D01*
X173990000Y-76327000D01*
X174931294Y-76327000D01*
X175048184Y-76356300D01*
X175330512Y-76370217D01*
X175610130Y-76328787D01*
X175615127Y-76327000D01*
X176530000Y-76327000D01*
X176554776Y-76324560D01*
X176578601Y-76317333D01*
X176600557Y-76305597D01*
X176619803Y-76289803D01*
X176635597Y-76270557D01*
X176647333Y-76248601D01*
X176654560Y-76224776D01*
X176657000Y-76200000D01*
X176657000Y-75258706D01*
X176686300Y-75141816D01*
X176700217Y-74859488D01*
X176658787Y-74579870D01*
X176657000Y-74574873D01*
X176657000Y-73190000D01*
X178513684Y-73190000D01*
X178590363Y-73304759D01*
X178790241Y-73504637D01*
X179025273Y-73661680D01*
X179286426Y-73769853D01*
X179563665Y-73825000D01*
X179846335Y-73825000D01*
X180123574Y-73769853D01*
X180384727Y-73661680D01*
X180619759Y-73504637D01*
X180819637Y-73304759D01*
X180976680Y-73069727D01*
X180981067Y-73059135D01*
X181092615Y-73245131D01*
X181281586Y-73453519D01*
X181507580Y-73621037D01*
X181761913Y-73741246D01*
X181895961Y-73781904D01*
X182118000Y-73659915D01*
X182118000Y-72517000D01*
X182372000Y-72517000D01*
X182372000Y-73659915D01*
X182594039Y-73781904D01*
X182728087Y-73741246D01*
X182982420Y-73621037D01*
X183208414Y-73453519D01*
X183397385Y-73245131D01*
X183515000Y-73049018D01*
X183632615Y-73245131D01*
X183821586Y-73453519D01*
X184047580Y-73621037D01*
X184301913Y-73741246D01*
X184435961Y-73781904D01*
X184658000Y-73659915D01*
X184658000Y-72517000D01*
X182372000Y-72517000D01*
X182118000Y-72517000D01*
X182098000Y-72517000D01*
X182098000Y-72263000D01*
X182118000Y-72263000D01*
X182118000Y-71120085D01*
X182372000Y-71120085D01*
X182372000Y-72263000D01*
X184658000Y-72263000D01*
X184658000Y-71120085D01*
X184912000Y-71120085D01*
X184912000Y-72263000D01*
X184932000Y-72263000D01*
X184932000Y-72517000D01*
X184912000Y-72517000D01*
X184912000Y-73659915D01*
X185134039Y-73781904D01*
X185268087Y-73741246D01*
X185522420Y-73621037D01*
X185748414Y-73453519D01*
X185937385Y-73245131D01*
X186048933Y-73059135D01*
X186053320Y-73069727D01*
X186210363Y-73304759D01*
X186410241Y-73504637D01*
X186645273Y-73661680D01*
X186906426Y-73769853D01*
X187183665Y-73825000D01*
X187466335Y-73825000D01*
X187743574Y-73769853D01*
X188004727Y-73661680D01*
X188239759Y-73504637D01*
X188439637Y-73304759D01*
X188596680Y-73069727D01*
X188601067Y-73059135D01*
X188712615Y-73245131D01*
X188901586Y-73453519D01*
X189127580Y-73621037D01*
X189381913Y-73741246D01*
X189515961Y-73781904D01*
X189738000Y-73659915D01*
X189738000Y-72517000D01*
X189992000Y-72517000D01*
X189992000Y-73659915D01*
X190214039Y-73781904D01*
X190348087Y-73741246D01*
X190602420Y-73621037D01*
X190828414Y-73453519D01*
X191017385Y-73245131D01*
X191135000Y-73049018D01*
X191252615Y-73245131D01*
X191441586Y-73453519D01*
X191667580Y-73621037D01*
X191921913Y-73741246D01*
X192055961Y-73781904D01*
X192278000Y-73659915D01*
X192278000Y-72517000D01*
X189992000Y-72517000D01*
X189738000Y-72517000D01*
X189718000Y-72517000D01*
X189718000Y-72263000D01*
X189738000Y-72263000D01*
X189738000Y-71120085D01*
X189992000Y-71120085D01*
X189992000Y-72263000D01*
X192278000Y-72263000D01*
X192278000Y-71120085D01*
X192532000Y-71120085D01*
X192532000Y-72263000D01*
X192552000Y-72263000D01*
X192552000Y-72517000D01*
X192532000Y-72517000D01*
X192532000Y-73659915D01*
X192754039Y-73781904D01*
X192888087Y-73741246D01*
X193142420Y-73621037D01*
X193368414Y-73453519D01*
X193557385Y-73245131D01*
X193668933Y-73059135D01*
X193673320Y-73069727D01*
X193830363Y-73304759D01*
X194030241Y-73504637D01*
X194265273Y-73661680D01*
X194526426Y-73769853D01*
X194803665Y-73825000D01*
X195086335Y-73825000D01*
X195363574Y-73769853D01*
X195624727Y-73661680D01*
X195859759Y-73504637D01*
X196059637Y-73304759D01*
X196216680Y-73069727D01*
X196324853Y-72808574D01*
X196380000Y-72531335D01*
X196380000Y-72248665D01*
X196324853Y-71971426D01*
X196216680Y-71710273D01*
X196059637Y-71475241D01*
X195859759Y-71275363D01*
X195624727Y-71118320D01*
X195363574Y-71010147D01*
X195086335Y-70955000D01*
X194803665Y-70955000D01*
X194526426Y-71010147D01*
X194265273Y-71118320D01*
X194030241Y-71275363D01*
X193830363Y-71475241D01*
X193673320Y-71710273D01*
X193668933Y-71720865D01*
X193557385Y-71534869D01*
X193368414Y-71326481D01*
X193142420Y-71158963D01*
X192888087Y-71038754D01*
X192754039Y-70998096D01*
X192532000Y-71120085D01*
X192278000Y-71120085D01*
X192055961Y-70998096D01*
X191921913Y-71038754D01*
X191667580Y-71158963D01*
X191441586Y-71326481D01*
X191252615Y-71534869D01*
X191135000Y-71730982D01*
X191017385Y-71534869D01*
X190828414Y-71326481D01*
X190602420Y-71158963D01*
X190348087Y-71038754D01*
X190214039Y-70998096D01*
X189992000Y-71120085D01*
X189738000Y-71120085D01*
X189515961Y-70998096D01*
X189381913Y-71038754D01*
X189127580Y-71158963D01*
X188901586Y-71326481D01*
X188712615Y-71534869D01*
X188601067Y-71720865D01*
X188596680Y-71710273D01*
X188439637Y-71475241D01*
X188239759Y-71275363D01*
X188004727Y-71118320D01*
X187743574Y-71010147D01*
X187466335Y-70955000D01*
X187183665Y-70955000D01*
X186906426Y-71010147D01*
X186645273Y-71118320D01*
X186410241Y-71275363D01*
X186210363Y-71475241D01*
X186053320Y-71710273D01*
X186048933Y-71720865D01*
X185937385Y-71534869D01*
X185748414Y-71326481D01*
X185522420Y-71158963D01*
X185268087Y-71038754D01*
X185134039Y-70998096D01*
X184912000Y-71120085D01*
X184658000Y-71120085D01*
X184435961Y-70998096D01*
X184301913Y-71038754D01*
X184047580Y-71158963D01*
X183821586Y-71326481D01*
X183632615Y-71534869D01*
X183515000Y-71730982D01*
X183397385Y-71534869D01*
X183208414Y-71326481D01*
X182982420Y-71158963D01*
X182728087Y-71038754D01*
X182594039Y-70998096D01*
X182372000Y-71120085D01*
X182118000Y-71120085D01*
X181895961Y-70998096D01*
X181761913Y-71038754D01*
X181507580Y-71158963D01*
X181281586Y-71326481D01*
X181092615Y-71534869D01*
X180981067Y-71720865D01*
X180976680Y-71710273D01*
X180819637Y-71475241D01*
X180619759Y-71275363D01*
X180384727Y-71118320D01*
X180123574Y-71010147D01*
X179846335Y-70955000D01*
X179563665Y-70955000D01*
X179286426Y-71010147D01*
X179025273Y-71118320D01*
X178790241Y-71275363D01*
X178590363Y-71475241D01*
X178460229Y-71670000D01*
X176657000Y-71670000D01*
X176657000Y-71120000D01*
X176654560Y-71095224D01*
X176647333Y-71071399D01*
X176635597Y-71049443D01*
X176619803Y-71030197D01*
X176600557Y-71014403D01*
X176578601Y-71002667D01*
X176554776Y-70995440D01*
X176530000Y-70993000D01*
X173990000Y-70993000D01*
X173965224Y-70995440D01*
X173941399Y-71002667D01*
X173919443Y-71014403D01*
X173900197Y-71030197D01*
X173884403Y-71049443D01*
X173872667Y-71071399D01*
X173865440Y-71095224D01*
X173863000Y-71120000D01*
X173863000Y-72097629D01*
X173825000Y-72288665D01*
X173825000Y-72571335D01*
X173863000Y-72762371D01*
X173863000Y-74601294D01*
X173833700Y-74718184D01*
X173819783Y-75000512D01*
X173480000Y-75000512D01*
X173480000Y-71157325D01*
X173483676Y-71120000D01*
X173480000Y-71082675D01*
X173480000Y-71082667D01*
X173469003Y-70971014D01*
X173425546Y-70827753D01*
X173354974Y-70695724D01*
X173260001Y-70579999D01*
X173231004Y-70556202D01*
X163320000Y-60645199D01*
X163320000Y-55313711D01*
X163363937Y-55269774D01*
X163477205Y-55100256D01*
X163555226Y-54911898D01*
X163577934Y-54797736D01*
X164168743Y-55388544D01*
X164145820Y-55395498D01*
X164035506Y-55454463D01*
X163938815Y-55533815D01*
X163859463Y-55630506D01*
X163800498Y-55740820D01*
X163764188Y-55860518D01*
X163751928Y-55985000D01*
X163751928Y-59585000D01*
X163764188Y-59709482D01*
X163800498Y-59829180D01*
X163859463Y-59939494D01*
X163938815Y-60036185D01*
X164035506Y-60115537D01*
X164145820Y-60174502D01*
X164265518Y-60210812D01*
X164390000Y-60223072D01*
X166990000Y-60223072D01*
X167114482Y-60210812D01*
X167234180Y-60174502D01*
X167344494Y-60115537D01*
X167441185Y-60036185D01*
X167520537Y-59939494D01*
X167579502Y-59829180D01*
X167615812Y-59709482D01*
X167628072Y-59585000D01*
X193051928Y-59585000D01*
X193064188Y-59709482D01*
X193100498Y-59829180D01*
X193159463Y-59939494D01*
X193238815Y-60036185D01*
X193335506Y-60115537D01*
X193445820Y-60174502D01*
X193565518Y-60210812D01*
X193690000Y-60223072D01*
X194704250Y-60220000D01*
X194863000Y-60061250D01*
X194863000Y-57912000D01*
X195117000Y-57912000D01*
X195117000Y-60061250D01*
X195275750Y-60220000D01*
X196290000Y-60223072D01*
X196414482Y-60210812D01*
X196534180Y-60174502D01*
X196644494Y-60115537D01*
X196741185Y-60036185D01*
X196820537Y-59939494D01*
X196879502Y-59829180D01*
X196915812Y-59709482D01*
X196928072Y-59585000D01*
X196925000Y-58070750D01*
X196766250Y-57912000D01*
X195117000Y-57912000D01*
X194863000Y-57912000D01*
X193213750Y-57912000D01*
X193055000Y-58070750D01*
X193051928Y-59585000D01*
X167628072Y-59585000D01*
X167628072Y-55985000D01*
X193051928Y-55985000D01*
X193055000Y-57499250D01*
X193213750Y-57658000D01*
X194863000Y-57658000D01*
X194863000Y-55508750D01*
X195117000Y-55508750D01*
X195117000Y-57658000D01*
X196766250Y-57658000D01*
X196925000Y-57499250D01*
X196928072Y-55985000D01*
X196915812Y-55860518D01*
X196879502Y-55740820D01*
X196820537Y-55630506D01*
X196741185Y-55533815D01*
X196644494Y-55454463D01*
X196534180Y-55395498D01*
X196414482Y-55359188D01*
X196290000Y-55346928D01*
X195275750Y-55350000D01*
X195117000Y-55508750D01*
X194863000Y-55508750D01*
X194704250Y-55350000D01*
X193690000Y-55346928D01*
X193565518Y-55359188D01*
X193445820Y-55395498D01*
X193335506Y-55454463D01*
X193238815Y-55533815D01*
X193159463Y-55630506D01*
X193100498Y-55740820D01*
X193064188Y-55860518D01*
X193051928Y-55985000D01*
X167628072Y-55985000D01*
X167615812Y-55860518D01*
X167579502Y-55740820D01*
X167520537Y-55630506D01*
X167441185Y-55533815D01*
X167344494Y-55454463D01*
X167234180Y-55395498D01*
X167114482Y-55359188D01*
X166990000Y-55346928D01*
X166272618Y-55346928D01*
X166253799Y-55323997D01*
X166230001Y-55294999D01*
X166201003Y-55271201D01*
X161418688Y-50488887D01*
X161455000Y-50306335D01*
X161455000Y-50023665D01*
X161399853Y-49746426D01*
X161291680Y-49485273D01*
X161134637Y-49250241D01*
X160934759Y-49050363D01*
X160699727Y-48893320D01*
X160438574Y-48785147D01*
X160161335Y-48730000D01*
X159878665Y-48730000D01*
X159601426Y-48785147D01*
X159340273Y-48893320D01*
X159105241Y-49050363D01*
X158905363Y-49250241D01*
X158748320Y-49485273D01*
X158640147Y-49746426D01*
X158585000Y-50023665D01*
X154877129Y-50023665D01*
X154784637Y-49885241D01*
X154584759Y-49685363D01*
X154349727Y-49528320D01*
X154088574Y-49420147D01*
X153811335Y-49365000D01*
X153528665Y-49365000D01*
X153251426Y-49420147D01*
X152990273Y-49528320D01*
X152755241Y-49685363D01*
X152555363Y-49885241D01*
X152400000Y-50117759D01*
X152244637Y-49885241D01*
X152044759Y-49685363D01*
X151809727Y-49528320D01*
X151548574Y-49420147D01*
X151271335Y-49365000D01*
X150988665Y-49365000D01*
X150711426Y-49420147D01*
X150450273Y-49528320D01*
X150215241Y-49685363D01*
X150015363Y-49885241D01*
X149860000Y-50117759D01*
X149704637Y-49885241D01*
X149504759Y-49685363D01*
X149269727Y-49528320D01*
X149008574Y-49420147D01*
X148731335Y-49365000D01*
X148448665Y-49365000D01*
X148171426Y-49420147D01*
X147910273Y-49528320D01*
X147675241Y-49685363D01*
X147475363Y-49885241D01*
X147320000Y-50117759D01*
X147164637Y-49885241D01*
X146964759Y-49685363D01*
X146729727Y-49528320D01*
X146468574Y-49420147D01*
X146191335Y-49365000D01*
X145908665Y-49365000D01*
X145631426Y-49420147D01*
X145370273Y-49528320D01*
X145135241Y-49685363D01*
X144935363Y-49885241D01*
X144780000Y-50117759D01*
X144624637Y-49885241D01*
X144424759Y-49685363D01*
X144189727Y-49528320D01*
X143928574Y-49420147D01*
X143651335Y-49365000D01*
X143368665Y-49365000D01*
X143091426Y-49420147D01*
X142830273Y-49528320D01*
X142595241Y-49685363D01*
X142395363Y-49885241D01*
X142240000Y-50117759D01*
X142084637Y-49885241D01*
X141884759Y-49685363D01*
X141649727Y-49528320D01*
X141388574Y-49420147D01*
X141111335Y-49365000D01*
X140828665Y-49365000D01*
X140551426Y-49420147D01*
X140290273Y-49528320D01*
X140055241Y-49685363D01*
X139855363Y-49885241D01*
X139700000Y-50117759D01*
X139544637Y-49885241D01*
X139344759Y-49685363D01*
X139109727Y-49528320D01*
X138848574Y-49420147D01*
X138571335Y-49365000D01*
X138288665Y-49365000D01*
X138011426Y-49420147D01*
X137750273Y-49528320D01*
X137515241Y-49685363D01*
X137315363Y-49885241D01*
X137160000Y-50117759D01*
X137004637Y-49885241D01*
X136804759Y-49685363D01*
X136569727Y-49528320D01*
X136308574Y-49420147D01*
X136031335Y-49365000D01*
X135748665Y-49365000D01*
X135471426Y-49420147D01*
X135210273Y-49528320D01*
X134975241Y-49685363D01*
X134775363Y-49885241D01*
X134620000Y-50117759D01*
X134464637Y-49885241D01*
X134264759Y-49685363D01*
X134029727Y-49528320D01*
X133768574Y-49420147D01*
X133491335Y-49365000D01*
X133208665Y-49365000D01*
X132931426Y-49420147D01*
X132670273Y-49528320D01*
X132435241Y-49685363D01*
X132235363Y-49885241D01*
X132080000Y-50117759D01*
X131924637Y-49885241D01*
X131724759Y-49685363D01*
X131489727Y-49528320D01*
X131228574Y-49420147D01*
X130951335Y-49365000D01*
X130668665Y-49365000D01*
X130391426Y-49420147D01*
X130130273Y-49528320D01*
X129895241Y-49685363D01*
X129695363Y-49885241D01*
X129591957Y-50040000D01*
X127762000Y-50040000D01*
X127762000Y-49530000D01*
X127759560Y-49505224D01*
X127752333Y-49481399D01*
X127740597Y-49459443D01*
X127724803Y-49440197D01*
X127705557Y-49424403D01*
X127683601Y-49412667D01*
X127659776Y-49405440D01*
X127635000Y-49403000D01*
X126697371Y-49403000D01*
X126506335Y-49365000D01*
X126223665Y-49365000D01*
X126032629Y-49403000D01*
X125095000Y-49403000D01*
X125070224Y-49405440D01*
X125046399Y-49412667D01*
X125024443Y-49424403D01*
X125005197Y-49440197D01*
X124989403Y-49459443D01*
X124977667Y-49481399D01*
X124970440Y-49505224D01*
X124968000Y-49530000D01*
X124968000Y-50467629D01*
X124930000Y-50658665D01*
X124930000Y-50941335D01*
X124968000Y-51132371D01*
X124968000Y-52971294D01*
X124938700Y-53088184D01*
X124924783Y-53370512D01*
X124966213Y-53650130D01*
X124968000Y-53655127D01*
X124968000Y-54610000D01*
X124970440Y-54634776D01*
X124977667Y-54658601D01*
X124989403Y-54680557D01*
X125005197Y-54699803D01*
X125024443Y-54715597D01*
X125046399Y-54727333D01*
X125070224Y-54734560D01*
X125095000Y-54737000D01*
X126370250Y-54737000D01*
X126430241Y-54739957D01*
X123150199Y-58020000D01*
X123088061Y-58020000D01*
X122888102Y-58059774D01*
X122699744Y-58137795D01*
X122530226Y-58251063D01*
X122386063Y-58395226D01*
X122272795Y-58564744D01*
X122194774Y-58753102D01*
X122155000Y-58953061D01*
X122155000Y-59156939D01*
X122194774Y-59356898D01*
X122272795Y-59545256D01*
X122386063Y-59714774D01*
X122530226Y-59858937D01*
X122699744Y-59972205D01*
X122888102Y-60050226D01*
X123088061Y-60090000D01*
X123291939Y-60090000D01*
X123458039Y-60056961D01*
X123425000Y-60223061D01*
X123425000Y-60426939D01*
X123464774Y-60626898D01*
X123542795Y-60815256D01*
X123656063Y-60984774D01*
X123800226Y-61128937D01*
X123969744Y-61242205D01*
X124158102Y-61320226D01*
X124358061Y-61360000D01*
X124561939Y-61360000D01*
X124695000Y-61333533D01*
X124695000Y-61416937D01*
X124734774Y-61616896D01*
X124812795Y-61805254D01*
X124926063Y-61974772D01*
X125070226Y-62118935D01*
X125239744Y-62232203D01*
X125428102Y-62310224D01*
X125628061Y-62349998D01*
X125831939Y-62349998D01*
X126031898Y-62310224D01*
X126220256Y-62232203D01*
X126389774Y-62118935D01*
X126533937Y-61974772D01*
X126647205Y-61805254D01*
X126725226Y-61616896D01*
X126765000Y-61416937D01*
X126765000Y-61354799D01*
X129374765Y-58745034D01*
X129371928Y-59220000D01*
X129384188Y-59344482D01*
X129420498Y-59464180D01*
X129479463Y-59574494D01*
X129558815Y-59671185D01*
X129655506Y-59750537D01*
X129765820Y-59809502D01*
X129885518Y-59845812D01*
X130010000Y-59858072D01*
X130524250Y-59855000D01*
X130683000Y-59696250D01*
X130683000Y-58547000D01*
X130663000Y-58547000D01*
X130663000Y-58293000D01*
X130683000Y-58293000D01*
X130683000Y-58273000D01*
X130937000Y-58273000D01*
X130937000Y-58293000D01*
X130957000Y-58293000D01*
X130957000Y-58547000D01*
X130937000Y-58547000D01*
X130937000Y-59696250D01*
X131095750Y-59855000D01*
X131610000Y-59858072D01*
X131734482Y-59845812D01*
X131854180Y-59809502D01*
X131964494Y-59750537D01*
X132061185Y-59671185D01*
X132140537Y-59574494D01*
X132199502Y-59464180D01*
X132235812Y-59344482D01*
X132236643Y-59336039D01*
X132435241Y-59534637D01*
X132590001Y-59638044D01*
X132590000Y-65090198D01*
X131137058Y-66543141D01*
X131026426Y-66565147D01*
X130765273Y-66673320D01*
X130530241Y-66830363D01*
X130330363Y-67030241D01*
X130175000Y-67262759D01*
X130019637Y-67030241D01*
X129819759Y-66830363D01*
X129584727Y-66673320D01*
X129323574Y-66565147D01*
X129046335Y-66510000D01*
X128763665Y-66510000D01*
X128486426Y-66565147D01*
X128225273Y-66673320D01*
X127990241Y-66830363D01*
X127790363Y-67030241D01*
X127633320Y-67265273D01*
X127628933Y-67275865D01*
X127517385Y-67089869D01*
X127328414Y-66881481D01*
X127102420Y-66713963D01*
X126848087Y-66593754D01*
X126714039Y-66553096D01*
X126492000Y-66675085D01*
X126492000Y-67818000D01*
X126512000Y-67818000D01*
X126512000Y-68072000D01*
X126492000Y-68072000D01*
X126492000Y-68092000D01*
X126238000Y-68092000D01*
X126238000Y-68072000D01*
X126218000Y-68072000D01*
X126218000Y-67818000D01*
X126238000Y-67818000D01*
X126238000Y-66675085D01*
X126015961Y-66553096D01*
X125881913Y-66593754D01*
X125627580Y-66713963D01*
X125596674Y-66736872D01*
X118573929Y-59714128D01*
X118618000Y-59689915D01*
X118618000Y-58547000D01*
X118872000Y-58547000D01*
X118872000Y-59689915D01*
X119094039Y-59811904D01*
X119228087Y-59771246D01*
X119482420Y-59651037D01*
X119708414Y-59483519D01*
X119897385Y-59275131D01*
X120042070Y-59033881D01*
X120136909Y-58769040D01*
X120015624Y-58547000D01*
X118872000Y-58547000D01*
X118618000Y-58547000D01*
X118598000Y-58547000D01*
X118598000Y-58293000D01*
X118618000Y-58293000D01*
X118618000Y-57150085D01*
X118872000Y-57150085D01*
X118872000Y-58293000D01*
X120015624Y-58293000D01*
X120136909Y-58070960D01*
X120042070Y-57806119D01*
X119897385Y-57564869D01*
X119708414Y-57356481D01*
X119482420Y-57188963D01*
X119228087Y-57068754D01*
X119094039Y-57028096D01*
X118872000Y-57150085D01*
X118618000Y-57150085D01*
X118395961Y-57028096D01*
X118261913Y-57068754D01*
X118007580Y-57188963D01*
X117781586Y-57356481D01*
X117592615Y-57564869D01*
X117481067Y-57750865D01*
X117476680Y-57740273D01*
X117319637Y-57505241D01*
X117119759Y-57305363D01*
X116884727Y-57148320D01*
X116623574Y-57040147D01*
X116346335Y-56985000D01*
X116063665Y-56985000D01*
X115786426Y-57040147D01*
X115695000Y-57078017D01*
X115695000Y-54924801D01*
X118421114Y-52198688D01*
X118603665Y-52235000D01*
X118886335Y-52235000D01*
X119163574Y-52179853D01*
X119424727Y-52071680D01*
X119659759Y-51914637D01*
X119859637Y-51714759D01*
X120016680Y-51479727D01*
X120124853Y-51218574D01*
X120180000Y-50941335D01*
X120180000Y-50658665D01*
X120124853Y-50381426D01*
X120016680Y-50120273D01*
X119859637Y-49885241D01*
X119659759Y-49685363D01*
X119424727Y-49528320D01*
X119163574Y-49420147D01*
X118886335Y-49365000D01*
X118603665Y-49365000D01*
X118326426Y-49420147D01*
X118065273Y-49528320D01*
X117830241Y-49685363D01*
X117630363Y-49885241D01*
X117475000Y-50117759D01*
X117319637Y-49885241D01*
X117119759Y-49685363D01*
X116884727Y-49528320D01*
X116623574Y-49420147D01*
X116346335Y-49365000D01*
X116063665Y-49365000D01*
X115786426Y-49420147D01*
X115525273Y-49528320D01*
X115290241Y-49685363D01*
X115090363Y-49885241D01*
X114935000Y-50117759D01*
X114779637Y-49885241D01*
X114579759Y-49685363D01*
X114344727Y-49528320D01*
X114083574Y-49420147D01*
X113806335Y-49365000D01*
X113523665Y-49365000D01*
X113246426Y-49420147D01*
X112985273Y-49528320D01*
X112750241Y-49685363D01*
X112550363Y-49885241D01*
X112395000Y-50117759D01*
X112239637Y-49885241D01*
X112039759Y-49685363D01*
X111804727Y-49528320D01*
X111543574Y-49420147D01*
X111266335Y-49365000D01*
X110983665Y-49365000D01*
X110706426Y-49420147D01*
X110445273Y-49528320D01*
X110210241Y-49685363D01*
X110010363Y-49885241D01*
X109855000Y-50117759D01*
X109699637Y-49885241D01*
X109499759Y-49685363D01*
X109264727Y-49528320D01*
X109003574Y-49420147D01*
X108726335Y-49365000D01*
X108443665Y-49365000D01*
X108166426Y-49420147D01*
X107905273Y-49528320D01*
X107670241Y-49685363D01*
X107470363Y-49885241D01*
X107315000Y-50117759D01*
X107159637Y-49885241D01*
X106959759Y-49685363D01*
X106724727Y-49528320D01*
X106463574Y-49420147D01*
X106186335Y-49365000D01*
X105903665Y-49365000D01*
X105626426Y-49420147D01*
X105365273Y-49528320D01*
X105130241Y-49685363D01*
X104930363Y-49885241D01*
X104775000Y-50117759D01*
X104619637Y-49885241D01*
X104419759Y-49685363D01*
X104184727Y-49528320D01*
X103923574Y-49420147D01*
X103646335Y-49365000D01*
X103363665Y-49365000D01*
X103086426Y-49420147D01*
X102825273Y-49528320D01*
X102590241Y-49685363D01*
X102390363Y-49885241D01*
X102260229Y-50080000D01*
X100457000Y-50080000D01*
X100457000Y-49530000D01*
X100454560Y-49505224D01*
X100447333Y-49481399D01*
X100435597Y-49459443D01*
X100419803Y-49440197D01*
X100400557Y-49424403D01*
X100378601Y-49412667D01*
X100354776Y-49405440D01*
X100330000Y-49403000D01*
X97790000Y-49403000D01*
X97765224Y-49405440D01*
X97741399Y-49412667D01*
X97719443Y-49424403D01*
X97700197Y-49440197D01*
X97684403Y-49459443D01*
X97672667Y-49481399D01*
X97665440Y-49505224D01*
X97663000Y-49530000D01*
X97663000Y-50507629D01*
X97625000Y-50698665D01*
X97625000Y-50981335D01*
X97663000Y-51172371D01*
X97663000Y-53011294D01*
X97633700Y-53128184D01*
X97619783Y-53410512D01*
X97661213Y-53690130D01*
X97663000Y-53695127D01*
X97663000Y-54610000D01*
X97665440Y-54634776D01*
X97672667Y-54658601D01*
X97684403Y-54680557D01*
X97700197Y-54699803D01*
X97719443Y-54715597D01*
X97741399Y-54727333D01*
X97765224Y-54734560D01*
X97790000Y-54737000D01*
X98731294Y-54737000D01*
X98848184Y-54766300D01*
X99130512Y-54780217D01*
X99410130Y-54738787D01*
X99415127Y-54737000D01*
X100330000Y-54737000D01*
X100354776Y-54734560D01*
X100378601Y-54727333D01*
X100400557Y-54715597D01*
X100419803Y-54699803D01*
X100435597Y-54680557D01*
X100447333Y-54658601D01*
X100454560Y-54634776D01*
X100457000Y-54610000D01*
X100457000Y-53668706D01*
X100486300Y-53551816D01*
X100500217Y-53269488D01*
X100458787Y-52989870D01*
X100457000Y-52984873D01*
X100457000Y-51600000D01*
X102313684Y-51600000D01*
X102390363Y-51714759D01*
X102590241Y-51914637D01*
X102825273Y-52071680D01*
X103086426Y-52179853D01*
X103363665Y-52235000D01*
X103646335Y-52235000D01*
X103923574Y-52179853D01*
X104184727Y-52071680D01*
X104419759Y-51914637D01*
X104619637Y-51714759D01*
X104775000Y-51482241D01*
X104930363Y-51714759D01*
X105130241Y-51914637D01*
X105365273Y-52071680D01*
X105626426Y-52179853D01*
X105903665Y-52235000D01*
X106186335Y-52235000D01*
X106463574Y-52179853D01*
X106724727Y-52071680D01*
X106959759Y-51914637D01*
X107159637Y-51714759D01*
X107315000Y-51482241D01*
X107470363Y-51714759D01*
X107670241Y-51914637D01*
X107905273Y-52071680D01*
X108166426Y-52179853D01*
X108443665Y-52235000D01*
X108615198Y-52235000D01*
X103868271Y-56981928D01*
X102705000Y-56981928D01*
X102580518Y-56994188D01*
X102460820Y-57030498D01*
X102350506Y-57089463D01*
X102253815Y-57168815D01*
X102174463Y-57265506D01*
X102115498Y-57375820D01*
X102079188Y-57495518D01*
X102066928Y-57620000D01*
X102066928Y-59220000D01*
X102079188Y-59344482D01*
X102115498Y-59464180D01*
X102174463Y-59574494D01*
X102253815Y-59671185D01*
X102350506Y-59750537D01*
X102460820Y-59809502D01*
X102580518Y-59845812D01*
X102705000Y-59858072D01*
X103532127Y-59858072D01*
X102555199Y-60835000D01*
X100367322Y-60835000D01*
X100329999Y-60831324D01*
X100292676Y-60835000D01*
X100292667Y-60835000D01*
X100181014Y-60845997D01*
X100039912Y-60888799D01*
X100037753Y-60889454D01*
X99905723Y-60960026D01*
X99841053Y-61013100D01*
X99789999Y-61054999D01*
X99766201Y-61083997D01*
X96643998Y-64206201D01*
X96615000Y-64229999D01*
X96591202Y-64258997D01*
X96591201Y-64258998D01*
X96520026Y-64345724D01*
X96449454Y-64477754D01*
X96405998Y-64621015D01*
X96391324Y-64770000D01*
X96395001Y-64807333D01*
X96395000Y-104102678D01*
X96391324Y-104140000D01*
X96395000Y-104177322D01*
X96395000Y-104177332D01*
X96405997Y-104288985D01*
X96432089Y-104375000D01*
X96449454Y-104432246D01*
X96520026Y-104564276D01*
X96554320Y-104606063D01*
X96614999Y-104680001D01*
X96644003Y-104703804D01*
X106751200Y-114811002D01*
X106774999Y-114840001D01*
X106890724Y-114934974D01*
X107022753Y-115005546D01*
X107166014Y-115049003D01*
X107277667Y-115060000D01*
X107277675Y-115060000D01*
X107315000Y-115063676D01*
X107352325Y-115060000D01*
X107881289Y-115060000D01*
X107925226Y-115103937D01*
X108094744Y-115217205D01*
X108283102Y-115295226D01*
X108483061Y-115335000D01*
X108686939Y-115335000D01*
X108886898Y-115295226D01*
X109075256Y-115217205D01*
X109095000Y-115204013D01*
X109095000Y-115532678D01*
X109091324Y-115570000D01*
X109095000Y-115607322D01*
X109095000Y-115607332D01*
X109105997Y-115718985D01*
X109132089Y-115805000D01*
X109149454Y-115862246D01*
X109220026Y-115994276D01*
X109254320Y-116036063D01*
X109314999Y-116110001D01*
X109344003Y-116133804D01*
X117410002Y-124199804D01*
X117410002Y-128143000D01*
X116390001Y-128143000D01*
X116390001Y-123922323D01*
X116393677Y-123885000D01*
X116390001Y-123847677D01*
X116390001Y-123847668D01*
X116379004Y-123736015D01*
X116335547Y-123592754D01*
X116264975Y-123460725D01*
X116170002Y-123345000D01*
X116141004Y-123321202D01*
X113430000Y-120610199D01*
X113430000Y-120548061D01*
X113390226Y-120348102D01*
X113312205Y-120159744D01*
X113198937Y-119990226D01*
X113054774Y-119846063D01*
X112885256Y-119732795D01*
X112696898Y-119654774D01*
X112496939Y-119615000D01*
X112293061Y-119615000D01*
X112093102Y-119654774D01*
X111904744Y-119732795D01*
X111735226Y-119846063D01*
X111591063Y-119990226D01*
X111477795Y-120159744D01*
X111399774Y-120348102D01*
X111360000Y-120548061D01*
X111360000Y-120751939D01*
X111399774Y-120951898D01*
X111477795Y-121140256D01*
X111591063Y-121309774D01*
X111735226Y-121453937D01*
X111904744Y-121567205D01*
X112093102Y-121645226D01*
X112293061Y-121685000D01*
X112355199Y-121685000D01*
X114870002Y-124199804D01*
X114870002Y-128143000D01*
X113850001Y-128143000D01*
X113850001Y-124588712D01*
X113893938Y-124544775D01*
X114007206Y-124375257D01*
X114085227Y-124186899D01*
X114125001Y-123986940D01*
X114125001Y-123783062D01*
X114085227Y-123583103D01*
X114007206Y-123394745D01*
X113893938Y-123225227D01*
X113749775Y-123081064D01*
X113580257Y-122967796D01*
X113391899Y-122889775D01*
X113191940Y-122850001D01*
X112988062Y-122850001D01*
X112788103Y-122889775D01*
X112599745Y-122967796D01*
X112430227Y-123081064D01*
X112286064Y-123225227D01*
X112172796Y-123394745D01*
X112094775Y-123583103D01*
X112055001Y-123783062D01*
X112055001Y-123986940D01*
X112094775Y-124186899D01*
X112172796Y-124375257D01*
X112286064Y-124544775D01*
X112330002Y-124588713D01*
X112330002Y-128143000D01*
X108610000Y-128143000D01*
X108610000Y-118777065D01*
X108613192Y-118744306D01*
X108606871Y-118680812D01*
X108600450Y-118615617D01*
X108600347Y-118615277D01*
X108600313Y-118614936D01*
X108581602Y-118553486D01*
X108562710Y-118491207D01*
X108562546Y-118490900D01*
X108562444Y-118490565D01*
X108532024Y-118433797D01*
X108501425Y-118376550D01*
X108501201Y-118376277D01*
X108501038Y-118375973D01*
X108460105Y-118326201D01*
X108418948Y-118276052D01*
X108418680Y-118275832D01*
X108418457Y-118275561D01*
X108368452Y-118234611D01*
X108318450Y-118193575D01*
X108289414Y-118178055D01*
X93370000Y-108231779D01*
X93370000Y-58134040D01*
X97668091Y-58134040D01*
X97762930Y-58398881D01*
X97907615Y-58640131D01*
X98096586Y-58848519D01*
X98322580Y-59016037D01*
X98576913Y-59136246D01*
X98710961Y-59176904D01*
X98933000Y-59054915D01*
X98933000Y-57912000D01*
X99187000Y-57912000D01*
X99187000Y-59054915D01*
X99409039Y-59176904D01*
X99543087Y-59136246D01*
X99797420Y-59016037D01*
X100023414Y-58848519D01*
X100212385Y-58640131D01*
X100357070Y-58398881D01*
X100451909Y-58134040D01*
X100330624Y-57912000D01*
X99187000Y-57912000D01*
X98933000Y-57912000D01*
X97789376Y-57912000D01*
X97668091Y-58134040D01*
X93370000Y-58134040D01*
X93370000Y-57435960D01*
X97668091Y-57435960D01*
X97789376Y-57658000D01*
X98933000Y-57658000D01*
X98933000Y-56515085D01*
X99187000Y-56515085D01*
X99187000Y-57658000D01*
X100330624Y-57658000D01*
X100451909Y-57435960D01*
X100357070Y-57171119D01*
X100212385Y-56929869D01*
X100023414Y-56721481D01*
X99797420Y-56553963D01*
X99543087Y-56433754D01*
X99409039Y-56393096D01*
X99187000Y-56515085D01*
X98933000Y-56515085D01*
X98710961Y-56393096D01*
X98576913Y-56433754D01*
X98322580Y-56553963D01*
X98096586Y-56721481D01*
X97907615Y-56929869D01*
X97762930Y-57171119D01*
X97668091Y-57435960D01*
X93370000Y-57435960D01*
X93370000Y-45110000D01*
X201270001Y-45110000D01*
X201270000Y-108231779D01*
G36*
X158174263Y-91939065D02*
G01*
X158113320Y-92030273D01*
X158108933Y-92040865D01*
X157997385Y-91854869D01*
X157808414Y-91646481D01*
X157582420Y-91478963D01*
X157328087Y-91358754D01*
X157194039Y-91318096D01*
X156972000Y-91440085D01*
X156972000Y-92583000D01*
X156992000Y-92583000D01*
X156992000Y-92837000D01*
X156972000Y-92837000D01*
X156972000Y-93979915D01*
X157194039Y-94101904D01*
X157328087Y-94061246D01*
X157582420Y-93941037D01*
X157808414Y-93773519D01*
X157997385Y-93565131D01*
X158108933Y-93379135D01*
X158113320Y-93389727D01*
X158174263Y-93480935D01*
X157604003Y-94051196D01*
X157574999Y-94074999D01*
X157529982Y-94129853D01*
X157480026Y-94190724D01*
X157444441Y-94257298D01*
X157409454Y-94322754D01*
X157365997Y-94466015D01*
X157355000Y-94577668D01*
X157355000Y-94577678D01*
X157351324Y-94615000D01*
X157355000Y-94652322D01*
X157355001Y-106611475D01*
X157328087Y-106598754D01*
X157194039Y-106558096D01*
X156972000Y-106680085D01*
X156972000Y-107823000D01*
X156992000Y-107823000D01*
X156992000Y-108077000D01*
X156972000Y-108077000D01*
X156972000Y-109219915D01*
X157194039Y-109341904D01*
X157328087Y-109301246D01*
X157355001Y-109288525D01*
X157355001Y-112326288D01*
X157311063Y-112370226D01*
X157197795Y-112539744D01*
X157119774Y-112728102D01*
X157080000Y-112928061D01*
X157080000Y-113131939D01*
X157119774Y-113331898D01*
X157197795Y-113520256D01*
X157311063Y-113689774D01*
X157455226Y-113833937D01*
X157624744Y-113947205D01*
X157813102Y-114025226D01*
X158013061Y-114065000D01*
X158216939Y-114065000D01*
X158416898Y-114025226D01*
X158605256Y-113947205D01*
X158774774Y-113833937D01*
X158918937Y-113689774D01*
X159032205Y-113520256D01*
X159110226Y-113331898D01*
X159150000Y-113131939D01*
X159150000Y-112928061D01*
X159110226Y-112728102D01*
X159032205Y-112539744D01*
X158918937Y-112370226D01*
X158875000Y-112326289D01*
X158875000Y-109288526D01*
X158901913Y-109301246D01*
X159035961Y-109341904D01*
X159258000Y-109219915D01*
X159258000Y-108077000D01*
X159238000Y-108077000D01*
X159238000Y-107823000D01*
X159258000Y-107823000D01*
X159258000Y-106680085D01*
X159035961Y-106558096D01*
X158901913Y-106598754D01*
X158875000Y-106611474D01*
X158875000Y-94929801D01*
X159692943Y-94111859D01*
X159803574Y-94089853D01*
X160064727Y-93981680D01*
X160299759Y-93824637D01*
X160499637Y-93624759D01*
X160655000Y-93392241D01*
X160714263Y-93480935D01*
X160144003Y-94051196D01*
X160114999Y-94074999D01*
X160069982Y-94129853D01*
X160020026Y-94190724D01*
X159984441Y-94257298D01*
X159949454Y-94322754D01*
X159905997Y-94466015D01*
X159895000Y-94577668D01*
X159895000Y-94577678D01*
X159891324Y-94615000D01*
X159895000Y-94652322D01*
X159895001Y-106611475D01*
X159868087Y-106598754D01*
X159734039Y-106558096D01*
X159512000Y-106680085D01*
X159512000Y-107823000D01*
X159532000Y-107823000D01*
X159532000Y-108077000D01*
X159512000Y-108077000D01*
X159512000Y-109219915D01*
X159734039Y-109341904D01*
X159868087Y-109301246D01*
X159895001Y-109288525D01*
X159895001Y-112715197D01*
X156805199Y-115805000D01*
X156743061Y-115805000D01*
X156543102Y-115844774D01*
X156354744Y-115922795D01*
X156335000Y-115935987D01*
X156335000Y-109288526D01*
X156361913Y-109301246D01*
X156495961Y-109341904D01*
X156718000Y-109219915D01*
X156718000Y-108077000D01*
X156698000Y-108077000D01*
X156698000Y-107823000D01*
X156718000Y-107823000D01*
X156718000Y-106680085D01*
X156495961Y-106558096D01*
X156361913Y-106598754D01*
X156335000Y-106611474D01*
X156335000Y-94048526D01*
X156361913Y-94061246D01*
X156495961Y-94101904D01*
X156718000Y-93979915D01*
X156718000Y-92837000D01*
X156698000Y-92837000D01*
X156698000Y-92583000D01*
X156718000Y-92583000D01*
X156718000Y-91440085D01*
X156495961Y-91318096D01*
X156361913Y-91358754D01*
X156335000Y-91371474D01*
X156335000Y-90099801D01*
X158174263Y-91939065D01*
G37*
X158174263Y-91939065D02*
X158113320Y-92030273D01*
X158108933Y-92040865D01*
X157997385Y-91854869D01*
X157808414Y-91646481D01*
X157582420Y-91478963D01*
X157328087Y-91358754D01*
X157194039Y-91318096D01*
X156972000Y-91440085D01*
X156972000Y-92583000D01*
X156992000Y-92583000D01*
X156992000Y-92837000D01*
X156972000Y-92837000D01*
X156972000Y-93979915D01*
X157194039Y-94101904D01*
X157328087Y-94061246D01*
X157582420Y-93941037D01*
X157808414Y-93773519D01*
X157997385Y-93565131D01*
X158108933Y-93379135D01*
X158113320Y-93389727D01*
X158174263Y-93480935D01*
X157604003Y-94051196D01*
X157574999Y-94074999D01*
X157529982Y-94129853D01*
X157480026Y-94190724D01*
X157444441Y-94257298D01*
X157409454Y-94322754D01*
X157365997Y-94466015D01*
X157355000Y-94577668D01*
X157355000Y-94577678D01*
X157351324Y-94615000D01*
X157355000Y-94652322D01*
X157355001Y-106611475D01*
X157328087Y-106598754D01*
X157194039Y-106558096D01*
X156972000Y-106680085D01*
X156972000Y-107823000D01*
X156992000Y-107823000D01*
X156992000Y-108077000D01*
X156972000Y-108077000D01*
X156972000Y-109219915D01*
X157194039Y-109341904D01*
X157328087Y-109301246D01*
X157355001Y-109288525D01*
X157355001Y-112326288D01*
X157311063Y-112370226D01*
X157197795Y-112539744D01*
X157119774Y-112728102D01*
X157080000Y-112928061D01*
X157080000Y-113131939D01*
X157119774Y-113331898D01*
X157197795Y-113520256D01*
X157311063Y-113689774D01*
X157455226Y-113833937D01*
X157624744Y-113947205D01*
X157813102Y-114025226D01*
X158013061Y-114065000D01*
X158216939Y-114065000D01*
X158416898Y-114025226D01*
X158605256Y-113947205D01*
X158774774Y-113833937D01*
X158918937Y-113689774D01*
X159032205Y-113520256D01*
X159110226Y-113331898D01*
X159150000Y-113131939D01*
X159150000Y-112928061D01*
X159110226Y-112728102D01*
X159032205Y-112539744D01*
X158918937Y-112370226D01*
X158875000Y-112326289D01*
X158875000Y-109288526D01*
X158901913Y-109301246D01*
X159035961Y-109341904D01*
X159258000Y-109219915D01*
X159258000Y-108077000D01*
X159238000Y-108077000D01*
X159238000Y-107823000D01*
X159258000Y-107823000D01*
X159258000Y-106680085D01*
X159035961Y-106558096D01*
X158901913Y-106598754D01*
X158875000Y-106611474D01*
X158875000Y-94929801D01*
X159692943Y-94111859D01*
X159803574Y-94089853D01*
X160064727Y-93981680D01*
X160299759Y-93824637D01*
X160499637Y-93624759D01*
X160655000Y-93392241D01*
X160714263Y-93480935D01*
X160144003Y-94051196D01*
X160114999Y-94074999D01*
X160069982Y-94129853D01*
X160020026Y-94190724D01*
X159984441Y-94257298D01*
X159949454Y-94322754D01*
X159905997Y-94466015D01*
X159895000Y-94577668D01*
X159895000Y-94577678D01*
X159891324Y-94615000D01*
X159895000Y-94652322D01*
X159895001Y-106611475D01*
X159868087Y-106598754D01*
X159734039Y-106558096D01*
X159512000Y-106680085D01*
X159512000Y-107823000D01*
X159532000Y-107823000D01*
X159532000Y-108077000D01*
X159512000Y-108077000D01*
X159512000Y-109219915D01*
X159734039Y-109341904D01*
X159868087Y-109301246D01*
X159895001Y-109288525D01*
X159895001Y-112715197D01*
X156805199Y-115805000D01*
X156743061Y-115805000D01*
X156543102Y-115844774D01*
X156354744Y-115922795D01*
X156335000Y-115935987D01*
X156335000Y-109288526D01*
X156361913Y-109301246D01*
X156495961Y-109341904D01*
X156718000Y-109219915D01*
X156718000Y-108077000D01*
X156698000Y-108077000D01*
X156698000Y-107823000D01*
X156718000Y-107823000D01*
X156718000Y-106680085D01*
X156495961Y-106558096D01*
X156361913Y-106598754D01*
X156335000Y-106611474D01*
X156335000Y-94048526D01*
X156361913Y-94061246D01*
X156495961Y-94101904D01*
X156718000Y-93979915D01*
X156718000Y-92837000D01*
X156698000Y-92837000D01*
X156698000Y-92583000D01*
X156718000Y-92583000D01*
X156718000Y-91440085D01*
X156495961Y-91318096D01*
X156361913Y-91358754D01*
X156335000Y-91371474D01*
X156335000Y-90099801D01*
X158174263Y-91939065D01*
G36*
X110998000Y-129413000D02*
G01*
X109982000Y-129413000D01*
X109982000Y-127762000D01*
X110998000Y-127762000D01*
X110998000Y-129413000D01*
G37*
X110998000Y-129413000D02*
X109982000Y-129413000D01*
X109982000Y-127762000D01*
X110998000Y-127762000D01*
X110998000Y-129413000D01*
G36*
X149098000Y-129413000D02*
G01*
X148082000Y-129413000D01*
X148082000Y-127762000D01*
X149098000Y-127762000D01*
X149098000Y-129413000D01*
G37*
X149098000Y-129413000D02*
X148082000Y-129413000D01*
X148082000Y-127762000D01*
X149098000Y-127762000D01*
X149098000Y-129413000D01*
G04 #@! TO.N,VCC*
G36*
X184658000Y-129413000D02*
G01*
X183642000Y-129413000D01*
X183642000Y-123317000D01*
X184658000Y-123317000D01*
X184658000Y-129413000D01*
G37*
X184658000Y-129413000D02*
X183642000Y-129413000D01*
X183642000Y-123317000D01*
X184658000Y-123317000D01*
X184658000Y-129413000D01*
G04 #@! TD*
M02*
