G04 #@! TF.GenerationSoftware,KiCad,Pcbnew,5.1.5+dfsg1-2build2*
G04 #@! TF.CreationDate,2021-04-05T19:08:48+08:00*
G04 #@! TF.ProjectId,famicart_rom,66616d69-6361-4727-945f-726f6d2e6b69,rev?*
G04 #@! TF.SameCoordinates,Original*
G04 #@! TF.FileFunction,Legend,Bot*
G04 #@! TF.FilePolarity,Positive*
%FSLAX46Y46*%
G04 Gerber Fmt 4.6, Leading zero omitted, Abs format (unit mm)*
G04 Created by KiCad (PCBNEW 5.1.5+dfsg1-2build2) date 2021-04-05 19:08:48*
%MOMM*%
%LPD*%
G04 APERTURE LIST*
%ADD10C,0.300000*%
G04 APERTURE END LIST*
D10*
X199639523Y-46784761D02*
X198496666Y-46784761D01*
X199068095Y-48784761D02*
X199068095Y-46784761D01*
X197925238Y-48689523D02*
X197639523Y-48784761D01*
X197163333Y-48784761D01*
X196972857Y-48689523D01*
X196877619Y-48594285D01*
X196782380Y-48403809D01*
X196782380Y-48213333D01*
X196877619Y-48022857D01*
X196972857Y-47927619D01*
X197163333Y-47832380D01*
X197544285Y-47737142D01*
X197734761Y-47641904D01*
X197830000Y-47546666D01*
X197925238Y-47356190D01*
X197925238Y-47165714D01*
X197830000Y-46975238D01*
X197734761Y-46880000D01*
X197544285Y-46784761D01*
X197068095Y-46784761D01*
X196782380Y-46880000D01*
X195925238Y-48784761D02*
X195925238Y-46784761D01*
X195163333Y-46784761D01*
X194972857Y-46880000D01*
X194877619Y-46975238D01*
X194782380Y-47165714D01*
X194782380Y-47451428D01*
X194877619Y-47641904D01*
X194972857Y-47737142D01*
X195163333Y-47832380D01*
X195925238Y-47832380D01*
X193544285Y-46784761D02*
X193163333Y-46784761D01*
X192972857Y-46880000D01*
X192782380Y-47070476D01*
X192687142Y-47451428D01*
X192687142Y-48118095D01*
X192782380Y-48499047D01*
X192972857Y-48689523D01*
X193163333Y-48784761D01*
X193544285Y-48784761D01*
X193734761Y-48689523D01*
X193925238Y-48499047D01*
X194020476Y-48118095D01*
X194020476Y-47451428D01*
X193925238Y-47070476D01*
X193734761Y-46880000D01*
X193544285Y-46784761D01*
X191449047Y-46784761D02*
X191068095Y-46784761D01*
X190877619Y-46880000D01*
X190687142Y-47070476D01*
X190591904Y-47451428D01*
X190591904Y-48118095D01*
X190687142Y-48499047D01*
X190877619Y-48689523D01*
X191068095Y-48784761D01*
X191449047Y-48784761D01*
X191639523Y-48689523D01*
X191830000Y-48499047D01*
X191925238Y-48118095D01*
X191925238Y-47451428D01*
X191830000Y-47070476D01*
X191639523Y-46880000D01*
X191449047Y-46784761D01*
X189734761Y-48784761D02*
X189734761Y-46784761D01*
X188591904Y-48784761D01*
X188591904Y-46784761D01*
X186115714Y-48784761D02*
X186115714Y-46784761D01*
X185639523Y-46784761D01*
X185353809Y-46880000D01*
X185163333Y-47070476D01*
X185068095Y-47260952D01*
X184972857Y-47641904D01*
X184972857Y-47927619D01*
X185068095Y-48308571D01*
X185163333Y-48499047D01*
X185353809Y-48689523D01*
X185639523Y-48784761D01*
X186115714Y-48784761D01*
X184115714Y-47737142D02*
X183449047Y-47737142D01*
X183163333Y-48784761D02*
X184115714Y-48784761D01*
X184115714Y-46784761D01*
X183163333Y-46784761D01*
X182591904Y-46784761D02*
X181925238Y-48784761D01*
X181258571Y-46784761D01*
X179449047Y-48594285D02*
X179544285Y-48689523D01*
X179830000Y-48784761D01*
X180020476Y-48784761D01*
X180306190Y-48689523D01*
X180496666Y-48499047D01*
X180591904Y-48308571D01*
X180687142Y-47927619D01*
X180687142Y-47641904D01*
X180591904Y-47260952D01*
X180496666Y-47070476D01*
X180306190Y-46880000D01*
X180020476Y-46784761D01*
X179830000Y-46784761D01*
X179544285Y-46880000D01*
X179449047Y-46975238D01*
X178687142Y-48213333D02*
X177734761Y-48213333D01*
X178877619Y-48784761D02*
X178210952Y-46784761D01*
X177544285Y-48784761D01*
X175734761Y-48784761D02*
X176401428Y-47832380D01*
X176877619Y-48784761D02*
X176877619Y-46784761D01*
X176115714Y-46784761D01*
X175925238Y-46880000D01*
X175830000Y-46975238D01*
X175734761Y-47165714D01*
X175734761Y-47451428D01*
X175830000Y-47641904D01*
X175925238Y-47737142D01*
X176115714Y-47832380D01*
X176877619Y-47832380D01*
X175163333Y-46784761D02*
X174020476Y-46784761D01*
X174591904Y-48784761D02*
X174591904Y-46784761D01*
X172020476Y-47451428D02*
X171544285Y-48784761D01*
X171068095Y-47451428D01*
X169925238Y-46784761D02*
X169734761Y-46784761D01*
X169544285Y-46880000D01*
X169449047Y-46975238D01*
X169353809Y-47165714D01*
X169258571Y-47546666D01*
X169258571Y-48022857D01*
X169353809Y-48403809D01*
X169449047Y-48594285D01*
X169544285Y-48689523D01*
X169734761Y-48784761D01*
X169925238Y-48784761D01*
X170115714Y-48689523D01*
X170210952Y-48594285D01*
X170306190Y-48403809D01*
X170401428Y-48022857D01*
X170401428Y-47546666D01*
X170306190Y-47165714D01*
X170210952Y-46975238D01*
X170115714Y-46880000D01*
X169925238Y-46784761D01*
X168401428Y-48594285D02*
X168306190Y-48689523D01*
X168401428Y-48784761D01*
X168496666Y-48689523D01*
X168401428Y-48594285D01*
X168401428Y-48784761D01*
X167353809Y-48784761D02*
X166972857Y-48784761D01*
X166782380Y-48689523D01*
X166687142Y-48594285D01*
X166496666Y-48308571D01*
X166401428Y-47927619D01*
X166401428Y-47165714D01*
X166496666Y-46975238D01*
X166591904Y-46880000D01*
X166782380Y-46784761D01*
X167163333Y-46784761D01*
X167353809Y-46880000D01*
X167449047Y-46975238D01*
X167544285Y-47165714D01*
X167544285Y-47641904D01*
X167449047Y-47832380D01*
X167353809Y-47927619D01*
X167163333Y-48022857D01*
X166782380Y-48022857D01*
X166591904Y-47927619D01*
X166496666Y-47832380D01*
X166401428Y-47641904D01*
X198687142Y-51037142D02*
X199353809Y-51037142D01*
X199353809Y-52084761D02*
X199353809Y-50084761D01*
X198401428Y-50084761D01*
X196496666Y-51894285D02*
X196591904Y-51989523D01*
X196877619Y-52084761D01*
X197068095Y-52084761D01*
X197353809Y-51989523D01*
X197544285Y-51799047D01*
X197639523Y-51608571D01*
X197734761Y-51227619D01*
X197734761Y-50941904D01*
X197639523Y-50560952D01*
X197544285Y-50370476D01*
X197353809Y-50180000D01*
X197068095Y-50084761D01*
X196877619Y-50084761D01*
X196591904Y-50180000D01*
X196496666Y-50275238D01*
X195734761Y-50275238D02*
X195639523Y-50180000D01*
X195449047Y-50084761D01*
X194972857Y-50084761D01*
X194782380Y-50180000D01*
X194687142Y-50275238D01*
X194591904Y-50465714D01*
X194591904Y-50656190D01*
X194687142Y-50941904D01*
X195830000Y-52084761D01*
X194591904Y-52084761D01*
X193353809Y-50084761D02*
X193163333Y-50084761D01*
X192972857Y-50180000D01*
X192877619Y-50275238D01*
X192782380Y-50465714D01*
X192687142Y-50846666D01*
X192687142Y-51322857D01*
X192782380Y-51703809D01*
X192877619Y-51894285D01*
X192972857Y-51989523D01*
X193163333Y-52084761D01*
X193353809Y-52084761D01*
X193544285Y-51989523D01*
X193639523Y-51894285D01*
X193734761Y-51703809D01*
X193830000Y-51322857D01*
X193830000Y-50846666D01*
X193734761Y-50465714D01*
X193639523Y-50275238D01*
X193544285Y-50180000D01*
X193353809Y-50084761D01*
X191925238Y-50275238D02*
X191830000Y-50180000D01*
X191639523Y-50084761D01*
X191163333Y-50084761D01*
X190972857Y-50180000D01*
X190877619Y-50275238D01*
X190782380Y-50465714D01*
X190782380Y-50656190D01*
X190877619Y-50941904D01*
X192020476Y-52084761D01*
X190782380Y-52084761D01*
X189544285Y-50084761D02*
X189353809Y-50084761D01*
X189163333Y-50180000D01*
X189068095Y-50275238D01*
X188972857Y-50465714D01*
X188877619Y-50846666D01*
X188877619Y-51322857D01*
X188972857Y-51703809D01*
X189068095Y-51894285D01*
X189163333Y-51989523D01*
X189353809Y-52084761D01*
X189544285Y-52084761D01*
X189734761Y-51989523D01*
X189830000Y-51894285D01*
X189925238Y-51703809D01*
X190020476Y-51322857D01*
X190020476Y-50846666D01*
X189925238Y-50465714D01*
X189830000Y-50275238D01*
X189734761Y-50180000D01*
X189544285Y-50084761D01*
X187639523Y-50084761D02*
X187449047Y-50084761D01*
X187258571Y-50180000D01*
X187163333Y-50275238D01*
X187068095Y-50465714D01*
X186972857Y-50846666D01*
X186972857Y-51322857D01*
X187068095Y-51703809D01*
X187163333Y-51894285D01*
X187258571Y-51989523D01*
X187449047Y-52084761D01*
X187639523Y-52084761D01*
X187830000Y-51989523D01*
X187925238Y-51894285D01*
X188020476Y-51703809D01*
X188115714Y-51322857D01*
X188115714Y-50846666D01*
X188020476Y-50465714D01*
X187925238Y-50275238D01*
X187830000Y-50180000D01*
X187639523Y-50084761D01*
X186020476Y-52084761D02*
X185639523Y-52084761D01*
X185449047Y-51989523D01*
X185353809Y-51894285D01*
X185163333Y-51608571D01*
X185068095Y-51227619D01*
X185068095Y-50465714D01*
X185163333Y-50275238D01*
X185258571Y-50180000D01*
X185449047Y-50084761D01*
X185830000Y-50084761D01*
X186020476Y-50180000D01*
X186115714Y-50275238D01*
X186210952Y-50465714D01*
X186210952Y-50941904D01*
X186115714Y-51132380D01*
X186020476Y-51227619D01*
X185830000Y-51322857D01*
X185449047Y-51322857D01*
X185258571Y-51227619D01*
X185163333Y-51132380D01*
X185068095Y-50941904D01*
X183163333Y-52084761D02*
X184306190Y-52084761D01*
X183734761Y-52084761D02*
X183734761Y-50084761D01*
X183925238Y-50370476D01*
X184115714Y-50560952D01*
X184306190Y-50656190D01*
X182496666Y-50084761D02*
X181258571Y-50084761D01*
X181925238Y-50846666D01*
X181639523Y-50846666D01*
X181449047Y-50941904D01*
X181353809Y-51037142D01*
X181258571Y-51227619D01*
X181258571Y-51703809D01*
X181353809Y-51894285D01*
X181449047Y-51989523D01*
X181639523Y-52084761D01*
X182210952Y-52084761D01*
X182401428Y-51989523D01*
X182496666Y-51894285D01*
M02*
